<svg xmlns="http://www.w3.org/2000/svg" viewBox="0 0 1000 1000"><defs><style>.cls-1{fill:#5b99f5;}.cls-2{fill:#48575e;}.cls-3{fill:#e1eaf1;}</style></defs><title>Virus</title><g id="Layer_2" data-name="Layer 2"><g id="Layer_26" data-name="Layer 26"><g id="Virus"><path class="cls-1" d="M818.38,543.2l-57.74,18.88a55.83,55.83,0,0,0-32.44,78.33l27.48,54.17a96,96,0,0,0-61.09,61.11l-54.18-27.48a55.83,55.83,0,0,0-78.33,32.44L543.2,818.39a96,96,0,0,0-86.4,0l-18.88-57.74a55.83,55.83,0,0,0-78.33-32.44l-54.18,27.48a96,96,0,0,0-61.09-61.11l27.48-54.17a55.83,55.83,0,0,0-32.44-78.33L181.62,543.2a96.1,96.1,0,0,0,0-86.41l57.73-18.87a55.83,55.83,0,0,0,32.45-78.33l-27.48-54.17a96,96,0,0,0,61.09-61.11l54.18,27.48a55.83,55.83,0,0,0,78.33-32.44l18.88-57.74a96,96,0,0,0,86.4,0l18.88,57.74a55.83,55.83,0,0,0,78.33,32.44l54.18-27.48a96,96,0,0,0,61.09,61.11L728.2,359.59a55.83,55.83,0,0,0,32.45,78.33l57.73,18.87a96.1,96.1,0,0,0,0,86.41Z"/><path class="cls-2" d="M853.55,717.87a95.89,95.89,0,1,1-97.87-23.29A96,96,0,0,1,853.55,717.87ZM146.45,146.44a95.94,95.94,0,1,0,135.67,0A96,96,0,0,0,146.45,146.44ZM717.88,282.13a95.93,95.93,0,1,0-23.29-37.82A95.48,95.48,0,0,0,717.88,282.13ZM282.12,717.87a95.93,95.93,0,1,0,23.29,37.82A95.59,95.59,0,0,0,282.12,717.87ZM904.06,404.06A95.94,95.94,0,1,0,1000,500,95.93,95.93,0,0,0,904.06,404.06ZM181.62,543.2a96,96,0,1,0-85.68,52.74A95.4,95.4,0,0,0,181.62,543.2ZM500,0a95.94,95.94,0,1,0,95.94,95.93A95.94,95.94,0,0,0,500,0Zm43.2,818.39a95.94,95.94,0,1,0,52.74,85.68A95.39,95.39,0,0,0,543.2,818.39Z"/><circle class="cls-3" cx="500" cy="500" r="171.81"/></g></g></g></svg>