<svg xmlns="http://www.w3.org/2000/svg" viewBox="0 0 769.19 1000"><defs><style>.cls-1{fill:#5b99f5;}.cls-2{fill:#48575e;}.cls-3{fill:#e1eaf1;}</style></defs><title>Medical Chart</title><g id="Layer_2" data-name="Layer 2"><g id="Layer_26" data-name="Layer 26"><g id="Medical_Chart" data-name="Medical Chart"><path class="cls-1" d="M769.19,166.17V892.89A107.12,107.12,0,0,1,662.08,1000h-555A107.12,107.12,0,0,1,0,892.89V166.17A107.12,107.12,0,0,1,107.11,59.05h96.32a59.05,59.05,0,0,0,59.06,59.06H506.7a59.05,59.05,0,0,0,59.06-59.06h96.32A107.12,107.12,0,0,1,769.19,166.17Z"/><path class="cls-2" d="M565.76,59.05h0a59.05,59.05,0,0,1-59.06,59.06H262.49a59.05,59.05,0,0,1-59.06-59.06h0A59,59,0,0,1,262.49,0H506.7A59,59,0,0,1,565.76,59.05Z"/><path class="cls-3" d="M516.13,292.48H170a30,30,0,1,1,0-60H516.13a30,30,0,0,1,0,60Z"/><path class="cls-3" d="M359.33,404.78H170a30,30,0,0,1,0-60H359.33a30,30,0,0,1,0,60Z"/><path class="cls-3" d="M418.13,817.11c-1.12,0-2.25,0-3.38-.11a49.45,49.45,0,0,1-45.86-42L345.12,621.77l-21.36,56a30,30,0,0,1-28,19.31h-47.4a30,30,0,0,1,0-60h26.74l27.81-72.89a49.72,49.72,0,0,1,95.59,10.1l22.67,146.1,18.15-61.77a30,30,0,0,1,28.79-21.54h52.78a30,30,0,0,1,0,60H490.53l-24.8,84.34A49.4,49.4,0,0,1,418.13,817.11Z"/></g></g></g></svg>