<svg xmlns="http://www.w3.org/2000/svg" viewBox="0 0 735.07 1000"><defs><style>.cls-1{fill:#e1eaf1;}.cls-2{fill:#5b99f5;}.cls-3{fill:#48575e;}</style></defs><title>Passport</title><g id="Layer_2" data-name="Layer 2"><g id="Layer_26" data-name="Layer 26"><g id="Passport"><rect class="cls-1" width="735.07" height="1000" rx="100"/><path class="cls-2" d="M361.72,650.57c108.66,0,197-88.4,197-197.05s-88.39-197.06-197-197.06-197.05,88.4-197.05,197.06S253.07,650.57,361.72,650.57ZM205.94,473.52h57.91c2,42.53,10.42,82.18,24.18,113.28q1.62,3.65,3.31,7.09A157.44,157.44,0,0,1,205.94,473.52ZM361.72,296.46c12,0,26.21,15.31,37.11,40,11.62,26.26,18.81,60.19,20.72,97.1H303.89c1.91-36.91,9.1-70.84,20.72-97.1C335.52,311.77,349.74,296.46,361.72,296.46Zm57.83,177.06c-1.91,36.9-9.1,70.83-20.72,97.1-10.9,24.64-25.12,40-37.11,40s-26.2-15.31-37.11-40c-11.62-26.27-18.81-60.2-20.72-97.1ZM432.1,593.89c1.13-2.3,2.24-4.66,3.31-7.09,13.76-31.1,22.17-70.75,24.18-113.28h57.92A157.47,157.47,0,0,1,432.1,593.89Zm85.41-160.37H459.59c-2-42.54-10.42-82.19-24.18-113.29-1.07-2.43-2.18-4.79-3.31-7.08A157.44,157.44,0,0,1,517.51,433.52ZM291.34,313.15q-1.69,3.44-3.31,7.08c-13.76,31.1-22.17,70.75-24.18,113.29H205.94A157.41,157.41,0,0,1,291.34,313.15Z"/><path class="cls-3" d="M211.23,177.63H523.84a30,30,0,0,0,0-60H211.23a30,30,0,0,0,0,60Z"/><path class="cls-3" d="M274.12,722.44a30,30,0,1,0,0,60H461a30,30,0,1,0,0-60Z"/><path class="cls-3" d="M566.23,822.37H168.84a30,30,0,0,0,0,60H566.23a30,30,0,0,0,0-60Z"/></g></g></g></svg>