<svg xmlns="http://www.w3.org/2000/svg" viewBox="0 0 986.95 1000"><defs><style>.cls-1{fill:#e1eaf1;}.cls-2{fill:#5b99f5;}.cls-3{fill:#48575e;}</style></defs><title>Hiking</title><g id="Layer_2" data-name="Layer 2"><g id="Layer_26" data-name="Layer 26"><g id="Hiking"><path class="cls-1" d="M81,127.81H250V385.94H81a51.11,51.11,0,0,1-51.11-51.1V178.91A51.11,51.11,0,0,1,81,127.81Z"/><rect class="cls-1" x="331.72" y="127.81" width="323.51" height="258.13"/><path class="cls-1" d="M957.08,178.91V334.84a51.1,51.1,0,0,1-51.1,51.1H737V127.81H906A51.1,51.1,0,0,1,957.08,178.91Z"/><path class="cls-2" d="M737,385.94v120.7a40.88,40.88,0,1,1-81.76,0V385.94H331.72v120.7a40.89,40.89,0,1,1-81.77,0V385.94H144.85V897.37A102.63,102.63,0,0,0,247.48,1000h492A102.63,102.63,0,0,0,842.1,897.37V385.94ZM690.45,855.06a51.1,51.1,0,0,1-51.1,51.1H336.28a51.11,51.11,0,0,1-51.11-51.1V656.82a51.1,51.1,0,0,1,51.11-51.1H639.35l1.32,0c.87,0,1.74.06,2.61.13a50.23,50.23,0,0,1,5.11.65c.84.15,1.68.32,2.5.51s1.64.4,2.45.63l1.21.36c1.19.37,2.38.79,3.54,1.25.38.15.77.3,1.16.47.75.31,1.51.66,2.26,1l1.11.55,1.77,1a50.44,50.44,0,0,1,5.05,3.25c.53.39,1.06.8,1.58,1.21,1,.82,2.06,1.69,3,2.58s1.91,1.84,2.82,2.83,1.76,2,2.58,3c.41.52.82,1.05,1.21,1.58a51.61,51.61,0,0,1,3.25,5c.33.59.64,1.18,1,1.77l.55,1.12c.36.74.71,1.5,1,2.25.17.39.32.78.47,1.16.46,1.16.88,2.35,1.25,3.55.12.39.25.79.36,1.2q.35,1.21.63,2.46c.2.81.36,1.65.51,2.49a50.59,50.59,0,0,1,.65,5.11c.07.87.11,1.74.13,2.62,0,.44,0,.87,0,1.31Z"/><path class="cls-1" d="M690.45,683.72V855.06a51.1,51.1,0,0,1-51.1,51.1H336.28a51.11,51.11,0,0,1-51.11-51.1V683.72l1.29,4.19a143,143,0,0,0,67.93,83.29l65.49,35.69a143,143,0,0,0,135.65.13l65.6-35.77a143,143,0,0,0,68-83.34Z"/><path class="cls-3" d="M144.85,561.39v35.39H0V561.39a72.43,72.43,0,0,1,144.85,0Z"/><path class="cls-3" d="M0,637.66H144.85V800.32A72.43,72.43,0,0,1,0,800.32Z"/><rect class="cls-1" y="596.78" width="144.85" height="40.88"/><path class="cls-3" d="M987,561.39v35.39H842.1V561.39a72.43,72.43,0,0,1,144.85,0Z"/><path class="cls-3" d="M842.1,637.66H987V800.32a72.43,72.43,0,0,1-144.85,0Z"/><rect class="cls-1" x="842.1" y="596.78" width="144.85" height="40.88"/><path class="cls-3" d="M690.45,656.82v26.9l-1.29,4.19a143,143,0,0,1-68,83.34L555.53,807a143,143,0,0,1-135.65-.13L354.39,771.2a143,143,0,0,1-67.93-83.29l-1.29-4.19v-26.9a51.1,51.1,0,0,1,51.11-51.1H639.35l1.32,0c.87,0,1.74.06,2.61.13a50.23,50.23,0,0,1,5.11.65c.84.15,1.68.32,2.5.51s1.64.4,2.45.63l1.21.36c1.19.37,2.38.79,3.54,1.25.38.15.77.3,1.16.47.76.33,1.51.66,2.26,1l1.11.55,1.77,1a54.26,54.26,0,0,1,5.05,3.25c.53.39,1.06.8,1.58,1.21,1,.82,2.06,1.69,3,2.58s1.91,1.84,2.82,2.83,1.76,2,2.58,3c.41.52.82,1.05,1.21,1.58a55.62,55.62,0,0,1,3.25,5c.33.59.64,1.18,1,1.77l.55,1.12q.54,1.11,1,2.25c.17.39.32.78.47,1.16.46,1.16.88,2.35,1.25,3.55.12.39.25.79.36,1.2q.35,1.21.63,2.46c.2.81.36,1.65.51,2.49a50.59,50.59,0,0,1,.65,5.11c.07.87.11,1.74.13,2.62C690.44,656,690.45,656.38,690.45,656.82Z"/><circle class="cls-1" cx="487.81" cy="750.39" r="27.88"/><path class="cls-3" d="M331.72,127.81V506.64a40.89,40.89,0,1,1-81.77,0V127.81a40.89,40.89,0,0,1,81.77,0Z"/><path class="cls-3" d="M737,127.81V506.64a40.88,40.88,0,1,1-81.76,0V127.81a40.88,40.88,0,1,1,81.76,0Z"/><path class="cls-3" d="M618.58,99.07v28.74H577.7V99.07a58.26,58.26,0,0,0-58.19-58.19H467.44a58.26,58.26,0,0,0-58.19,58.19v28.74H368.37V99.07A99.18,99.18,0,0,1,467.44,0h52.07A99.18,99.18,0,0,1,618.58,99.07Z"/></g></g></g></svg>