<svg xmlns="http://www.w3.org/2000/svg" viewBox="0 0 1000 963.15"><defs><style>.cls-1{fill:#48575e;}.cls-2{fill:#5b99f5;}</style></defs><title>Asset 350</title><g id="Layer_2" data-name="Layer 2"><g id="Output"><path class="cls-1" d="M679.29,903.61A125.51,125.51,0,0,1,667,887.06c-18.4-29.62-44.78-53.42-76.67-67.53l-2.12-.94-.58-.26a33.67,33.67,0,0,0-22-1.88,345.21,345.21,0,0,1-91.76,10.29c-187.38-4.09-338-158.48-337.58-345.91.4-190,155.12-344.51,345.24-344.51,140.87,0,262.3,84.81,315.93,206.05A198.14,198.14,0,0,0,855,416.54c.91.73,1.81,1.47,2.7,2.23L943,491.09a12.25,12.25,0,0,0,20.19-9.25v-.27A481.69,481.69,0,0,0,37.87,294.1,481.79,481.79,0,0,0,669,925.27c2-.86,4.06-1.73,6.08-2.61a12.09,12.09,0,0,0,4.17-19Z"/><path class="cls-2" d="M734.29,782.55l-4.12,31.38c-5.42,41.31,42.88,67.62,74.66,40.65l179.09-152a45.55,45.55,0,0,0,0-69.47l-179.1-152c-31.76-27-80.06-.64-74.64,40.67l6.16,47C511,538.27,438.16,403.42,415.11,307.87c-4.71-19.52-32.78-18.67-36.3,1.1C318.74,646.25,618.82,753.91,734.29,782.55Z"/></g></g></svg>