<svg xmlns="http://www.w3.org/2000/svg" viewBox="0 0 940.2 1000"><defs><style>.cls-1{fill:#48575e;}.cls-2{fill:#5b99f5;}</style></defs><title>Lock Visibility</title><g id="Layer_2" data-name="Layer 2"><g id="Layer_26" data-name="Layer 26"><g id="Lock_Visibility" data-name="Lock Visibility"><path class="cls-1" d="M478.74,71.92A245.59,245.59,0,0,0,59.5,245.57V359a102.61,102.61,0,0,1,43.62-9.66H142V245.57C142,155.66,215.16,82.5,305.08,82.5s163.09,73.16,163.09,163.07V349.35H507A102.65,102.65,0,0,1,550.67,359V245.57A244,244,0,0,0,478.74,71.92Z"/><path class="cls-2" d="M610.17,452.47v37A16.52,16.52,0,0,1,593.6,506h-.17c-89.81,0-166.54,27.34-228.32,62.88a76.43,76.43,0,0,0-59.62-29c-41.89-.21-76.55,33.9-77,75.79A76.24,76.24,0,0,0,244,662.54c-6.48,6.5-12.43,12.76-17.83,18.65a150.76,150.76,0,0,0,0,203.6A607.42,607.42,0,0,0,320,968.06c13.89,9.93,7,31.91-10,31.94h-.54C138.51,1000,0,861.49,0,690.62V452.47A103.06,103.06,0,0,1,103.12,349.35H507A103.06,103.06,0,0,1,610.17,452.47Z"/><path class="cls-1" d="M692.34,783a99,99,0,0,1-140.83,89.65,34.83,34.83,0,1,0-48.6-49.57A99,99,0,1,1,692.34,783Z"/><path class="cls-1" d="M916.24,721.45c-51.34-56-158-148.52-306.07-155.09q-8.28-.37-16.74-.38c-84.6,0-156.37,28.34-212.91,63.58C332.16,659.7,295,694.9,270.38,721.72a90.77,90.77,0,0,0,0,122.54c34.24,37.38,93.06,91,172.4,124.61,44.11,18.67,94.56,31.13,150.65,31.13,156.82,0,269.56-97.41,322.81-155.47a91,91,0,0,0,0-123.08ZM503,908a155.14,155.14,0,0,1-36.42-37.14A153.42,153.42,0,0,1,439.09,783c0-85.08,69.22-154.3,154.3-154.3a155,155,0,0,1,16.78.91c77.22,8.39,137.52,74,137.52,153.39,0,85.08-69.22,154.3-154.3,154.3A153.28,153.28,0,0,1,516.9,917,150.82,150.82,0,0,1,503,908ZM401.45,878.54a481.08,481.08,0,0,1-86.82-74.8,30.39,30.39,0,0,1-7.48-15.14,30.86,30.86,0,0,1,7.48-26.36,497,497,0,0,1,38.52-37.7,462.1,462.1,0,0,1,48.3-37.1,215.33,215.33,0,0,0,0,191.1ZM872,804a480.37,480.37,0,0,1-86.73,74.63,215.31,215.31,0,0,0,0-191.25A480.77,480.77,0,0,1,872,762,30.89,30.89,0,0,1,872,804Z"/></g></g></g></svg>