<svg xmlns="http://www.w3.org/2000/svg" viewBox="0 0 964.1 1000"><defs><style>.cls-1{fill:#48575e;}.cls-2{fill:#5b99f5;}</style></defs><title>Asset 345</title><g id="Layer_2" data-name="Layer 2"><g id="Effect"><path class="cls-1" d="M302.62,221l51.89,104.53a52.22,52.22,0,0,0,23.57,23.57L482.61,401c38.69,19.2,38.69,74.39,0,93.6L378.08,546.45A52.27,52.27,0,0,0,354.51,570L302.62,674.55c-19.21,38.7-74.4,38.7-93.61,0L157.12,570a52.27,52.27,0,0,0-23.57-23.57L29,494.56c-38.69-19.21-38.69-74.4,0-93.6l104.53-51.9a52.22,52.22,0,0,0,23.57-23.57L209,221C228.22,182.27,283.41,182.27,302.62,221Z"/><path class="cls-1" d="M594.06,20.09,630,92.46a36.24,36.24,0,0,0,16.32,16.31l72.37,35.93c26.78,13.3,26.78,51.5,0,64.8L646.3,245.43A36.24,36.24,0,0,0,630,261.74l-35.92,72.37c-13.3,26.79-51.51,26.79-64.8,0l-35.93-72.37A36.17,36.17,0,0,0,477,245.43L404.65,209.5c-26.79-13.3-26.79-51.5,0-64.8L477,108.77a36.17,36.17,0,0,0,16.31-16.31l35.93-72.37C542.55-6.7,580.76-6.7,594.06,20.09Z"/><path class="cls-2" d="M558.24,1000c-108.41,0-210.32-42.22-287-118.87a55.35,55.35,0,1,1,78.28-78.28c115.08,115.08,302.33,115.08,417.41,0a295.15,295.15,0,0,0,0-417.41,55.35,55.35,0,1,1,78.27-78.28c76.66,76.66,118.88,178.58,118.88,287s-42.22,210.32-118.88,287S666.65,1000,558.24,1000Z"/></g></g></svg>