<svg xmlns="http://www.w3.org/2000/svg" viewBox="0 0 999.4 1000"><defs><style>.cls-1{fill:#48575e;}.cls-2{fill:#e1eaf1;}.cls-3{fill:#5b99f5;}.cls-4{fill:#231f20;}</style></defs><title>Secure Cloud</title><g id="Layer_2" data-name="Layer 2"><g id="Layer_26" data-name="Layer 26"><g id="Secure_Cloud" data-name="Secure Cloud"><path class="cls-1" d="M801.33,129.24a138,138,0,0,0-81.44-47.42C657,70.37,562.34,48.69,469,10.38a137,137,0,0,0-104.62,0c-93.32,38.31-187.93,60-250.87,71.44A138.19,138.19,0,0,0,0,217.85V606A323.2,323.2,0,0,0,68.4,804.51a492,492,0,0,0,44.07,49c11.71,11.39,31.24,3,31.21-13.33v-.46a218,218,0,0,1,3.88-41.1,417.36,417.36,0,0,1-29.14-33.32A259.32,259.32,0,0,1,63.55,606V217.85a74.68,74.68,0,0,1,61.34-73.5c65.94-12,165.22-34.77,263.65-75.17a73.8,73.8,0,0,1,56.35,0c49.22,20.2,98.65,36,144,48.24s86.67,20.93,119.64,26.93a74.68,74.68,0,0,1,61.34,73.5V606c0,5.68-.19,11.36-.57,17a171.53,171.53,0,0,1,32.91,6.34,24.2,24.2,0,0,0,31.21-23V217.85A138,138,0,0,0,801.33,129.24Z"/><path class="cls-2" d="M416.71,63.59V560a224,224,0,0,0-47.38,45.91q-6.09,8-11.42,16.39A217.42,217.42,0,0,0,147.56,798.62a417.36,417.36,0,0,1-29.14-33.32A259.32,259.32,0,0,1,63.55,606V217.85a74.68,74.68,0,0,1,61.34-73.5c65.94-12,165.22-34.77,263.65-75.17A74,74,0,0,1,416.71,63.59Z"/><path class="cls-3" d="M769.87,217.85V606c0,5.68-.19,11.36-.57,17q-7.86-.72-15.83-.73a170.41,170.41,0,0,0-17.35.89q-3.12-5-6.51-9.82a223.38,223.38,0,0,0-312.28-53.8l-.62.45V63.59a74.14,74.14,0,0,1,28.18,5.59c49.22,20.2,98.65,36,144,48.24s86.67,20.93,119.64,26.93A74.68,74.68,0,0,1,769.87,217.85Z"/><path class="cls-4" d="M388.91,997.17a138,138,0,0,0,55.6,0Z"/><path class="cls-1" d="M999.4,885.7A111.47,111.47,0,0,1,887.93,997.17H361.12a157.45,157.45,0,1,1,32.15-311.6,163.39,163.39,0,0,1,309.85,8.71,111.52,111.52,0,0,1,160.55,82.6A111.52,111.52,0,0,1,999.4,885.7Z"/></g></g></g></svg>