<svg xmlns="http://www.w3.org/2000/svg" viewBox="0 0 1000 1000"><defs><style>.cls-1{fill:#48575e;}.cls-2{fill:#5b99f5;}.cls-3{fill:#e1eaf1;}</style></defs><title>6</title><g id="_6" data-name="6"><path class="cls-1" d="M318.71,217.49a292.64,292.64,0,0,1,45.56-28.73q9.68-4.92,19.76-9.16l.42-.17a294.86,294.86,0,0,1,109.34-22.8l41.52,2.19a293.94,293.94,0,0,1,167.76,79.64,294.75,294.75,0,0,1,34.37,39.22c2.08,2.82,4.07,5.68,6,8.56q3.33,4.9,6.44,9.93V196.38a81.64,81.64,0,0,0-.93-12.29c0-.16-.05-.32-.08-.48a80.47,80.47,0,0,0-79.44-67.67H175.15A80.44,80.44,0,0,0,94.7,196.38V919.55A80.35,80.35,0,0,0,175.15,1000H669.46a80.45,80.45,0,0,0,80.45-80.45V798.05L718.28,763.3l-35.83-39.36-22-24.21a296.14,296.14,0,0,1-366.08-33.87C176.5,553.18,172.31,365.63,285,247.79A296.37,296.37,0,0,1,318.71,217.49Z"/><path class="cls-1" d="M749.91,372.64a258.93,258.93,0,0,0-9.64-25.82q-4.12-9.51-9-18.75a264.81,264.81,0,0,0-77.89-89.32c-1.73-1.27-3.49-2.5-5.24-3.72-1.42-1-2.83-1.91-4.27-2.85-3-2-6.06-3.92-9.13-5.79q-2.73-1.63-5.47-3.2-4.14-2.37-8.32-4.54l-2.8-1.45c-3.75-1.89-7.51-3.7-11.33-5.4q-8.56-3.84-17.36-7.05-2.79-1-5.61-2l-3.19-1a265.28,265.28,0,0,0-127.25-9c-2.14.37-4.28.75-6.42,1.19q-6.39,1.27-12.74,2.86c-2.12.53-4.23,1.08-6.32,1.68l-3.16.88c-2.1.61-4.19,1.26-6.27,1.92l-3.12,1c-3.12,1-6.23,2.12-9.3,3.28-2.06.77-4.1,1.56-6.15,2.38-1.72.69-3.46,1.42-5.18,2.16q-3.46,1.5-6.95,3.09c-3,1.38-6,2.83-8.94,4.34a.11.11,0,0,1-.07,0l-2.88,1.5c-2.94,1.56-5.87,3.15-8.77,4.83-1.93,1.11-3.84,2.23-5.74,3.41s-3.81,2.35-5.7,3.57-3.74,2.44-5.59,3.72-3.71,2.57-5.54,3.89-3.65,2.67-5.45,4q-5.41,4.13-10.65,8.56c-1.74,1.48-3.48,3-5.19,4.52q-7.71,6.9-15,14.49c-100.43,105-96.7,272.17,8.32,372.59.79.76,1.59,1.52,2.4,2.27,1.6,1.5,3.23,3,4.85,4.43a263.56,263.56,0,0,0,33.49,25.26q2.7,1.71,5.4,3.34a262,262,0,0,0,78,31.25q3,.68,6,1.27a265.31,265.31,0,0,0,85.94,2.94c3-.38,6.07-.83,9.09-1.33,6.18-1,12.31-2.24,18.43-3.7q4.88-1.15,9.7-2.51c3.57-1,7.13-2.06,10.66-3.22,1.77-.58,3.54-1.17,5.3-1.79q7.92-2.75,15.68-6a258.48,258.48,0,0,0,36.93-19.19,261.69,261.69,0,0,0,26.37-18.84,264.7,264.7,0,0,0,24.36-22.46c1.7-1.79,3.38-3.58,5-5.39.73-.81,1.45-1.61,2.17-2.43s1.21-1.35,1.81-2.06a1.07,1.07,0,0,1,.14-.16c.69-.81,1.38-1.61,2.06-2.43l.63-.74c.66-.79,1.32-1.58,2-2.38s1.22-1.5,1.82-2.26c.21-.25.4-.51.61-.77s.31-.37.45-.56c.76-1,1.5-1.92,2.24-2.88s1.65-2.17,2.46-3.27a263,263,0,0,0,17.31-26.56c.13-.21.24-.42.35-.61a260.13,260.13,0,0,0,21.74-50.09A265.23,265.23,0,0,0,749.91,372.64ZM599.65,585.19a167.28,167.28,0,0,1-17.28,11.51c-2,1.14-4,2.23-6,3.29A165.36,165.36,0,0,1,545,612.58c-2.15.61-4.32,1.19-6.5,1.72a167.9,167.9,0,0,1-101-6.76c-2.47-1-4.9-2-7.31-3.07-3.62-1.61-7.19-3.38-10.71-5.28-1.92-1-3.82-2.11-5.7-3.22-2-1.2-4.05-2.44-6.05-3.75q-2.73-1.76-5.39-3.65a167.79,167.79,0,0,1-19.08-15.73C316.74,509.2,314.38,403.29,378,336.75q4.61-4.81,9.49-9.19,3.25-2.9,6.63-5.62a165.63,165.63,0,0,1,13.92-10.05c1.94-1.26,3.91-2.46,5.88-3.62q4.32-2.56,8.79-4.83c1.4-.72,2.81-1.41,4.25-2.09,1.06-.5,2.14-1,3.21-1.48,2.14-1,4.32-1.88,6.5-2.75,1.1-.44,2.19-.85,3.29-1.27,1.46-.55,2.93-1.08,4.41-1.58,4.44-1.51,8.91-2.85,13.43-4,2.69-.68,5.37-1.27,8.09-1.82s5.42-1,8.14-1.42,5.46-.74,8.21-1c5.47-.53,11-.81,16.47-.81a169.29,169.29,0,0,1,31,2.88c2.56.49,5.1,1,7.64,1.63,2.27.53,4.54,1.11,6.77,1.75a161.17,161.17,0,0,1,15.72,5.28c2.46,1,4.89,2,7.31,3.07,3.62,1.61,7.19,3.38,10.71,5.28q3.52,1.9,7,4c1.15.7,2.29,1.4,3.43,2.13,2.27,1.45,4.52,2.94,6.73,4.52a167.79,167.79,0,0,1,19.08,15.73c60.07,57.44,67.85,149.33,22,215.6a168.21,168.21,0,0,1-36.45,38.11Z"/><path class="cls-1" d="M970.64,903.5c-.36.35-.7.72-1,1.06-.71.71-1.43,1.38-2.16,2-.49.44-1,.87-1.49,1.29s-1.26,1-1.9,1.51-1.56,1.14-2.35,1.69c-.5.34-1,.66-1.5,1s-1,.65-1.52.95-1,.6-1.53.87c-.95.53-1.9,1-2.87,1.48-.43.21-.85.42-1.28.6s-.81.37-1.21.53a53.92,53.92,0,0,1-5.37,1.94c-.46.15-.89.28-1.34.39s-.9.24-1.35.35c-.9.25-1.8.44-2.72.62-.34.08-.66.12-1,.19l-.26,0c-.29.07-.59.11-.88.16-.55.1-1.09.16-1.66.24l-.85.1a8.58,8.58,0,0,1-.87.1c-.92.09-1.83.16-2.75.21s-1.85.06-2.78.06h-.05c-.66,0-1.29,0-1.95,0h-.69c-.72,0-1.45-.08-2.16-.15l-.14,0a3,3,0,0,1-.52,0l-.17,0c-.73-.06-1.47-.16-2.19-.26s-1.42-.21-2.12-.33l-.09,0c-.27-.07-.56-.11-.85-.16s-.55-.11-.83-.18c-.57-.13-1.15-.24-1.71-.38l-.08,0c-.69-.18-1.37-.35-2-.55-1.71-.48-3.38-1.06-5-1.7l-1.9-.79a.42.42,0,0,1-.13-.07,6.06,6.06,0,0,1-.66-.29,6.79,6.79,0,0,1-.67-.32,6.51,6.51,0,0,1-.71-.34c-.4-.19-.8-.38-1.21-.59l-2-1.08c-.61-.35-1.22-.71-1.81-1.09l-.28-.18a2.77,2.77,0,0,1-.37-.22c-.61-.39-1.2-.79-1.8-1.21l-.76-.53c-.46-.34-.93-.68-1.38-1-.77-.6-1.53-1.21-2.28-1.85l-.71-.61c-.55-.5-1.1-1-1.64-1.52l-141.12-155-29.25-32.13-33-36.28-1.14-1.26c.48-.38,1-.78,1.45-1.19a298.43,298.43,0,0,0,24.47-22.86q6.3-6.59,12.22-13.59c3.69-4.36,7.24-8.84,10.64-13.37l14.64,12.18,219,182.14A56.3,56.3,0,0,1,970.64,903.5Z"/><path class="cls-2" d="M673.1,93.17,179.47,67.11a80.44,80.44,0,0,0-84.58,76.08L56.76,865.35c-.08,1.34-.11,2.69-.11,4a80.39,80.39,0,0,0,76.2,80.57L626.47,976a80.45,80.45,0,0,0,84.58-76.09l7.23-136.61-35.83-39.36-22-24.21a296.14,296.14,0,0,1-366.08-33.87C176.5,553.18,172.31,365.63,285,247.79a296.37,296.37,0,0,1,33.71-30.3,292.64,292.64,0,0,1,45.56-28.73q9.68-4.92,19.76-9.16l.42-.17a294.86,294.86,0,0,1,109.34-22.8l41.52,2.19a293.94,293.94,0,0,1,167.76,79.64,294.75,294.75,0,0,1,34.37,39.22c2.08,2.82,4.07,5.68,6,8.56l5.31-100.68.12-1.95.3-5.86A80.47,80.47,0,0,0,673.1,93.17Z"/><path class="cls-3" d="M609.65,528.77a135.7,135.7,0,0,1-13.52,16.57,132.91,132.91,0,0,1-15.91,14.19,135,135,0,0,1-174.7-9.94A134.82,134.82,0,0,1,591.88,354.73C639.28,400.07,646.92,474.89,609.65,528.77Z"/><path class="cls-3" d="M683.08,61.06,192.47.61a80.44,80.44,0,0,0-89.68,70L14.35,788.35a80.38,80.38,0,0,0,70,89.68L94.7,879.3,575,938.49a80.45,80.45,0,0,0,89.67-70l17.81-144.55-22-24.21a296.14,296.14,0,0,1-366.08-33.87C176.5,553.18,172.31,365.63,285,247.79a296.37,296.37,0,0,1,33.71-30.3,292.64,292.64,0,0,1,45.56-28.73q9.68-4.92,19.76-9.16l.42-.17a294.86,294.86,0,0,1,109.34-22.8l41.52,2.19a293.94,293.94,0,0,1,167.76,79.64,294.75,294.75,0,0,1,34.37,39.22l11.34-92.12.2-1.47,4.1-33.35A80.45,80.45,0,0,0,683.08,61.06Zm-95.67,76.06a14.37,14.37,0,0,1-16,12.51l-292.08-36a14.37,14.37,0,1,1,3.51-28.52l292.08,36A14.36,14.36,0,0,1,587.41,137.12Z"/></g></svg>