<svg xmlns="http://www.w3.org/2000/svg" viewBox="0 0 1000 987.2"><defs><style>.cls-1{fill:#5b99f5;}.cls-2{fill:#48575e;}</style></defs><title>Asset 333</title><g id="Layer_2" data-name="Layer 2"><g id="Interference"><path class="cls-1" d="M910.78,493.6a236.1,236.1,0,0,1,65.93-164.08v0q1.72-1.78,3.48-3.54a67.47,67.47,0,0,0-95.33-95.5q-2.8,2.81-5.55,5.66l0,0a372.07,372.07,0,0,0,5.54,520.54,67.47,67.47,0,1,0,95.41-95.42A235.59,235.59,0,0,1,910.78,493.6Z"/><path class="cls-1" d="M472.94,537.05q1.81-23.88,1.83-48.08t-1.83-47.92q-1.67,23.82-1.68,47.92T472.94,537.05Z"/><path class="cls-1" d="M764.86,872C662.54,769.71,606.19,633.67,606.19,489A539.27,539.27,0,0,1,756.8,114.15a67.47,67.47,0,0,0-97.42-93.36,676.55,676.55,0,0,0-130,193.37A729.83,729.83,0,0,1,582.71,489a729.8,729.8,0,0,1-53.37,275.15A676.27,676.27,0,0,0,669.45,967.44,67.47,67.47,0,0,0,764.86,872Z"/><path class="cls-2" d="M120.72,236.17h0q-2.74-2.86-5.57-5.69A67.47,67.47,0,0,0,19.79,326c1.18,1.17,2.34,2.36,3.5,3.57h0A236.1,236.1,0,0,1,89.22,493.6,235.59,235.59,0,0,1,19.76,661.28a67.47,67.47,0,1,0,95.41,95.42A370.34,370.34,0,0,0,195.83,636,370.34,370.34,0,0,0,224.15,493.6,370.39,370.39,0,0,0,120.72,236.17Z"/><path class="cls-2" d="M340.62,20.79a67.47,67.47,0,1,0-97.42,93.36A539.29,539.29,0,0,1,393.81,489c0,144.7-56.35,280.74-158.67,383.06a67.47,67.47,0,0,0,95.41,95.41C458.35,839.63,528.74,669.71,528.74,489,528.74,313.64,461.93,147.37,340.62,20.79Z"/></g></g></svg>