<svg xmlns="http://www.w3.org/2000/svg" viewBox="0 0 1000 1000"><defs><style>.cls-1{fill:#e1eaf1;}.cls-2{fill:#48575e;}</style></defs><title>Medical Cross</title><g id="Layer_2" data-name="Layer 2"><g id="Layer_26" data-name="Layer 26"><g id="Medical_Cross" data-name="Medical Cross"><circle class="cls-1" cx="500" cy="500" r="500"/><path class="cls-2" d="M723.73,401.9h-73A49.74,49.74,0,0,1,601,352.16v-73a55,55,0,0,0-55-55H459.83a55,55,0,0,0-55,55v73a49.74,49.74,0,0,1-49.74,49.74h-73a55,55,0,0,0-55,55v86.2a55,55,0,0,0,55,55h73a49.74,49.74,0,0,1,49.74,49.74v73a55,55,0,0,0,55,55H546a55,55,0,0,0,55-55v-73a49.74,49.74,0,0,1,49.74-49.74h73a55,55,0,0,0,55-55V456.9A55,55,0,0,0,723.73,401.9Z"/></g></g></g></svg>