<svg xmlns="http://www.w3.org/2000/svg" viewBox="0 0 1000 1000"><defs><style>.cls-1{fill:#5b99f5;}.cls-2{fill:#48575e;}</style></defs><title>Pill</title><g id="Layer_2" data-name="Layer 2"><g id="Layer_26" data-name="Layer 26"><g id="Pill"><path class="cls-1" d="M322.35,364.77,635.23,677.64a50.74,50.74,0,0,1,0,71.75l-171,171c-106.21,106.21-278.41,106.21-384.62,0a272,272,0,0,1,0-384.62l171-171A50.73,50.73,0,0,1,322.35,364.77Z"/><path class="cls-2" d="M1000,272a271.14,271.14,0,0,1-79.66,192.31l-171,170.94a50.71,50.71,0,0,1-71.74,0L364.77,322.35a50.74,50.74,0,0,1,0-71.75l171-170.94c106.21-106.21,278.41-106.21,384.62,0A271.14,271.14,0,0,1,1000,272Z"/></g></g></g></svg>