<svg xmlns="http://www.w3.org/2000/svg" viewBox="0 0 1000 537.88"><defs><style>.cls-1{fill:#48575e;}.cls-2{fill:#5b99f5;}</style></defs><title>Mountains</title><g id="Layer_2" data-name="Layer 2"><g id="Layer_26" data-name="Layer 26"><g id="Mountains"><path class="cls-1" d="M294.85,69.28,12.47,440.6c-30.34,39.89-1.88,97.27,48.24,97.27H625.46c50.12,0,78.57-57.38,48.23-97.27L391.32,69.28A60.6,60.6,0,0,0,294.85,69.28Z"/><path class="cls-2" d="M939.29,537.88H729.73q2-3.43,3.77-7a119.88,119.88,0,0,0-12-126.57L605.39,251.66l71-93.35a60.6,60.6,0,0,1,96.47,0L987.53,440.6C1017.87,480.49,989.41,537.88,939.29,537.88Z"/><circle class="cls-2" cx="569.34" cy="64.14" r="64.14"/></g></g></g></svg>