<svg xmlns="http://www.w3.org/2000/svg" viewBox="0 0 1000 988.13"><defs><style>.cls-1{fill:#5b99f5;}.cls-2{fill:#48575e;}.cls-3{fill:#e1eaf1;}</style></defs><title>Warehouse</title><g id="Layer_2" data-name="Layer 2"><g id="Layer_26" data-name="Layer 26"><g id="Warehouse"><path class="cls-1" d="M1000,317.61V882.78A105.35,105.35,0,0,1,894.65,988.13H105.35A105.35,105.35,0,0,1,0,882.78V317.61A225,225,0,0,1,73.07,151.24C147.43,83.45,283,0,500,0S852.57,83.45,926.93,151.24A225,225,0,0,1,1000,317.61Z"/><path class="cls-2" d="M253.92,465H746.08A100.64,100.64,0,0,1,846.71,565.67V988.13a0,0,0,0,1,0,0H153.29a0,0,0,0,1,0,0V565.67A100.64,100.64,0,0,1,253.92,465Z"/><rect class="cls-3" x="273.24" y="771.37" width="216.76" height="216.76" rx="30"/><path class="cls-1" d="M338.73,771.37h85.78a0,0,0,0,1,0,0v47.09a19.24,19.24,0,0,1-19.24,19.24H358a19.24,19.24,0,0,1-19.24-19.24V771.37A0,0,0,0,1,338.73,771.37Z"/><rect class="cls-3" x="510" y="771.37" width="216.76" height="216.76" rx="30"/><path class="cls-1" d="M575.49,771.37h85.78a0,0,0,0,1,0,0v47.09A19.24,19.24,0,0,1,642,837.71h-47.3a19.24,19.24,0,0,1-19.24-19.24V771.37A0,0,0,0,1,575.49,771.37Z"/><rect class="cls-3" x="381.62" y="534.61" width="216.76" height="216.76" rx="30"/><path class="cls-1" d="M447.11,534.61h85.78a0,0,0,0,1,0,0V581.7a19.24,19.24,0,0,1-19.24,19.24h-47.3a19.24,19.24,0,0,1-19.24-19.24V534.61A0,0,0,0,1,447.11,534.61Z"/><path class="cls-2" d="M608.38,349.25H391.62a31.07,31.07,0,0,1,0-62.14H608.38a31.07,31.07,0,1,1,0,62.14Z"/><path class="cls-2" d="M608.38,249.88H391.62a31.07,31.07,0,1,1,0-62.13H608.38a31.07,31.07,0,1,1,0,62.13Z"/></g></g></g></svg>