<svg xmlns="http://www.w3.org/2000/svg" viewBox="0 0 1000 1000"><defs><style>.cls-1{fill:#5b99f5;}.cls-2{fill:#e1eaf1;}</style></defs><title>24</title><g id="_24" data-name="24"><path class="cls-1" d="M500,300.05c-110.44,0-199.95,89.51-199.95,200s89.51,200,200,200,200-89.51,200-200S610.44,300.05,500,300.05Zm0,244A44.06,44.06,0,1,1,544.06,500,44.11,44.11,0,0,1,500,544.06Z"/><path class="cls-1" d="M500,0C223.86,0,0,223.86,0,500s223.86,500,500,500,500-223.86,500-500S776.14,0,500,0ZM743.32,743.32A344.1,344.1,0,1,1,844.11,500,341.85,341.85,0,0,1,743.32,743.32Z"/><path class="cls-2" d="M743.32,256.68A344.1,344.1,0,1,0,844.11,500,341.85,341.85,0,0,0,743.32,256.68ZM500,700c-110.44,0-199.95-89.51-199.95-200s89.51-199.95,200-199.95,200,89.51,200,200S610.44,700,500,700Z"/><circle class="cls-2" cx="500" cy="500" r="44.06"/></g></svg>