<svg xmlns="http://www.w3.org/2000/svg" viewBox="0 0 1000 377.28"><defs><style>.cls-1{fill:#e1eaf1;}.cls-2{fill:#5b99f5;}.cls-3{fill:#48575e;}</style></defs><title>Graduation Diploma</title><g id="Layer_2" data-name="Layer 2"><g id="Layer_26" data-name="Layer 26"><g id="Graduation_Diploma" data-name="Graduation Diploma"><path class="cls-1" d="M319.72,264.63,304.23,288a71.27,71.27,0,0,0-7.83,15.76c-56.54,2.33-120.38,6.9-185.51,15.31a32.36,32.36,0,0,1-36-26.21c-1.51-8.24-3.07-18-4.48-29.06a600.77,600.77,0,0,1,0-150.32c1.41-11.06,3-20.82,4.48-29a32.36,32.36,0,0,1,36-26.22c70.35,9.08,139.23,13.68,199,15.82a89.16,89.16,0,0,0-18.83,39.28c-.14.69-.27,1.38-.4,2.09A89.13,89.13,0,0,0,307,184l1.55,2.07-.75,2.47a89,89,0,0,0,8.11,70.05c1.06,1.84,2.19,3.63,3.37,5.37Z"/><path class="cls-2" d="M569.33,79.26c-1.31-1.31-2.65-2.57-4-3.8a98,98,0,0,0-130.62,0c-1.37,1.23-2.71,2.49-4,3.8a98,98,0,1,0,138.66,0ZM500,224.06a75.48,75.48,0,1,1,75.47-75.48A75.56,75.56,0,0,1,500,224.06Z"/><path class="cls-1" d="M575.47,148.58A75.44,75.44,0,1,1,512.21,74.1,75.56,75.56,0,0,1,575.47,148.58Z"/><path class="cls-3" d="M644.75,147.9A28.51,28.51,0,0,0,637.53,107l-15.59-10.2a28.55,28.55,0,0,1-12.77-21.1q-.06-.57-.09-1.17l-1-18.6A28.5,28.5,0,0,0,576.2,29.17l-18.49,2.2a28.5,28.5,0,0,1-24.17-8.79L520.78,9a28.51,28.51,0,0,0-41.56,0L466.46,22.58a28.5,28.5,0,0,1-24.17,8.79l-18.49-2.2A28.5,28.5,0,0,0,392,55.89l-1,18.6q0,.6-.09,1.17a28.55,28.55,0,0,1-12.77,21.1L362.47,107a28.51,28.51,0,0,0-7.22,40.94l11.17,14.91a28.54,28.54,0,0,1,4.46,25.33L365.5,206a28.48,28.48,0,0,0,20.78,36l18,4.22.15,0a28.49,28.49,0,0,1,19.69,16.54l7.34,17.12a28.5,28.5,0,0,0,39.06,14.21l16.63-8.4a27.42,27.42,0,0,1,2.84-1.24,28.46,28.46,0,0,1,20,0,27.42,27.42,0,0,1,2.84,1.24l16.63,8.4a28.5,28.5,0,0,0,39.06-14.21l7.34-17.12a28.49,28.49,0,0,1,19.69-16.54l.15,0,18-4.22a28.48,28.48,0,0,0,20.78-36l-5.38-17.84a28.54,28.54,0,0,1,4.46-25.33Zm-75.42,70A98,98,0,0,1,430.67,79.26q2-2,4-3.8a98,98,0,0,1,130.62,0q2.06,1.83,4,3.8a98.07,98.07,0,0,1,0,138.66Z"/><path class="cls-1" d="M934.34,188.64a598.46,598.46,0,0,1-4.72,75.16c-1.41,11.07-3,20.82-4.48,29.06a32.36,32.36,0,0,1-36,26.21c-65.13-8.41-129-13-185.51-15.31A71.42,71.42,0,0,0,695.77,288l-15.49-23.38c.15-.22.3-.44.44-.66,1.18-1.74,2.31-3.53,3.37-5.37a89.07,89.07,0,0,0,8.11-70.06l-.75-2.46L693,184a89.13,89.13,0,0,0,16.35-68.61c-.13-.71-.26-1.4-.4-2.09A89.16,89.16,0,0,0,690.12,74c59.76-2.14,128.64-6.74,199-15.82a32.36,32.36,0,0,1,36,26.22c1.51,8.23,3.07,18,4.48,29.05A598.59,598.59,0,0,1,934.34,188.64Z"/><path class="cls-3" d="M489,185.56a11.25,11.25,0,0,1-8-3.3l-29.44-29.44a11.28,11.28,0,0,1,15.95-16L489,158.32l43.4-43.41a11.29,11.29,0,0,1,16,16L497,182.26A11.28,11.28,0,0,1,489,185.56Z"/><path class="cls-2" d="M490,284.45,477.81,302.8l-46.18,69.66a10.77,10.77,0,0,1-18.93-1.86l-13.55-32.92-35.6.34a10.76,10.76,0,0,1-9.08-16.71l12.91-19.48,36.89-55.64.15,0a28.49,28.49,0,0,1,19.69,16.54l7.34,17.12a28.5,28.5,0,0,0,39.06,14.21l16.63-8.4A27.42,27.42,0,0,1,490,284.45Z"/><path class="cls-2" d="M636.45,338l-35.6-.34L587.3,370.6a10.77,10.77,0,0,1-18.93,1.86L522.19,302.8,510,284.45a27.42,27.42,0,0,1,2.84,1.24l16.63,8.4a28.5,28.5,0,0,0,39.06-14.21l7.34-17.12a28.49,28.49,0,0,1,19.69-16.54l.15,0,36.89,55.64,12.91,19.48A10.76,10.76,0,0,1,636.45,338Z"/><path class="cls-3" d="M1000,188.64a75.32,75.32,0,0,1-70.38,75.16,600.77,600.77,0,0,0,0-150.32A75.32,75.32,0,0,1,1000,188.64Z"/><path class="cls-3" d="M65.66,188.64a598.46,598.46,0,0,0,4.72,75.16,75.32,75.32,0,0,1,0-150.32A598.59,598.59,0,0,0,65.66,188.64Z"/></g></g></g></svg>