<svg xmlns="http://www.w3.org/2000/svg" viewBox="0 0 1000 949.85"><defs><style>.cls-1{fill:#48575e;}.cls-2{fill:#e1eaf1;}.cls-3{fill:#5b99f5;}</style></defs><title>Online Teamwork</title><g id="Layer_2" data-name="Layer 2"><g id="Layer_26" data-name="Layer 26"><g id="Online_Teamwork" data-name="Online Teamwork"><path class="cls-1" d="M428.74,183.06q-4.22,1.68-8.24,3.74a99.31,99.31,0,0,0-34,28.68l0,.06c-.68.92-1.35,1.84-2,2.78a98.78,98.78,0,0,0-94.82,94.81,98.77,98.77,0,0,0-77.31,96.29l-.05,186.12A38.92,38.92,0,0,1,178.53,574L92.13,401.13A152,152,0,0,1,79.19,363.5l-16.1-79.78A125,125,0,0,0,29,220.09L15.74,206.85a53.8,53.8,0,0,1,0-76.06l115.13-115c1.31-1.31,2.68-2.54,4.08-3.69.71-.57,1.42-1.13,2.15-1.66l1.09-.78c.74-.51,1.49-1,2.24-1.48A52.89,52.89,0,0,1,146.27,5c.79-.37,1.6-.72,2.41-1,.4-.17.81-.33,1.22-.48.82-.31,1.63-.6,2.46-.86A54,54,0,0,1,174.06.25c.85.08,1.71.18,2.56.3l1.28.2c.78.14,1.55.28,2.33.45s1.83.42,2.74.66,1.67.48,2.49.74L186.7,3c.82.29,1.64.59,2.45.92a53.74,53.74,0,0,1,17.79,11.82L222.16,31a165.21,165.21,0,0,0,49.06,33.86L300.9,78.23a250.31,250.31,0,0,1,73.7,50.66l.71.71,49.63,49.66Z"/><path class="cls-2" d="M984.24,207.12,969,222.35a165.06,165.06,0,0,0-33.86,49l-13.37,29.69a250.17,250.17,0,0,1-50.67,73.69l-.7.72h0a11.2,11.2,0,0,1-13,2q-10.61-5.4-21.65-10.07A336.12,336.12,0,0,0,641.2,347.32V311.9A98.43,98.43,0,0,0,636,280.34c-.71-2.1-1.5-4.2-2.42-6.43-.11-.27-.22-.54-.34-.81-.52-1.2-1.06-2.4-1.66-3.66l-.3-.63c-1-2.11-2.08-4.09-3.2-6-.65-1.13-1.32-2.25-2.06-3.43-.23-.38-.47-.75-.71-1.13-.63-1-1.31-2-2.06-3-.39-.56-.79-1.12-1.19-1.66s-.76-1-1.15-1.53c-.67-.87-1.33-1.7-2-2.52l-.2-.23a93.84,93.84,0,0,0-6.54-7.2,99.09,99.09,0,0,0-20.46-15.67l-.78-.44-.11-.06-.73-.41-.52-.29a99.63,99.63,0,0,0-13.06-5.89c-.67-.25-1.31-.47-1.94-.69l-.08,0c-.58-.21-1.17-.4-1.74-.59l-1.33-.41c-1.35-.42-2.72-.81-4.17-1.18l-1.56-.39h0l-1.18-.28c-3-.68-6.13-1.23-9.18-1.64L555,214l-1.4-.16-1.5-.16c-1.27-.11-2.57-.21-3.84-.29l-.91,0c-1.65-.07-3.19-.11-4.71-.11h0c-1.86-2.34-3.83-4.6-5.86-6.74l-.38-.39a102.23,102.23,0,0,0-9.77-8.86l-.1-.07a98.76,98.76,0,0,0-37.88-18.41,59.75,59.75,0,0,0-8.67-27l119-59.45a151.16,151.16,0,0,1,37.63-12.94l79.79-16.1a124.9,124.9,0,0,0,63.63-34.11l13.23-13.23a53.78,53.78,0,0,1,76.06,0L984.26,131.07A53.79,53.79,0,0,1,984.24,207.12Z"/><path class="cls-1" d="M968.21,596c0-.13-.07-.26-.11-.38A275,275,0,0,0,819.84,426q-3.71-1.71-7.49-3.3a274.23,274.23,0,0,0-213.6,0q-9,3.79-17.58,8.18A274.39,274.39,0,0,0,443,595.68l-.09.29a275.63,275.63,0,0,0,0,159q0,.15.09.33a274.19,274.19,0,0,0,68.54,114.15,273.75,273.75,0,0,0,65,48.19q10.85,5.77,22.24,10.6A274.47,274.47,0,0,0,968.1,755.36q.06-.23.12-.42a275.72,275.72,0,0,0,0-158.9Zm-60.29-17.8H848.38c-6.79-33.37-17.09-64.1-30.55-90.46q-2.52-4.92-5.15-9.58A226.07,226.07,0,0,1,907.92,578.24ZM730.46,458.57c15.48,9.39,30.41,27.19,43,51.87,10.14,19.85,18.2,42.79,24,67.8h-67Zm-92.83,51.87c12.61-24.68,27.54-42.48,43-51.87V578.24h-67a313.61,313.61,0,0,1,17-52.91Q634,517.64,637.63,510.44Zm-56.47-21.78q8.39-5.62,17.27-10.46-2.64,4.67-5.16,9.58-6.57,12.87-12.12,27.06a383.45,383.45,0,0,0-18.42,63.4H503.18A226,226,0,0,1,581.16,488.66ZM481,675.49a224.15,224.15,0,0,1,5.06-47.44h69.35c-1.44,15.52-2.19,31.38-2.19,47.44s.75,31.94,2.19,47.47H486.07A224.36,224.36,0,0,1,481,675.49ZM581.9,862.83a226,226,0,0,1-78.72-90.07h59.55a374.85,374.85,0,0,0,22.38,73q3.85,9,8.16,17.4,2.52,4.93,5.16,9.59Q589.94,868.17,581.9,862.83Zm98.75,29.6c-15.48-9.4-30.41-27.2-43-51.88a284.29,284.29,0,0,1-20.72-54.84q-1.74-6.37-3.26-13h67Zm0-169.47h-75.2a468.42,468.42,0,0,1,0-94.91h75.2Zm92.82,117.59c-12.6,24.68-27.53,42.49-43,51.88V772.76h67C791.67,797.76,783.61,820.71,773.47,840.55ZM805.66,723h-75.2V628.05h75.2a468.42,468.42,0,0,1,0,94.91Zm7,149.84q2.63-4.66,5.15-9.59c13.46-26.35,23.76-57.09,30.55-90.45h59.54A226.12,226.12,0,0,1,812.68,872.8ZM925,723H855.68c1.45-15.53,2.2-31.39,2.2-47.47s-.75-31.92-2.2-47.44H925A225.06,225.06,0,0,1,925,723Z"/><path class="cls-3" d="M469.13,911.92l.43.43c13.87,13.82,4.21,37.49-15.38,37.48l-89.67,0A53.78,53.78,0,0,1,310.74,896V874.47A165.2,165.2,0,0,0,300,815.84L288.47,785.4a250,250,0,0,1-16.27-87.93c0-.33,0-.67,0-1l0-100.6v-.31l0-132.07,0-54.05v0c0-.56,0-1.11,0-1.66s.06-1.11.11-1.66.1-1.16.18-1.74.15-1.09.24-1.62c0-.12.05-.23.07-.34.09-.51.19-1,.31-1.5s.21-.92.34-1.38.23-.88.37-1.31c.24-.82.52-1.63.82-2.42.06-.18.13-.35.2-.53l.2-.51c.45-1.08.94-2.14,1.48-3.17.24-.46.5-.92.76-1.38a38.86,38.86,0,0,1,2.55-3.89l.57-.73.58-.72c.78-.95,1.62-1.87,2.49-2.74.65-.66,1.33-1.29,2-1.89a38.35,38.35,0,0,1,9.08-5.86l0,0c.48-.22,1-.43,1.47-.64s.86-.35,1.3-.51h0l.5-.19,1.13-.38.26-.08h.07l.29-.09.56-.17h0l.44-.12.13,0c.23-.07.45-.13.68-.18l.12,0,.8-.18h0l.44-.1.13,0c.63-.13,1.27-.24,1.91-.34l.72-.1c.24,0,.49-.07.73-.09.73-.09,1.47-.15,2.21-.19s1.48-.06,2.23-.06a39.22,39.22,0,0,1,5.88.44c.64.1,1.27.22,1.9.34.95.2,1.88.42,2.79.68.61.18,1.22.37,1.82.57s1.18.42,1.77.65,1.16.47,1.73.73,1.13.53,1.68.81c.83.43,1.65.89,2.45,1.37.53.32,1,.66,1.56,1a0,0,0,0,0,0,0c.76.52,1.51,1.06,2.24,1.63a39.12,39.12,0,0,1,6,5.83c.39.48.77,1,1.14,1.45.19.25.37.5.55.76.36.5.7,1,1,1.53.5.79,1,1.59,1.42,2.42.3.54.58,1.1.85,1.65l.33.72c.3.65.6,1.3.85,2,.32.83.61,1.7.89,2.57.07.21.14.43.2.64a38.79,38.79,0,0,1,1.54,10.84l0-92.57c0-.34,0-.67,0-1,0-.16,0-.31,0-.47s0-.35,0-.52l0-.42c0-.19,0-.37,0-.56l0-.38c0-.2,0-.4,0-.6s0-.2,0-.31c0-.31.07-.62.11-.92s.06-.47.1-.7a1.7,1.7,0,0,1,0-.22c.06-.37.12-.74.19-1.11,0-.19.07-.38.11-.57l0-.12c.12-.6.26-1.2.42-1.78.07-.3.15-.59.23-.88h0c.08-.29.17-.57.27-.85s.19-.64.3-1a37.92,37.92,0,0,1,2.79-6.31c.25-.45.51-.89.77-1.32.16-.27.33-.53.49-.79.51-.78,1-1.55,1.59-2.29.74-1,1.53-1.95,2.36-2.86.42-.46.85-.9,1.28-1.34a38.54,38.54,0,0,1,14.16-9c.55-.2,1.1-.39,1.66-.57s1.21-.36,1.83-.52,1.15-.29,1.74-.4l.9-.18.62-.11.51-.08.69-.1.92-.11c.35-.05.71-.08,1.07-.11l.78-.05.94-.05.47,0h1a38.46,38.46,0,0,1,14.15,2.68c.58.23,1.16.47,1.73.73l.85.4c.56.27,1.12.55,1.66.85s1.09.61,1.62.93a36.54,36.54,0,0,1,3.81,2.65c.48.37,1,.77,1.44,1.18.7.61,1.38,1.24,2,1.9a38.5,38.5,0,0,1,6.35,8.37c.26.44.5.89.73,1.34a38.58,38.58,0,0,1,3.44,9.79c.09.43.17.87.24,1.31l.09.56c0,.05,0,.09,0,.14.05.34.1.67.14,1l.09.8h0c.07.65.12,1.31.15,2h0c0,.65.05,1.31.05,2v-1l0-41.27a38.36,38.36,0,0,1,6-20.62c.24-.38.49-.75.74-1.12l.78-1.09.15-.23,0,0h0a37.81,37.81,0,0,1,2.83-3.36c.25-.26.51-.53.77-.78a37.74,37.74,0,0,1,5.08-4.28c.3-.22.6-.43.91-.63l.92-.59q.46-.3.93-.57c.22-.13.42-.25.65-.37,1-.55,2-1.05,3-1.51.47-.21.94-.4,1.41-.59l.51-.21a38.65,38.65,0,0,1,33.95,3,41.54,41.54,0,0,1,3.86,2.69,37.1,37.1,0,0,1,6.74,6.84c.4.51.78,1,1.15,1.57a3.26,3.26,0,0,1,.22.34c.33.46.62.93.91,1.41.1.15.2.3.28.45.31.53.62,1.08.93,1.63a40.4,40.4,0,0,1,1.89,4.18c.23.59.45,1.2.65,1.81a4,4,0,0,1,.15.49c.17.53.33,1.06.47,1.59.2.71.37,1.43.51,2.15.08.39.16.78.23,1.18a.17.17,0,0,0,0,.07c0,.11,0,.23.05.33s0,.22.06.34h0c0,.17.05.34.07.51.06.4.11.8.16,1.2s.07.73.1,1.1c0,0,0,.08,0,.12h0c0,.25,0,.49.05.74,0,.09,0,.17,0,.26s0,.33,0,.5v0c0,.08,0,.16,0,.24s0,.27,0,.4v.14c0,.23,0,.47,0,.7l0,37.08c0-.28,0-.56,0-.83v1c0-.65,0-1.31,0-2l.06-1c0-.33.05-.65.08-1,.13-1.29.33-2.55.58-3.79a38.25,38.25,0,0,1,8.66-17.59c.45-.52.92-1,1.39-1.52a39,39,0,0,1,9-6.91,38.58,38.58,0,0,1,18.83-4.89c.67,0,1.32,0,2,.05s1.39.08,2.08.16l.87.1c1.29.17,2.56.4,3.8.68l.93.23c.55.14,1.09.29,1.62.46l.51.16.61.2.89.31a38.68,38.68,0,0,1,5.12,2.31l.82.46c.74.43,1.47.88,2.18,1.35,1.06.71,2.09,1.48,3.07,2.28h0c.65.55,1.29,1.11,1.91,1.68.32.29.63.6.94.91.82.82,1.6,1.66,2.34,2.56.43.53.85,1.06,1.27,1.61.18.25.37.5.55.76.35.5.7,1,1,1.53s.65,1.06,1,1.6c.47.81.9,1.63,1.31,2.47.27.57.53,1.14.78,1.72.36.87.7,1.75,1,2.65a38.44,38.44,0,0,1,2,12.38v53.19c-1.94.78-3.88,1.57-5.81,2.39A334.56,334.56,0,0,0,385.61,578.19l-.19.64a335.72,335.72,0,0,0,0,193.28l.21.68a333.81,333.81,0,0,0,83.52,139.13Z"/></g></g></g></svg>