<svg xmlns="http://www.w3.org/2000/svg" viewBox="0 0 1000 725.26"><defs><style>.cls-1{fill:#5b99f5;}.cls-2{fill:#48575e;}</style></defs><title>Musical Staff</title><g id="Layer_2" data-name="Layer 2"><g id="Layer_26" data-name="Layer 26"><g id="Musical_Staff" data-name="Musical Staff"><path class="cls-1" d="M839.32,527.82c0,.36,0,.7,0,1,0,2.92-.14,5.83-.35,8.71a131.8,131.8,0,0,1-262.89,0c-.23-3.21-.35-6.47-.35-9.75A131.87,131.87,0,0,1,758.94,406.44l1.92.84a131.76,131.76,0,0,1,78.46,120.54Z"/><path class="cls-1" d="M839.32,40.19V527.82a131.76,131.76,0,0,0-78.46-120.54l-1.92-.84V213.76L414.11,267V593.46c0-1,0-2,0-3l-.06-1.86c0-1-.08-2-.14-2.92,0-.66-.08-1.33-.13-2,0-.23,0-.47-.05-.7-.06-.71-.12-1.42-.19-2.12s-.14-1.45-.22-2.16c-.05-.47-.11-1-.17-1.42q-.36-2.92-.84-5.8c-.1-.59-.21-1.18-.31-1.77s-.22-1.19-.34-1.78c-.22-1.19-.47-2.36-.75-3.53-.12-.54-.25-1.09-.37-1.62-.44-1.84-.91-3.67-1.42-5.47-.16-.53-.31-1-.47-1.57s-.34-1.14-.52-1.7c-.45-1.46-.93-2.89-1.44-4.33-.22-.64-.45-1.29-.69-1.92s-.52-1.41-.8-2.11c-.18-.47-.36-.94-.57-1.41s-.5-1.24-.76-1.87c-.45-1.08-.92-2.16-1.41-3.22-.24-.53-.48-1.07-.73-1.6-.37-.78-.74-1.57-1.12-2.34l-.31-.61c-.42-.84-.84-1.66-1.27-2.48-.58-1.09-1.16-2.15-1.76-3.22-.28-.53-.58-1-.89-1.57s-.56-1-.85-1.43c-.42-.71-.84-1.41-1.28-2.11s-.88-1.4-1.33-2.09-.94-1.42-1.41-2.11c-.26-.4-.52-.79-.79-1.17s-.43-.62-.66-.93c-.36-.52-.73-1-1.1-1.54s-.81-1.11-1.23-1.66-1-1.35-1.53-2-1.19-1.51-1.8-2.25l-.93-1.12c-1.65-2-3.36-3.9-5.13-5.78-.5-.55-1-1.08-1.54-1.61l-.18-.18c-.35-.37-.71-.75-1.09-1.11L374.16,499c-.86-.84-1.71-1.65-2.58-2.45s-1.47-1.34-2.21-2-1.51-1.32-2.29-2-1.4-1.18-2.12-1.74c-1.48-1.21-3-2.38-4.54-3.52-.48-.35-1-.71-1.46-1.05-.14-.11-.3-.23-.45-.33q-.87-.63-1.77-1.23c-.66-.45-1.31-.9-2-1.33-.93-.61-1.85-1.2-2.79-1.78-.64-.41-1.29-.81-1.94-1.19l-.22-.13c-.8-.48-1.61-1-2.41-1.41l-.13-.08-2.36-1.31c-.84-.45-1.67-.89-2.51-1.32l-1.56-.79-.86-.42-1.42-.68-2.08-1c-.92-.42-1.84-.82-2.76-1.21V105.83a40.19,40.19,0,0,1,40.19-40.19L787,1.88,799.13,0A40.19,40.19,0,0,1,839.32,40.19Z"/><path class="cls-1" d="M799.13,0,787,1.88A40.15,40.15,0,0,1,799.13,0Z"/><path class="cls-1" d="M839.32,40.19V527.82c0,.36,0,.7,0,1,0,2.92-.14,5.83-.35,8.71a131.8,131.8,0,0,1-262.89,0c-.23-3.21-.35-6.47-.35-9.75A131.87,131.87,0,0,1,758.94,406.44V213.76L414.11,267V593.46c0-1,0-2,0-3l-.06-1.86c0-1-.08-2-.14-2.92,0-.66-.08-1.33-.13-2,0-.23,0-.47-.05-.7-.06-.71-.12-1.42-.19-2.12s-.14-1.45-.22-2.16c-.05-.47-.11-1-.17-1.42q-.36-2.92-.84-5.8c-.1-.59-.21-1.18-.31-1.77s-.22-1.19-.34-1.78c-.22-1.19-.47-2.36-.75-3.53-.12-.54-.25-1.09-.37-1.62-.44-1.84-.91-3.67-1.42-5.47-.16-.53-.31-1-.47-1.57s-.34-1.14-.52-1.7c-.45-1.46-.93-2.89-1.44-4.33-.22-.64-.45-1.29-.69-1.92s-.52-1.41-.8-2.11c-.18-.47-.36-.94-.57-1.41s-.5-1.24-.76-1.87c-.45-1.08-.92-2.16-1.41-3.22-.24-.53-.48-1.07-.73-1.6-.37-.78-.74-1.57-1.12-2.34l-.31-.61c-.42-.84-.84-1.66-1.27-2.48-.58-1.09-1.16-2.15-1.76-3.22-.28-.53-.58-1-.89-1.57s-.56-1-.85-1.43c-.42-.71-.84-1.41-1.28-2.11s-.88-1.4-1.33-2.09-.94-1.42-1.41-2.11c-.26-.4-.52-.79-.79-1.17s-.43-.62-.66-.93c-.36-.52-.73-1-1.1-1.54s-.81-1.11-1.23-1.66-1-1.35-1.53-2-1.19-1.51-1.8-2.25l-.93-1.12c-1.65-2-3.36-3.9-5.13-5.78-.5-.55-1-1.08-1.54-1.61l-.18-.18c-.35-.37-.71-.75-1.09-1.11L374.16,499c-.86-.84-1.71-1.65-2.58-2.45s-1.47-1.34-2.21-2-1.51-1.32-2.29-2-1.4-1.18-2.12-1.74c-1.48-1.21-3-2.38-4.54-3.52-.48-.35-1-.71-1.46-1.05-.14-.11-.3-.23-.45-.33q-.87-.63-1.77-1.23c-.66-.45-1.31-.9-2-1.33-.93-.61-1.85-1.2-2.79-1.78-.64-.41-1.29-.81-1.94-1.19l-.22-.13c-.8-.48-1.61-1-2.41-1.41l-.13-.08-2.36-1.31c-.84-.45-1.67-.89-2.51-1.32l-1.56-.79-.86-.42-1.42-.68-2.08-1c-.92-.42-1.84-.82-2.76-1.21V105.83a40.19,40.19,0,0,1,40.19-40.19L787,1.88a40.22,40.22,0,0,1,52.37,38.31Z"/><path class="cls-2" d="M30.77,146.69H243.29a30.15,30.15,0,0,1,30.15,30.15h0A30.14,30.14,0,0,1,243.29,207H30.14A30.14,30.14,0,0,1,0,176C.46,159.57,14.34,146.69,30.77,146.69Z"/><path class="cls-2" d="M1000,176.25c.33,16.9-13.91,30.73-30.81,30.73H929.75a30.14,30.14,0,0,1-30.14-30.14h0a30.15,30.15,0,0,1,30.14-30.15h40.11A30.14,30.14,0,0,1,1000,176.25Z"/><path class="cls-2" d="M30.77,277H243.29a30.14,30.14,0,0,1,30.15,30.14h0a30.14,30.14,0,0,1-30.15,30.14H30.14A30.14,30.14,0,0,1,0,306.29C.46,289.87,14.34,277,30.77,277Z"/><path class="cls-2" d="M1000,308c-.45,16.42-14.33,29.3-30.76,29.3H929.75a30.14,30.14,0,0,1-30.14-30.14h0A30.14,30.14,0,0,1,929.75,277h40.11A30.14,30.14,0,0,1,1000,308Z"/><path class="cls-2" d="M30.74,407.28H206a4.73,4.73,0,0,1,1.8,9.1l-.27.11a191.32,191.32,0,0,0-61,41.14q-4.83,4.81-9.26,9.94H30.14A30.15,30.15,0,0,1,.08,435.18C1.23,419.33,14.86,407.28,30.74,407.28Z"/><path class="cls-1" d="M414.11,593.46c0,.35,0,.69,0,1,0,1.13,0,2.25-.07,3.37a131.79,131.79,0,0,1-263.44,0c-.06-1.46-.08-2.92-.08-4.4A131.87,131.87,0,0,1,321.42,467.57a128.22,128.22,0,0,1,12.31,4.5c.92.39,1.84.79,2.76,1.21l2.08,1,1.42.68.86.42,1.56.79c.84.43,1.67.87,2.51,1.32l2.36,1.31.13.08c.8.45,1.61.93,2.41,1.41l.22.13c.65.38,1.3.78,1.94,1.19.94.58,1.86,1.17,2.79,1.78.66.43,1.31.88,2,1.33s1.19.81,1.77,1.23c.15.1.31.22.45.33.49.34,1,.7,1.46,1.05,1.54,1.14,3.06,2.31,4.54,3.52.72.56,1.43,1.14,2.12,1.74s1.53,1.29,2.29,2,1.48,1.31,2.21,2,1.72,1.61,2.58,2.45l1.34,1.31c.38.36.74.74,1.09,1.11l.18.18c.52.53,1,1.06,1.54,1.61,1.77,1.88,3.48,3.8,5.13,5.78l.93,1.12c.61.74,1.2,1.49,1.8,2.25s1,1.33,1.53,2,.83,1.11,1.23,1.66.74,1,1.1,1.54c.23.31.44.62.66.93s.53.77.79,1.17c.47.69.95,1.39,1.41,2.11s.89,1.38,1.33,2.09.86,1.4,1.28,2.11c.29.47.57,1,.85,1.43s.61,1,.89,1.57c.6,1.07,1.18,2.13,1.76,3.22.43.82.85,1.64,1.27,2.48l.31.61c.38.77.75,1.56,1.12,2.34.25.53.49,1.07.73,1.6.49,1.06,1,2.14,1.41,3.22.26.63.52,1.25.76,1.87s.39.94.57,1.41c.28.7.54,1.41.8,2.11s.47,1.28.69,1.92c.51,1.44,1,2.87,1.44,4.33.18.56.35,1.14.52,1.7s.31,1,.47,1.57c.51,1.8,1,3.63,1.42,5.47.12.53.25,1.08.37,1.62.28,1.17.53,2.34.75,3.53.12.59.23,1.17.34,1.78s.21,1.18.31,1.77q.48,2.88.84,5.8c.06.47.12,1,.17,1.42.08.71.16,1.43.22,2.16s.13,1.41.19,2.12c0,.23,0,.47.05.7.05.66.09,1.33.13,2,.06,1,.11,1.94.14,2.92l.06,1.86C414.1,591.45,414.11,592.45,414.11,593.46Z"/><path class="cls-2" d="M1000,438.27c-.45,16.42-14.33,29.3-30.76,29.3H929.75a30.15,30.15,0,0,1-30.14-30.15h0a30.14,30.14,0,0,1,30.14-30.14h40.11A30.14,30.14,0,0,1,1000,438.27Z"/><path class="cls-2" d="M98.49,537.57a191,191,0,0,0-8.27,55.89c0,1.47,0,2.93,0,4.4H30.14a30.15,30.15,0,0,1,0-60.29Z"/><path class="cls-2" d="M1000,568.56c-.45,16.42-14.33,29.3-30.76,29.3H925.8a29.82,29.82,0,0,1-29.34-35.2c0-.21.07-.41.11-.61a29.78,29.78,0,0,1,29.34-24.48h44A30.14,30.14,0,0,1,1000,568.56Z"/></g></g></g></svg>