<svg xmlns="http://www.w3.org/2000/svg" viewBox="0 0 1000 1000"><defs><style>.cls-1{fill:#48575e;}.cls-2{fill:#5b99f5;}.cls-3{fill:#e1eaf1;}</style></defs><title>Vinyl Record</title><g id="Layer_2" data-name="Layer 2"><g id="Layer_26" data-name="Layer 26"><g id="Vinyl_Record" data-name="Vinyl Record"><path class="cls-1" d="M661.15,26.54A499.78,499.78,0,0,0,135.09,158.18q-1.64,1.74-3.25,3.5-3.27,3.56-6.47,7.19c-1.17,1.31-2.33,2.64-3.48,4q-3.47,4-6.82,8-1.68,2-3.33,4.06c-1.11,1.36-2.2,2.72-3.29,4.09s-2.17,2.73-3.24,4.11-2.13,2.75-3.18,4.13-2.1,2.77-3.14,4.16-2.07,2.79-3.09,4.19q-5.83,8-11.31,16.16c-.87,1.3-1.74,2.6-2.59,3.9s-1.58,2.42-2.37,3.63l-.45.71-1.68,2.62c-.35.55-.71,1.11-1.05,1.67-.73,1.17-1.46,2.33-2.18,3.5-.84,1.37-1.68,2.73-2.5,4.1-.71,1.17-1.41,2.35-2.11,3.52-.29.48-.58,1-.85,1.44-.65,1.1-1.29,2.21-1.93,3.31l-2.36,4.12a.65.65,0,0,0-.09.16c-.76,1.36-1.53,2.73-2.28,4.09s-1.55,2.81-2.31,4.22q-4.58,8.48-8.83,17.14Q47.7,286.43,44.72,293q-1.77,3.9-3.48,7.83c-.33.75-.65,1.49-1,2.24-.62,1.45-1.24,2.9-1.84,4.36q-.81,1.92-1.59,3.84c-.11.26-.22.53-.31.79h0A498.56,498.56,0,0,0,0,500c0,276.14,223.86,500,500,500A499.05,499.05,0,0,0,861.93,845q3.84-4,7.58-8.13,4.35-4.77,8.6-9.68c1.15-1.33,2.3-2.67,3.43-4,.89-1,1.76-2.08,2.63-3.13l1-1.15c1-1.27,2.1-2.54,3.13-3.82s2.13-2.63,3.18-3.95c.11-.14.23-.28.33-.43.82-1,1.62-2,2.41-3,.44-.55.87-1.1,1.3-1.66.83-1.08,1.67-2.16,2.49-3.24,1.06-1.39,2.1-2.77,3.14-4.16q3.78-5.09,7.42-10.23c.75-1,1.48-2.09,2.21-3.14.39-.56.78-1.11,1.16-1.67.78-1.13,1.56-2.27,2.32-3.41.27-.38.52-.76.78-1.14,1-1.46,2-2.94,2.94-4.42h0c1.1-1.67,2.2-3.36,3.28-5q3.25-5.07,6.38-10.22c1-1.65,2-3.29,3-4.95.13-.2.25-.4.36-.61.92-1.56,1.84-3.14,2.75-4.71l.11-.19c1-1.73,2-3.45,2.94-5.19q5.89-10.54,11.29-21.41c.76-1.52,1.5-3,2.24-4.57.24-.47.47-.93.68-1.4q1.11-2.29,2.19-4.61l.32-.68q2.4-5.16,4.68-10.37.32-.69.6-1.38.72-1.62,1.41-3.27c.48-1.12,1-2.24,1.42-3.37q.93-2.22,1.84-4.45l.07-.18A498.52,498.52,0,0,0,1000,500C1000,280.24,858.23,93.6,661.15,26.54ZM450.71,500A49.29,49.29,0,1,1,500,549.29,49.29,49.29,0,0,1,450.71,500Z"/><path class="cls-2" d="M586.59,350.61a173.17,173.17,0,0,0-142.92-13.86q-5.25,1.81-10.33,3.95c-1.79.75-3.59,1.53-5.37,2.36q-5,2.28-9.74,4.85-2.43,1.32-4.82,2.7a173.3,173.3,0,0,0-29.12,21.26q-3.09,2.79-6,5.73c-.53.52-1.05,1-1.57,1.57-.24.25-.48.49-.71.74l-1.33,1.38c-.5.53-1,1.06-1.49,1.6s-1,1.08-1.48,1.63l-.47.52c-.59.66-1.18,1.33-1.76,2q-1.93,2.23-3.78,4.52c-.62.77-1.23,1.53-1.83,2.3s-1.19,1.54-1.78,2.32-1.16,1.55-1.73,2.34-1.13,1.56-1.69,2.35q-2.56,3.66-4.93,7.41c-.46.74-.92,1.48-1.37,2.23q-1.36,2.24-2.64,4.5c-.36.62-.71,1.24-1,1.87q-1.55,2.79-3,5.61c-.32.62-.63,1.25-.93,1.88-.53,1.06-1,2.13-1.53,3.2-.29.64-.58,1.27-.86,1.91q-1.29,2.83-2.44,5.7c-.34.84-.67,1.68-1,2.53a.69.69,0,0,0-.05.13c-.31.79-.61,1.58-.9,2.38-.38,1-.74,2-1.09,3-.21.62-.43,1.24-.63,1.86-.14.39-.26.77-.39,1.16-.49,1.52-1,3-1.42,4.58-.31,1-.61,2.06-.89,3.09-.23.82-.45,1.64-.66,2.47q-1.47,5.63-2.54,11.31a172.77,172.77,0,0,0,226,195.51q5.24-1.8,10.33-3.94l2.48-1.06c1.46-.64,2.91-1.29,4.36-2l1.35-.64c2.62-1.25,5.22-2.59,7.79-4A173.22,173.22,0,0,0,613,630.55l1.55-1.37c1-.91,2.07-1.85,3.09-2.81L619,625.1l1.63-1.56,2-2,2-2.09c1.36-1.42,2.7-2.85,4-4.31q1-1.09,1.95-2.22l.89-1.05c.53-.63,1.07-1.25,1.59-1.89q1.61-1.92,3.13-3.88,4.47-5.7,8.44-11.79c.53-.81,1-1.61,1.56-2.42,1-1.59,2-3.18,2.91-4.79l.15-.25c.45-.77.89-1.55,1.33-2.33.93-1.65,1.83-3.32,2.7-5,.42-.81.84-1.62,1.24-2.43s.87-1.75,1.29-2.63.71-1.5,1.06-2.25c.48-1,.95-2.08,1.4-3.12.34-.77.67-1.55,1-2.33.22-.52.43-1,.64-1.55s.45-1.1.67-1.65c.3-.76.59-1.51.88-2.27s.59-1.56.87-2.35.48-1.32.71-2c.16-.45.31-.9.46-1.34.49-1.44,1-2.88,1.41-4.33l.36-1.16c.18-.59.35-1.18.52-1.77s.35-1.22.52-1.83c.13-.45.26-.91.38-1.37l.57-2.15c.21-.81.41-1.63.61-2.45.33-1.38.65-2.78.95-4.17.12-.55.23-1.09.34-1.64.17-.84.34-1.69.5-2.53a173,173,0,0,0-83-181.66ZM500,549.29A49.29,49.29,0,1,1,549.29,500,49.29,49.29,0,0,1,500,549.29Z"/><path class="cls-3" d="M247.4,68.34,443.68,336.77a172.91,172.91,0,0,0-113.31,131L36.52,312.07A502.51,502.51,0,0,1,247.4,68.34Z"/><path class="cls-3" d="M963.48,687.93,669.63,532.27a172.91,172.91,0,0,1-113.31,131L752.6,931.66A502.51,502.51,0,0,0,963.48,687.93Z"/></g></g></g></svg>