<svg xmlns="http://www.w3.org/2000/svg" viewBox="0 0 721.75 1000"><defs><style>.cls-1{fill:#e1eaf1;}.cls-2{fill:#48575e;}.cls-3{fill:#5b99f5;}</style></defs><title>Hooked Document</title><g id="Layer_2" data-name="Layer 2"><g id="Layer_26" data-name="Layer 26"><g id="Hooked_Document" data-name="Hooked Document"><path class="cls-1" d="M721.75,573.14V899.19A100.8,100.8,0,0,1,620.94,1000H100.81A100.81,100.81,0,0,1,0,899.19V734.94a85,85,0,0,1,24.91-60.12L202.53,497.23a85.07,85.07,0,0,1,60.11-24.9H369c.11,2.2.27,4.4.49,6.57A143.08,143.08,0,0,0,473.23,602.5c19.27,5.37,38.32-9.34,38.32-29.35a30.69,30.69,0,0,0-6.06-18.34,29.54,29.54,0,0,0-15.83-10.91,82.13,82.13,0,0,1-58.82-65q-.55-3.24-.86-6.57h191A100.76,100.76,0,0,1,721.75,573.14Z"/><path class="cls-2" d="M623.86,0a78.82,78.82,0,0,0-30.42,151.53V465q0,3.72-.33,7.35h27.83a100.4,100.4,0,0,1,32.77,5.46c.39-4.22.58-8.5.58-12.81V151.53A78.82,78.82,0,0,0,623.86,0Zm0,96.8a18,18,0,1,1,18-18A18,18,0,0,1,623.86,96.8Z"/><path class="cls-2" d="M511.55,573.15c0,20-19.05,34.72-38.32,29.35A143.08,143.08,0,0,1,369.49,478.9c-.22-2.17-.38-4.37-.49-6.57q-.19-3.66-.19-7.35V355.72c0-9.78,12.76-13.51,18-5.27l63.45,99.1A9.8,9.8,0,0,1,442,464.63H429.65V465q0,3.72.33,7.35.3,3.33.86,6.57a82.13,82.13,0,0,0,58.82,65,29.54,29.54,0,0,1,15.83,10.91A30.69,30.69,0,0,1,511.55,573.15Z"/><path class="cls-3" d="M227.41,480l-.25,119.18A100.56,100.56,0,0,1,126.6,699.72H7.64a85.06,85.06,0,0,1,17.27-24.9L202.53,497.23A85,85,0,0,1,227.41,480Z"/><path class="cls-2" d="M587.3,732.77h-278a20,20,0,1,1,0-40h278a20,20,0,0,1,0,40Z"/><path class="cls-2" d="M587.3,850.7H134.58a20,20,0,0,1,0-40H587.3a20,20,0,0,1,0,40Z"/></g></g></g></svg>