<svg xmlns="http://www.w3.org/2000/svg" viewBox="0 0 1000 842.25"><defs><style>.cls-1{fill:#48575e;}.cls-2{fill:#e1eaf1;}.cls-3{fill:#5b99f5;}</style></defs><title>Asset 331</title><g id="Layer_2" data-name="Layer 2"><g id="Environment"><path class="cls-1" d="M436.76,468.27a23.31,23.31,0,0,0-3.62,2.57,137.33,137.33,0,0,0-29.44,35.3l-2.79.09q-5.32.16-11.06.16t-11.07-.16c-105.3-3.08-96.91-50.9-75.26-94.2a120.7,120.7,0,0,1,29.3-37.11,8.36,8.36,0,0,1,10-.68l.05,0,.7.44c.35.21.69.41,1,.63l.45.27c.3.18.61.35.91.54l1.3.73.93.52,1,.51.06,0,.07,0,.2.1.73.38.66.34.06,0,.18.09.82.41.06,0,.59.28.36.17.55.26.07,0,.07,0,1.07.47,1.34.58h0l0,0,.78.32L358,382l.46.17.46.18.58.22,1.5.53.22.08h0l0,0,1.19.4h.07l.16.06.44.15.08,0,.53.17.9.27.68.2c.47.14,1,.28,1.42.4l1.48.39c.71.18,1.43.36,2.13.51l.92.2.18.06.27,0,.27.06.31.06.35.07h.06c.59.12,1.17.22,1.73.32l.6.1.07,0,.42.06.11,0h0l.14,0,1.32.2.72.1h.16l.75.11h.07l.17,0h0l.89.11H380l.27,0h0l.39,0c.83.09,1.71.17,2.75.24,2.16.16,4.31.24,6.43.24s4.27-.08,6.4-.23c.8-.06,1.5-.12,2.16-.19h.14l.78-.09h.1l.29,0h0l.88-.11h0l.17,0h.07l.75-.11h.15l.73-.1,1.32-.2.14,0H404l.11,0,.43-.06.06,0,.6-.1c.56-.1,1.14-.2,1.73-.32h0l.36-.07.3-.06.28-.06.27,0,.19-.06.91-.2c.69-.15,1.43-.33,2.16-.52l1.45-.38c.48-.12.95-.26,1.41-.4l.69-.2c.22-.06.46-.13.68-.21a87.69,87.69,0,0,0,21,84.23Z"/><path class="cls-1" d="M621.38,506.23q-5.32.16-11.07.16c-3.81,0-7.51-.05-11.06-.16l-2.77-.09A137.2,137.2,0,0,0,567,470.84a23.37,23.37,0,0,0-3.62-2.58,87.69,87.69,0,0,0,21-84.22,7,7,0,0,0,.69.21l.68.2c.47.14.94.28,1.41.4l1.48.39c.71.18,1.44.36,2.14.51l.91.2.18.06.28,0,.27.06.3.06.36.07h.05c.59.12,1.18.22,1.74.32l.59.1.07,0,.43.06.1,0h.06l.14,0,1.32.2.72.1h.16l.75.11h.06l.18,0h0l.89.11h.05l.26,0h0l.4,0c.82.09,1.71.17,2.74.24,2.16.16,4.31.24,6.43.24s4.28-.08,6.4-.23c.81-.06,1.51-.12,2.16-.19H619l.78-.09h.09l.3,0h0l.89-.11h0l.17,0h.07l.75-.11h.15l.73-.1,1.33-.2.13,0h.06l.1,0,.43-.06.06,0,.6-.1c.56-.1,1.15-.2,1.74-.32h0l.36-.07.3-.06.27-.06.27,0,.19-.06.91-.2c.7-.15,1.43-.33,2.17-.52l1.44-.38c.48-.12,1-.26,1.42-.4l.68-.2.9-.27.53-.17.06,0,.46-.15.17-.06h.06l1.2-.4h0l.38-.13,1.38-.5c.19-.06.36-.13.54-.2l.47-.18.45-.17,1.16-.46.78-.33h.07l1.34-.58,1.06-.47.07,0,.08,0,.59-.28.32-.15.54-.26.63-.21.92-.55.06,0,1-.48.2-.1.06,0,0,0,1-.52.93-.52,1.24-.7,1-.59.33-.19.73-.44.09-.06.39-.25.62-.38.06,0a8.34,8.34,0,0,1,10,.69A120.85,120.85,0,0,1,696.65,412C718.3,455.33,726.7,503.15,621.38,506.23Z"/><path class="cls-1" d="M600,564.34c0,.92,0,1.84-.07,2.74,0,.36,0,.72-.06,1.08-.07.8-.15,1.6-.25,2.38-.06.41-.12.8-.18,1.19s-.13.78-.21,1.17-.15.78-.24,1.17-.18.76-.28,1.15-.2.76-.31,1.14-.23.75-.35,1.13-.25.75-.39,1.12c-.26.73-.56,1.47-.88,2.2s-.63,1.36-1,2l-.19.34c-.13.25-.27.5-.41.75s-.31.55-.49.82-.22.38-.34.57l-.19.29c-.13.21-.27.42-.41.63l-.61.87c-.24.34-.48.68-.74,1s-.43.55-.65.82l-.68.81-.56.64-.61.66c-.3.32-.61.63-.92.94s-.85.82-1.29,1.22c-.23.22-.46.42-.7.62s-.52.46-.79.67-.65.55-1,.81l-.68.53c-.47.36-.94.71-1.44,1l-.74.51c-.41.28-.82.55-1.25.82l-1.19.74c-1.11.67-2.28,1.32-3.49,1.95q-.61.33-1.26.63c-.42.22-.85.42-1.28.62l-1,.44c-1.16.52-2.36,1-3.61,1.52l-1.45.55-1.08.4c-1.44.52-3,1-4.51,1.49l-1.18.35c-.79.24-1.6.47-2.43.68l-1.25.34c-1,.26-2.08.52-3.15.77l-1.47.33c-1.53.34-3.1.66-4.72,1l-1,.19-2.27.4-2.44.39-.56.08-1.28.19-1.3.18-1.25.17-2,.25-.36,0-2.3.25c-.9.1-1.81.2-2.73.28l-2.8.26c-.88.08-1.78.15-2.69.21-.27,0-.53.05-.81.06-1.18.09-2.38.16-3.59.24l-1.7.1-4.09.19-1.08,0-.47,0-2.15.07q-5.33.15-11.07.15c-3.81,0-7.51,0-11.06-.15-1.61-.05-3.18-.11-4.73-.18l-2.85-.14q-4.06-.21-7.89-.52l-2.49-.21c-1.4-.13-2.79-.26-4.15-.42l-1.5-.16-1.78-.22-1.31-.16c-1.3-.17-2.58-.35-3.83-.54l-1.54-.23-1.52-.25c-.4-.06-.8-.13-1.19-.21L452,610l-1.54-.3-1.52-.31-1.48-.31-.11,0c-.73-.16-1.45-.32-2.16-.5l-.63-.15c-.47-.11-.94-.22-1.4-.35l-.73-.19-.66-.17-.73-.2-1.95-.55c-1.31-.39-2.59-.78-3.82-1.2-.47-.15-.92-.31-1.37-.47l-1.34-.47c-.43-.17-.86-.34-1.28-.49l-1.28-.51c-.56-.22-1.11-.46-1.66-.69l-1.58-.71c-1.3-.59-2.55-1.21-3.75-1.85-.72-.39-1.41-.77-2.09-1.17h0l-1.11-.66-1.08-.69c-.71-.45-1.39-.92-2.05-1.39-.36-.26-.72-.52-1.07-.79-.19-.15-.4-.3-.59-.46l-.59-.47c-.39-.31-.77-.63-1.14-.95s-.52-.46-.78-.69-.45-.42-.67-.63a33.66,33.66,0,0,1-2.75-2.88l-.65-.75q-.61-.78-1.2-1.56c-.24-.32-.47-.64-.68-1s-.29-.42-.43-.64c-.35-.53-.69-1.07-1-1.62-.16-.27-.31-.54-.46-.82l-.43-.83-.42-.84,0,0q-.15-.3-.27-.6a.42.42,0,0,1-.06-.14c-.1-.22-.2-.44-.29-.66,0,0,0,0,0-.06s-.08-.19-.12-.29c-.11-.26-.21-.52-.3-.77s-.22-.58-.32-.88c-.32-.87-.59-1.74-.83-2.64-.16-.6-.3-1.19-.44-1.8s-.19-.91-.27-1.36-.16-.92-.23-1.38c0-.25-.07-.5-.1-.75s-.09-.74-.12-1.12a36.16,36.16,0,0,1-.23-3.77,56.39,56.39,0,0,1,.59-9.09c.14-.91.28-1.83.45-2.75.08-.46.17-.92.27-1.39.18-.94.39-1.87.62-2.81q1-4.21,2.46-8.51c.47-1.43,1-2.87,1.53-4.3q.54-1.44,1.11-2.88c.39-1,.79-1.91,1.19-2.87h0l1.25-2.87,1-2.15c.66-1.43,1.33-2.86,2-4.29h0q.51-1.06,1.05-2.13c.32-.66.66-1.31,1-1.95s.67-1.28,1-1.91c.69-1.26,1.4-2.5,2.14-3.71.37-.6.73-1.2,1.11-1.8s.72-1.14,1.09-1.71a.13.13,0,0,1,0-.06c.75-1.16,1.53-2.31,2.32-3.43h0l1-1.42a1,1,0,0,0,.12-.17l.33-.44.58-.78.62-.81c.14-.19.29-.37.44-.56a2,2,0,0,1,.17-.23l.26-.34.09-.11.48-.61.87-1.08.68-.82.67-.8c.36-.42.71-.84,1.07-1.25s.58-.66.88-1l.11-.13.26-.29.68-.75c.21-.24.43-.47.65-.7l.31-.35,1-1.05,1.28-1.33,0,0,.51-.53.81-.8c.45-.45.89-.88,1.33-1.29l1.32-1.26,1-.92.28-.25.16-.16c.19-.16.38-.34.57-.51s.45-.4.68-.6c.44-.39.88-.79,1.33-1.17a7.72,7.72,0,0,1,1.45-1l.11-.06a6.4,6.4,0,0,1,.8-.37l.21-.08h0l.34-.11.18-.05a5,5,0,0,1,.52-.14h.11l.18,0H447l.12,0h.09l.2,0,.32,0h.09l.28,0h.81l.27,0h.22l.24,0,.55.09.09,0c.16,0,.3.08.45.12h.07l.57.18.42.17,0,0,.08,0,.07,0a.18.18,0,0,1,.08,0s0,0,.05,0l.24.12h0l.06,0,.25.15a.51.51,0,0,1,.16.09l.16.1.06,0,.7.44,1,.63.46.27.91.54,1.3.73.93.52,1,.51.06,0,.08,0h0l.15.08.61.32.12.06.67.34.05,0a.76.76,0,0,0,.18.09l.82.41.07,0,.55.27h0l.36.17.55.26.07,0,.06,0,.19.08.17.08.71.31,1.34.58h0l0,0,.78.32c.4.16.77.31,1.08.42l.08,0,.08,0,.1,0a2.15,2.15,0,0,0,.27.1.64.64,0,0,0,.18.06l.29.12.58.22h0l.16.06H470l.23.09,1.05.38.13,0,.08,0h0l0,0,1.18.4h.07l.17.06.44.15.07,0,.53.17c.31.09.6.19.91.27l.68.2h0c.36.11.72.22,1.09.31l.32.09,1.48.39h0l1.35.33.78.18.74.17.17,0,.18.06.28,0,.27.06.3.06.36.07H483c.59.12,1.17.22,1.74.32l.59.1.07,0,.43.06.1,0h.06l.14,0h0l.82.13.49.07.72.1h.15l.75.11h.07l.18,0h0l.41.05h0l.22,0a2.13,2.13,0,0,1,.25,0h.05l.26,0h0l.4,0,1,.11.82.07.88.06c2.16.16,4.31.24,6.43.24l1.86,0,1,0c.3,0,.58,0,.88,0,.89,0,1.76-.09,2.64-.15l1.36-.11.42,0h0l.35,0h.15l.67-.07.11,0h.12l.27,0h0l.89-.11h0l.17,0h.07l.75-.11H512l.73-.1,1.33-.2.13,0h.06l.1,0,.43-.06.06,0,.6-.1.46-.08.91-.18.37-.06h0l.25,0,.11,0,.3-.06H518l.2-.05h.06l.21,0h0l.07,0,.11,0,.18,0,.72-.16h0c.7-.15,1.43-.33,2.17-.52l1.44-.38c.48-.12,1-.26,1.42-.4l.68-.2h0l.87-.26.53-.17.06,0,.46-.15.17-.06h.06l1.2-.4h0l.11,0,.09,0h0l0,0,.09,0h0l.5-.18.18-.07.19-.07.35-.12.15-.06h0l.53-.2a.94.94,0,0,0,.15-.06l.21-.07.11-.05.45-.17,1.16-.46.72-.3.06,0h.07l.89-.38.45-.2,1.06-.47.07,0,.08,0,.59-.28.32-.15.08,0,.46-.22.63-.21.92-.55.06,0,.33-.16.62-.32.2-.1.06,0,0,0,1-.52h0l.68-.38.24-.14.25-.14.61-.34.38-.22.49-.28.5-.31.33-.19.73-.44.09-.06.39-.25c.17-.09.33-.2.49-.29a1,1,0,0,1,.13-.09s0,0,.06,0a8.36,8.36,0,0,1,10,.69l1,.88,1,.89,1,.92.25.22.25.23c.21.21.41.4.63.59a0,0,0,0,0,0,0,3.58,3.58,0,0,0,.29.27l.56.55.49.46.92.9.25.26.19.19c.12.11.24.22.35.34l.71.72,0,0,0,0,0,0c.32.33.66.67,1,1,.13.14.26.28.4.41.27.3.55.59.84.9l1.16,1.27,1.5,1.68.43.5c.22.26.45.52.67.79s.42.48.62.73.64.76,1,1.15l1,1.24c.23.3.47.6.7.91l.54.69.7.93c.62.8,1.21,1.63,1.8,2.46l.25.35.28.38,1,1.4.61.93c.18.26.35.51.52.78.28.43.57.87.85,1.32s.56.88.83,1.33c.54.88,1.08,1.79,1.61,2.7s1.06,1.88,1.58,2.84l.75,1.43.75,1.46c.23.47.47.94.7,1.42q1,2.14,2.06,4.29l.66,1.44c.22.47.43,1,.65,1.43.42,1,.84,1.91,1.25,2.87h0c.4,1,.8,1.92,1.19,2.88l.57,1.43c.32.84.63,1.68.94,2.51.46,1.26.9,2.51,1.31,3.76s.8,2.49,1.16,3.73l.4,1.42h0c.15.52.28,1,.41,1.55.19.77.38,1.53.56,2.3s.33,1.53.48,2.29c.23,1.21.44,2.42.61,3.62.06.47.12.93.19,1.38,0,0,0,0,0,0,.05.46.09.91.14,1.37s.07.7.09,1c0,.19,0,.37.05.56s0,.5,0,.75c0,.44,0,.87.06,1.31S600,563.83,600,564.34Z"/><path class="cls-2" d="M462.31,300.32a72.57,72.57,0,0,1-7.62,32.46h0A88.19,88.19,0,0,0,424,364.23l-.53.28-.28.15-.58.29-.42.21-.42.26-.31.11-.18.08-.58.28-.86.4-1,.43-1.09.47-.73.29-1,.39-.71.27-.53.21-1.07.37-.3.11-1,.33-.59.2-.51.16-.71.21-.58.18-1.18.33-1.22.32c-.58.15-1.17.29-1.76.42l-.8.18-.14,0-1,.21c-.49.1-1,.19-1.45.26l-.47.09-.69.11-1.07.17-.57.07-1,.13-.82.1-.34,0-.32,0h-.07c-.63.07-1.31.13-2.11.19-1.77.13-3.55.19-5.31.19s-3.55-.06-5.3-.19l-2.1-.18h-.32l-.39-.07h-.07l-.74-.09-.84-.12-.18,0-.57-.07-1.07-.17-.69-.11-.47-.09c-.48-.08-.95-.16-1.43-.26l-.84-.18-.17,0-.14,0-.8-.18c-.56-.12-1.16-.26-1.77-.42l-1.21-.32-1.18-.33-.59-.18-.71-.22-1-.33-1.07-.36-.26-.1-1.07-.37-.54-.21-.76-.29c-.28-.1-.59-.23-.92-.37l-.69-.28-1.17-.51c-.26-.1-.55-.24-.86-.37l-.91-.43-.59-.28-.16-.08-.32-.1-.43-.27c-.14-.06-1.28-.65-1.28-.65l-.8-.44c-.24-.12-.54-.28-.82-.45s-.68-.37-1-.58l-.79-.47-.3-.18-.94-.57-.55-.34a72.47,72.47,0,1,1,111.35-61.16Z"/><path class="cls-2" d="M682.77,300.32a72.17,72.17,0,0,1-33.62,61.19l-.46.28-.47.29-.55.34-.26.15-.83.5-1,.58-.82.45c-.21.13-.48.26-.75.41l-.29.15-.57.29c-.14.07-.28.15-.43.21l-.42.26-.31.11-.18.08-.57.28-.87.4-1,.43-1.08.47s-.53.22-.74.29l-1,.39-.72.27-.53.21-1.06.37-.31.11c-.33.11-.66.23-1,.33l-.59.2-.51.16c-.23.08-.47.14-.7.21l-.58.18-1.18.33-1.22.32c-.58.15-1.17.29-1.76.42l-.8.18-.14,0-1,.21c-.49.1-1,.19-1.46.26l-.47.09-.68.11-1.07.17-.56.07-1,.13-.83.1-.32,0-.34,0h-.06c-.63.07-1.31.13-2.11.19-1.78.13-3.56.19-5.32.19s-3.54-.06-5.3-.19l-2.09-.18h-.32l-.4-.07h-.06l-.75-.09-.84-.12-.18,0-.56-.07-1.07-.17-.69-.11-.47-.09c-.48-.08-1-.16-1.43-.26l-.85-.18-.16,0-.15,0-.79-.18c-.56-.12-1.17-.26-1.77-.42l-1.21-.32-1.19-.33-.58-.18-.72-.22-1-.33-1.07-.36-.27-.1-1.06-.37-.54-.21-.76-.29c-.28-.1-.6-.23-.92-.37l-.69-.28c-.42-.17-.8-.34-1.18-.51l-.85-.37-.92-.43-.58-.28-.17-.08-.32-.1-.42-.27c-.14-.06-1.29-.65-1.29-.65l-.53-.28a88.29,88.29,0,0,0-30.65-31.45,72.48,72.48,0,1,1,137.3-32.46Z"/><path class="cls-2" d="M572.54,407.69c0,.78,0,1.56,0,2.34,0,.38,0,.77,0,1.16,0,.22,0,.44,0,.65s0,.53,0,.79c0,.43-.06.85-.1,1.27s-.06.78-.1,1.17,0,.49-.08.74-.08.73-.13,1.1c0,0,0,.1,0,.15,0,.34-.09.67-.13,1a.43.43,0,0,1,0,.12c0,.34-.1.68-.16,1s-.07.47-.11.7l-.21,1.2-.12.61a1.42,1.42,0,0,1,0,.2c0,.22-.09.44-.13.65-.08.39-.16.77-.25,1.15s-.16.71-.25,1.07l-.27,1.11c-.1.37-.19.73-.29,1.09-.21.73-.41,1.45-.64,2.18-.1.35-.22.72-.34,1.07s-.23.71-.36,1.07q-.32.93-.66,1.86c-.16.44-.33.88-.51,1.31-.08.24-.18.46-.27.69-.19.47-.39.93-.58,1.4l-.12.25c-.26.61-.54,1.2-.82,1.8-.16.34-.31.67-.48,1-.83,1.68-1.71,3.33-2.67,4.95-.38.64-.77,1.28-1.17,1.91s-.65,1-1,1.51c-.16.26-.34.51-.5.76-.34.49-.69,1-1,1.46l-.67.91c-.68.9-1.37,1.79-2.09,2.66-.25.28-.49.58-.73.87l-.77.88c-.24.28-.48.55-.73.81l-.77.84c-.51.55-1,1.09-1.58,1.63s-1.08,1.06-1.63,1.59l-1.69,1.54c-.57.5-1.15,1-1.74,1.48s-1.19,1-1.8,1.45-1.23.93-1.85,1.39q-1.87,1.37-3.84,2.62l-.32.19-.16.1-.09.06-.12.07-.15.1,0,0h0l-.56.35-.26.15-.77.45,0,0,0,0h0l-.06,0-1,.54-.76.42-.75.4-.08,0-.11.06-.6.3a.7.7,0,0,1-.14.08l-.08,0-.06,0-.79.48-.6.21-.25.12-.28.13-.48.22-.16.07-.49.22h0l-.51.23h0l-1.06.46s-.47.19-.7.28l-1,.41-.26.1-.19.07,0,0-.1,0-.08,0-.22.08-.35.13-.79.28h0l-.23.08-.3.1c-.34.12-.69.25-1,.36l-.52.17-.52.16-.77.24-.56.16-1.16.33-1.21.32-1.67.4-.12,0-.68.15-.11,0-1.12.23-.74.14L513,479l-.13,0-.52.09-.62.11-1.11.17-.64.09-.82.1-.7.09-.2,0h-.09l-.83.1h-.14c-.53.06-1.1.1-1.75.15-1.78.13-3.56.19-5.32.19-.54,0-1.07,0-1.61,0l-1.48,0h-.42l-.46,0-1.32-.09h-.24l-.69-.06-.42,0-.4,0h-.6l-.73-.13-.57-.07-.12,0-.58-.08-.25,0H490l-.11,0a1.45,1.45,0,0,1-.25,0h-.08l-1.14-.18-.28,0-.31-.06-.54-.09-1.41-.26-.08,0h-.09l-.48-.1h-.06l-.13,0-.21,0-.15,0h0l-.35-.08-.18,0-.18,0-.11,0h-.05l-.66-.16-.14,0-.71-.18-.13,0-1.14-.3-.06,0-.1,0-1.08-.3-.54-.16-.84-.26-.68-.22-.23-.08-.82-.27h0l-.26-.09-.32-.11-1-.37-.57-.21-.35-.14-.14-.05h0l-.1,0-.11,0-.09,0-.14-.06-.18-.07h0l-.06,0-.46-.19h0l-.2-.08-.08,0-.12-.05-.23-.09-1.19-.52-.43-.18-.41-.19h0l-.05,0-.13-.06-.29-.13-.14-.07-.23-.11-.42-.19-.61-.21-.79-.48,0,0-.32-.16-.21-.1-.21-.12a1.47,1.47,0,0,1-.25-.12h0l-.44-.24-.17-.09-.17-.09,0,0-.11-.06-.23-.13a.41.41,0,0,1-.13-.08l-.2-.1-.12-.07c-.29-.15-.68-.38-1.07-.61L463,470l-.37-.22-.85-.52-.64-.4c-.45-.29-.9-.58-1.35-.89s-1-.69-1.54-1.05-.94-.67-1.4-1-.71-.53-1.06-.8l-.32-.24c-.59-.47-1.18-.94-1.75-1.41l0,0a.69.69,0,0,0-.13-.11c-.53-.45-1.06-.9-1.57-1.35l0,0c-.84-.75-1.67-1.52-2.47-2.3l0,0-.78-.78-.2-.2c-.2-.19-.41-.4-.59-.61s-.29-.29-.43-.44c-.38-.4-.76-.8-1.13-1.21l0,0-1.47-1.68,0,0c-.49-.58-1-1.15-1.43-1.73l-.06-.07c-.22-.27-.42-.54-.62-.81s-.4-.51-.6-.77-.53-.72-.79-1.08l-.51-.72c-.26-.36-.51-.71-.75-1.08l-.62-.93h0c-.21-.31-.41-.62-.59-.93l-.38-.61-.22-.35c-.4-.64-.78-1.29-1.15-1.94-.19-.32-.37-.65-.54-1s-.29-.53-.43-.79a.34.34,0,0,1-.06-.12.25.25,0,0,1,0-.09c-.12-.21-.24-.43-.35-.65s-.19-.36-.28-.54-.27-.54-.39-.8c-.26-.53-.51-1.05-.75-1.58,0,0,0-.08-.06-.11-.09-.21-.19-.41-.28-.62l0-.1c-.25-.56-.49-1.12-.73-1.69h0c-.43-1-.83-2.08-1.21-3.14h0c-.12-.35-.25-.7-.36-1.06l-.36-1.07-.18-.54c-.05-.18-.1-.36-.16-.54-.11-.36-.22-.72-.32-1.08s-.21-.73-.31-1.09-.2-.73-.29-1.09-.19-.74-.27-1.11-.18-.73-.26-1.11-.17-.74-.24-1.11-.16-.74-.23-1.11-.14-.75-.2-1.12c-.13-.75-.25-1.51-.36-2.27-.05-.38-.11-.75-.15-1.13s-.08-.58-.11-.87l-.06-.56-.12-1.19c-.12-1.31-.2-2.64-.24-4,0-.45,0-.89,0-1.33s0-.88,0-1.32,0-1.15,0-1.74c0-.25,0-.5,0-.76l0-.76c0-.3,0-.6.05-.9a3.59,3.59,0,0,1,0-.47c0-.26,0-.52.05-.79s0-.35,0-.53.05-.63.08-.95.05-.44.07-.66.07-.7.12-1.06c0-.2.05-.4.08-.6a1.36,1.36,0,0,1,0-.2c0-.2,0-.4.07-.59a1.92,1.92,0,0,0,0-.22l.05-.31,0-.19c0-.34.1-.68.16-1s.12-.72.18-1.08c.11-.59.22-1.18.34-1.76s.19-.89.29-1.34a.22.22,0,0,0,0-.08l.15-.6c.07-.31.14-.62.22-.91l0-.08c.05-.24.11-.47.18-.7a.53.53,0,0,0,0-.12c.09-.37.19-.74.31-1.12s.12-.47.2-.71.2-.72.32-1.07.13-.47.22-.69l0-.07a5.58,5.58,0,0,1,.18-.58c.06-.19.13-.37.19-.56.44-1.31.93-2.6,1.44-3.87.21-.51.41-1,.63-1.5s.43-1,.66-1.5a2.14,2.14,0,0,0,.1-.22l0-.05.29-.63c.22-.46.44-.91.67-1.37l.06-.12a.4.4,0,0,1,.07-.13c.11-.24.23-.47.35-.7.65-1.26,1.34-2.49,2.07-3.7l.49-.81c.47-.78,1-1.55,1.47-2.3l.46-.68c.59-.86,1.19-1.7,1.81-2.53.35-.47.7-.93,1.06-1.39l.85-1.05c.31-.39.63-.76.95-1.14l0,0,.67-.77c.62-.71,1.26-1.41,1.91-2.1l.69-.71,1.12-1.13a.65.65,0,0,1,.12-.11l1-1c.3-.28.61-.57.93-.85s.57-.52.87-.78.46-.41.69-.61c.79-.68,1.6-1.34,2.42-2,.45-.37.92-.72,1.39-1.06s.93-.7,1.4-1,.78-.56,1.19-.83a0,0,0,0,1,0,0l.61-.4c1.32-.89,2.69-1.74,4.07-2.53.51-.3,1-.59,1.53-.86l1.37-.73.72-.36c1.8-.92,3.66-1.75,5.55-2.5l.83-.32c1-.4,2-.76,3-1.1l1.5-.49c.57-.17,1.13-.35,1.71-.5s1.08-.31,1.61-.44l1.5-.38.83-.18c1-.24,2-.44,3.06-.63l1.21-.2.24,0,.95-.14c.85-.13,1.7-.24,2.57-.33l1.07-.1c.93-.09,1.87-.16,2.82-.22l.71,0c.34,0,.67,0,1,0s.46,0,.69,0h3.09l.69,0,1,0,.71,0c1,.06,1.89.13,2.82.22l1.08.1c.86.09,1.72.2,2.56.33l.95.14.24,0,1.21.2c2,.35,3.9.78,5.8,1.3q.6.15,1.2.33a71.25,71.25,0,0,1,8,2.77l.68.29c.83.35,1.64.72,2.45,1.11.33.15.67.31,1,.48l1.3.65c1,.5,1.91,1,2.85,1.56.4.22.79.45,1.18.69l.65.39c.69.42,1.37.86,2,1.32.22.14.44.28.66.44.45.3.9.61,1.34.93s.94.68,1.41,1c.66.49,1.31,1,2,1.52l1.32,1.08.06.05c.56.48,1.12,1,1.67,1.46.31.27.61.55.91.83l.9.84c.3.28.59.57.88.87s.58.58.86.88.55.56.82.84c.57.61,1.14,1.23,1.7,1.87.27.3.53.61.8.93.82.95,1.61,1.94,2.37,2.94l.69.91c.25.34.5.67.73,1s.47.67.71,1l.6.89.28.41,1,1.48c.28.46.56.92.83,1.38s.43.71.63,1.08l.57,1,.47.87.28.53c.13.27.26.53.4.8,0,0,0,0,0,.07a.37.37,0,0,1,0,.11l.07.14.09.18c.2.39.39.79.58,1.19.07.15.15.3.22.46.2.44.4.89.59,1.33.09.19.18.38.25.57s.25.58.37.87a5.25,5.25,0,0,1,.22.55c.08.18.15.36.22.54.44,1.1.84,2.21,1.22,3.33.07.19.13.39.2.58v0c.09.28.18.56.26.84l.12.34c0,.15.09.3.13.44l.27.91s0,.05,0,.07.07.23.1.34c.14.46.27.93.38,1.4a4.21,4.21,0,0,1,.12.48l.09.35c.07.26.14.53.2.79a.83.83,0,0,0,0,.15c0,.19.08.37.13.57.22,1,.43,2.06.62,3.1v0c.11.6.21,1.2.31,1.8.07.44.13.88.19,1.33,0,.14,0,.29.06.45v0l.15,1.3c0,.11,0,.23,0,.34s0,.44.06.66l.06.67.06.67c0,.4.06.81.08,1.22,0,.06,0,.12,0,.18,0,.3,0,.6,0,.9s0,.51,0,.76,0,.51,0,.76C572.53,406.54,572.54,407.11,572.54,407.69Z"/><path class="cls-3" d="M989.71,356.35a35.15,35.15,0,0,0-49.7,0l-21.37,21.37a423.87,423.87,0,0,0-12.17-65.8A420.61,420.61,0,0,0,135.73,210.45a35.14,35.14,0,0,0,60.87,35.14C293.21,78.25,508,20.71,675.31,117.33c96.94,56,157,151.59,171.64,254.67L831.3,356.35a35.14,35.14,0,0,0-49.7,49.7l79.2,79.21a35.14,35.14,0,0,0,24.85,10.29h0a35.14,35.14,0,0,0,24.85-10.29l79.21-79.21A35.15,35.15,0,0,0,989.71,356.35Z"/><path class="cls-3" d="M851.4,583.8a35.14,35.14,0,0,0-48,12.86C706.79,764,492,821.54,324.69,724.93c-96.94-56-157-151.6-171.64-254.68L168.7,485.9a35.14,35.14,0,0,0,49.7-49.7L139.2,357a35.15,35.15,0,0,0-24.85-10.3h0A35.14,35.14,0,0,0,89.5,357L10.29,436.2A35.14,35.14,0,0,0,60,485.9l21.37-21.37a424,424,0,0,0,12.17,65.81A420.62,420.62,0,0,0,864.27,631.8,35.15,35.15,0,0,0,851.4,583.8Z"/></g></g></svg>