<svg xmlns="http://www.w3.org/2000/svg" viewBox="0 0 1000 861.08"><defs><style>.cls-1{fill:#5b99f5;}.cls-2{fill:#e1eaf1;}</style></defs><title>Heartbeat</title><g id="Layer_2" data-name="Layer 2"><g id="Layer_26" data-name="Layer 26"><g id="Heartbeat"><path class="cls-1" d="M1000,274.12a275.21,275.21,0,0,1-61.63,176.27h0L907,483.21l-330,345a106.5,106.5,0,0,1-153.91,0l-330-345L61.64,450.4h0A275.3,275.3,0,0,1,0,274.12C1.23,121.66,126.88-1.58,279.34,0A275.94,275.94,0,0,1,500,113.9h0A275.92,275.92,0,0,1,720.66,0C873.12-1.57,998.76,121.66,1000,274.12Z"/><path class="cls-2" d="M548.8,626.5c-1.28,0-2.57,0-3.86-.13a56.45,56.45,0,0,1-52.36-48l-45-290.29L396.72,421.34a30,30,0,0,1-28,19.31h-70a30,30,0,1,1,0-60H348l47.8-125.27A56.78,56.78,0,0,1,505,266.92L549.66,555l44.91-152.78a30,30,0,0,1,28.78-21.54h78a30,30,0,0,1,0,60H645.8L603.16,585.73A56.44,56.44,0,0,1,548.8,626.5Z"/></g></g></g></svg>