<svg xmlns="http://www.w3.org/2000/svg" viewBox="0 0 1000 1000"><defs><style>.cls-1{fill:#5b99f5;}.cls-2{fill:#48575e;}.cls-3{fill:#e1eaf1;}</style></defs><title>Globe</title><g id="Layer_2" data-name="Layer 2"><g id="Layer_26" data-name="Layer 26"><g id="Globe"><path class="cls-1" d="M1000,500q0,22.26-1.92,44.06c-.06.71-.12,1.41-.2,2.12l-1.46-2a324.13,324.13,0,0,0-30.94-35.78q-9.48-9.48-19.62-18.08a322.47,322.47,0,0,0-436.77,18.08,325.36,325.36,0,0,0-29,33.23,319.78,319.78,0,0,0-23,34.68,322.52,322.52,0,0,0,52,388.48q8.45,8.45,17.41,16.19,10.23,8.85,21.1,16.76-10.64,1-21.38,1.57-13,.67-26.22.67C223.86,1000,0,776.14,0,500A499.84,499.84,0,0,1,500,0q13.68,0,27.16.73A499.62,499.62,0,0,1,1000,500Z"/><path class="cls-2" d="M480.07,541.65a319.78,319.78,0,0,0-23,34.68C435.36,561.72,405.63,548.61,365,537c-79.36-22.67-113.38-36.84-171.49-70.85S168,391,146.69,291.8c-9-42-27.38-72.29-45.6-93.28A502.33,502.33,0,0,1,242.46,71.36C253.06,84.8,268,99,284,112.52c34.35,28.94,56.93,30.92,90.3,18.16s48.1-36.31,73.62,5.89,60.84,38.28,95.83,37.3,34.71,51,24.89,84.4-48.1,33.38-55,70.68S483.25,373.11,443,392.74s-39.25,33.37-33.71,67.72S467.55,488,475.4,523.28C476.81,529.64,478.26,535.78,480.07,541.65Z"/><path class="cls-2" d="M526.5,981q10.23,8.85,21.1,16.76-10.64,1-21.38,1.57C526.2,993.3,526.3,987.17,526.5,981Z"/><path class="cls-2" d="M527.16.73A498,498,0,0,1,837.63,131.22c-17.12,26.39-28.13,16.45-59.85,10.9-40.09-7-39.09,10-54.12,19s-44.09-9-79.16-60.13S594.39,72,559.31,62C535.67,55.19,532.61,25.17,527.16.73Z"/><path class="cls-2" d="M1000,500q0,22.26-1.92,44.06l-1.66.14a324.13,324.13,0,0,0-30.94-35.78q-9.48-9.48-19.62-18.08c-.09-.83-.19-1.67-.3-2.51-5-39.47-7-40.15-32.84-65S888,359.62,935.29,322.93a261.41,261.41,0,0,0,24.08-20.65A498.14,498.14,0,0,1,1000,500Z"/><path class="cls-2" d="M1000,736.61c0,145.1-117.62,262.72-262.72,262.72a262.72,262.72,0,1,1,0-525.43c110.13,0,204.43,67.76,243.49,163.86A261.94,261.94,0,0,1,1000,736.61Z"/><path class="cls-2" d="M1000,736.61c0,145.1-117.62,262.72-262.72,262.72a262.72,262.72,0,1,1,0-525.43c110.13,0,204.43,67.76,243.49,163.86A261.94,261.94,0,0,1,1000,736.61Z"/><path class="cls-3" d="M880.22,688.93,767.07,575.79a.52.52,0,0,0-.11-.1c-.68-.68-1.39-1.33-2.11-2l-.23-.19c-.71-.61-1.45-1.2-2.2-1.76l-.28-.21c-.74-.53-1.49-1.05-2.27-1.54l-.33-.22c-.76-.47-1.53-.91-2.32-1.34l-.4-.21c-.78-.4-1.56-.79-2.37-1.15l-.43-.18c-.21-.09-.41-.19-.62-.27s-.61-.23-.92-.34c-.53-.21-1.05-.41-1.58-.59l-1.44-.46-1.5-.43-1.56-.37c-.48-.1-.95-.21-1.43-.29s-1.08-.19-1.63-.27l-1.41-.18c-.55-.06-1.09-.11-1.64-.15l-1.44-.08c-.53,0-1.07,0-1.6,0s-1,0-1.49,0-1,0-1.55.09-1,.07-1.53.13l-1.51.2c-.52.08-1,.15-1.54.25s-1,.2-1.52.32-1,.22-1.48.35-1,.29-1.56.45l-1.39.43c-.54.19-1.08.4-1.62.61l-.9.33-.6.26-.46.2c-.79.36-1.58.74-2.34,1.14l-.42.22c-.78.42-1.55.86-2.3,1.33l-.35.22c-.77.49-1.53,1-2.26,1.54l-.28.21c-.76.56-1.49,1.15-2.21,1.75l-.22.2c-.73.63-1.43,1.28-2.11,2l-.12.1L594.35,688.93a42.13,42.13,0,1,0,59.58,59.58l41.22-41.22V867.63a42.13,42.13,0,0,0,84.26,0V707.29l41.23,41.22a42.13,42.13,0,1,0,59.58-59.58Z"/></g></g></g></svg>