<svg xmlns="http://www.w3.org/2000/svg" viewBox="0 0 1000 996.88"><defs><style>.cls-1{fill:#5b99f5;}.cls-2{fill:#48575e;}.cls-3{fill:#e1eaf1;}</style></defs><title>Supply Chain</title><g id="Layer_2" data-name="Layer 2"><g id="Layer_26" data-name="Layer 26"><g id="Supply_Chain" data-name="Supply Chain"><path class="cls-1" d="M1000,502.78A180.08,180.08,0,0,1,819.91,682.87c-1.21,0-2.42,0-3.62,0a180.08,180.08,0,0,1,0-360.09c1.2,0,2.41,0,3.62,0C919.37,322.7,1000,403.33,1000,502.78Z"/><path class="cls-1" d="M360.19,502.78A180,180,0,0,1,183.72,682.83c-1.2,0-2.41,0-3.62,0A180.09,180.09,0,0,1,0,502.78C0,403.33,80.63,322.7,180.1,322.7c1.21,0,2.42,0,3.62,0a180,180,0,0,1,176.47,180Z"/><path class="cls-1" d="M680.09,180.09c0,2.13,0,4.26-.11,6.37a180.09,180.09,0,0,1-360,0c-.07-2.11-.11-4.24-.11-6.37A180.09,180.09,0,0,1,500,0C599.46,0,680.09,80.63,680.09,180.09Z"/><path class="cls-1" d="M680.09,816.79c0,.75,0,1.51,0,2.26a180.09,180.09,0,0,1-360.16,0c0-.75,0-1.51,0-2.26a180.09,180.09,0,1,1,360.18,0Z"/><path class="cls-2" d="M582.06,209.62v44a17.86,17.86,0,0,1-17.87,17.87H435.82a17.87,17.87,0,0,1-17.88-17.87v-44a17.9,17.9,0,0,1,12.59-17.08c.5-.16,1-.28,1.51-.4a18.09,18.09,0,0,1,3.78-.4H564.19a17.72,17.72,0,0,1,5.28.8,14.64,14.64,0,0,1,1.49.54A17.86,17.86,0,0,1,582.06,209.62Z"/><path class="cls-3" d="M569.47,103.46v89.08a17.72,17.72,0,0,0-5.28-.8h-49V103.46A14.74,14.74,0,0,1,530,88.72h24.75A14.75,14.75,0,0,1,569.47,103.46Z"/><path class="cls-3" d="M484.75,102.35v89.39H435.82a18.09,18.09,0,0,0-3.78.4c-.52.12-1,.24-1.51.4V151.45Z"/><path class="cls-3" d="M616.7,800.21v31.85a26.56,26.56,0,0,1-26.56,26.56h-1.46a28.08,28.08,0,1,0-56.15,0H485.42v-85H590.14A26.56,26.56,0,0,1,616.7,800.21Z"/><path class="cls-3" d="M485.42,773.45v85.17H465.06a28.08,28.08,0,0,0-56.15,0,26.56,26.56,0,0,1-25.61-26.54v-26a26.5,26.5,0,0,1,6.09-16.91l26.95-32.63a26.57,26.57,0,0,1,20.47-9.63h22.05A26.56,26.56,0,0,1,485.42,773.45Z"/><circle class="cls-2" cx="560.61" cy="858.62" r="28.08" transform="translate(-403.84 1206.96) rotate(-76.72)"/><path class="cls-2" d="M465.06,858.62a28.08,28.08,0,0,1-56.15,0v0a28.08,28.08,0,0,1,56.15,0Z"/><rect class="cls-2" x="738.94" y="421.82" width="161.93" height="161.93" rx="30"/><path class="cls-3" d="M787.87,421.82H852a0,0,0,0,1,0,0v30.31a19.24,19.24,0,0,1-19.24,19.24h-25.6a19.24,19.24,0,0,1-19.24-19.24V421.82A0,0,0,0,1,787.87,421.82Z"/><path class="cls-3" d="M263.75,414.67l-21,49.57a2.66,2.66,0,0,1-2.64,1.62l-56-3.81a2.68,2.68,0,0,1-1.19-5L195,449.89a6.38,6.38,0,0,0,2.19-8.79l-11.39-18.76-8.49-14a24.66,24.66,0,0,0-21.1-11.87h59.26a24.51,24.51,0,0,1,21,11.79l4.31,7.09a6.38,6.38,0,0,0,8.7,2.17l10.46-6.22A2.67,2.67,0,0,1,263.75,414.67Z"/><path class="cls-3" d="M148.2,522.67,135.81,516a6.36,6.36,0,0,0-8.66,2.61L116.87,538h0l-7.66,14.45a27.1,27.1,0,0,0-2.87,12.18,25.09,25.09,0,0,0,1.71,8.43,25.43,25.43,0,0,0,1.77,3.59L79.47,525.7a24.56,24.56,0,0,1-.6-24.05l3.88-7.32a6.36,6.36,0,0,0-2.59-8.58l-10.7-5.81a2.67,2.67,0,0,1,.91-5l53.32-7.37a2.66,2.66,0,0,1,2.74,1.44l25.43,50.1A2.67,2.67,0,0,1,148.2,522.67Z"/><path class="cls-3" d="M288.44,525.72l-30.78,50.49a24.51,24.51,0,0,1-21,11.75h-8.29a6.37,6.37,0,0,0-6.38,6.29l-.14,12.18A2.67,2.67,0,0,1,217,608l-31.41-43.71a2.69,2.69,0,0,1,0-3.11l32.44-45.87a2.67,2.67,0,0,1,4.85,1.58l-.16,14.09a6.38,6.38,0,0,0,6.36,6.45l21.94,0h0l16.35,0a24.86,24.86,0,0,0,17.42-7.15A24.44,24.44,0,0,0,288.44,525.72Z"/><path class="cls-2" d="M185.82,422.34l-27.93,46a4.83,4.83,0,0,1-6.6,1.64l-35.17-20.89a4.83,4.83,0,0,1-1.66-6.66l20.68-34.05a24.68,24.68,0,0,1,42.19,0Z"/><path class="cls-2" d="M175.53,584.13a4.83,4.83,0,0,1-4.88,4.84l-39.84-.33a24.68,24.68,0,0,1-21-12,25.43,25.43,0,0,1-1.77-3.59,25.09,25.09,0,0,1-1.71-8.43,27.1,27.1,0,0,1,2.87-12.18L116.87,538l53.8.45a4.82,4.82,0,0,1,4.79,4.83Z"/><path class="cls-2" d="M288.51,525.61a.41.41,0,0,1-.07.11,24.44,24.44,0,0,1-3.62,4.57,24.86,24.86,0,0,1-17.42,7.15l-16.35,0-24.72-47.78a4.84,4.84,0,0,1,2-6.5L264.5,464a4.85,4.85,0,0,1,6.56,2l18.3,35.39A24.66,24.66,0,0,1,288.51,525.61Z"/><path class="cls-2" d="M816.29,682.83A365.62,365.62,0,0,1,680.08,819.05c0-.75,0-1.51,0-2.26a179.22,179.22,0,0,0-20-82.54A283.85,283.85,0,0,0,733,660.58,179.22,179.22,0,0,0,816.29,682.83Z"/><path class="cls-2" d="M319.91,816.79c0,.75,0,1.51,0,2.26a365.49,365.49,0,0,1-136.2-136.22A179.11,179.11,0,0,0,267,660.57a283.69,283.69,0,0,0,72.93,73.68A179.22,179.22,0,0,0,319.91,816.79Z"/><path class="cls-2" d="M343.35,269A283.61,283.61,0,0,0,267,345a179,179,0,0,0-83.25-22.26A365.53,365.53,0,0,1,320,186.46,179,179,0,0,0,343.35,269Z"/><path class="cls-2" d="M816.29,322.74A179.1,179.1,0,0,0,733,345a283.9,283.9,0,0,0-76.39-76A179,179,0,0,0,680,186.46,365.65,365.65,0,0,1,816.29,322.74Z"/></g></g></g></svg>