<svg xmlns="http://www.w3.org/2000/svg" viewBox="0 0 1000 492.18"><defs><style>.cls-1{fill:#5b99f5;}.cls-2{fill:#48575e;}</style></defs><title>Barbed Wire</title><g id="Layer_2" data-name="Layer 2"><g id="Layer_26" data-name="Layer 26"><g id="Barbed_Wire" data-name="Barbed Wire"><path class="cls-1" d="M455.11,445.69a39.37,39.37,0,0,1-34.75-20.78L223.73,58a39.38,39.38,0,1,1,69.42-37.2L489.78,387.7a39.38,39.38,0,0,1-34.67,58Z"/><path class="cls-1" d="M556.71,391.24A39.37,39.37,0,0,1,522,370.45L408.61,158.93A39.38,39.38,0,0,1,478,121.73L591.39,333.25a39.4,39.4,0,0,1-34.68,58Z"/><path class="cls-1" d="M741.6,492.18a39.39,39.39,0,0,1-34.75-20.79L510.22,104.48a39.38,39.38,0,1,1,69.42-37.21L776.28,434.19a39.4,39.4,0,0,1-34.68,58Z"/><path class="cls-1" d="M150.16,473a39.39,39.39,0,0,1-18.64-74.1l148.17-79.4A39.38,39.38,0,1,1,316.9,388.9L168.72,468.3A39.09,39.09,0,0,1,150.16,473Z"/><path class="cls-1" d="M701.74,177.38a39.39,39.39,0,0,1-18.64-74.1L831.28,23.87a39.38,39.38,0,0,1,37.2,69.43L720.31,172.7A39.13,39.13,0,0,1,701.74,177.38Z"/><path class="cls-2" d="M265.67,261.31l12.95,24.16H39.38a39.38,39.38,0,0,1,0-78.76h197Z"/><path class="cls-2" d="M1000,246.09a39.38,39.38,0,0,1-39.38,39.38h-197l-29.25-54.59-13-24.17H960.62A39.38,39.38,0,0,1,1000,246.09Z"/></g></g></g></svg>