<svg xmlns="http://www.w3.org/2000/svg" viewBox="0 0 1000 994.41"><defs><style>.cls-1{fill:#48575e;}.cls-2{fill:#5b99f5;}</style></defs><title>Early Education</title><g id="Layer_2" data-name="Layer 2"><g id="Layer_26" data-name="Layer 26"><g id="Early_Education" data-name="Early Education"><path class="cls-1" d="M957.5,911.12H927.21a0,0,0,0,1,0,0V42.5c0-23.37-19.12-43-42.48-42.49a41.65,41.65,0,0,0-40.81,41.63V71a0,0,0,0,1,0,0H156.14s0,0,0,0V41.64a41.65,41.65,0,0,0-83.29,0V911.08s0,0,0,0H42.5c-23.37,0-43,19.13-42.49,42.49a41.64,41.64,0,0,0,41.63,40.8H958.36a41.64,41.64,0,0,0,41.63-40.8C1000.46,930.25,980.87,911.12,957.5,911.12Zm-113.65,0H156.14a0,0,0,0,1,0,0V154.31a0,0,0,0,1,0,0H843.85s0,0,0,0V911.08S843.87,911.12,843.85,911.12Z"/><path class="cls-2" d="M227.24,299s0,0,0,0a74.91,74.91,0,0,0,0,41.56s0,0,0,0h-71.1s0,0,0,0V299s0,0,0,0Z"/><path class="cls-2" d="M370.2,340.65s-.05,0,0,0a74.27,74.27,0,0,0,2.94-20.78,74.27,74.27,0,0,0,2.95,20.78,0,0,0,0,1,0,0Z"/><path class="cls-2" d="M376,299a0,0,0,0,1,0,0,74.27,74.27,0,0,0-2.95,20.78,74.27,74.27,0,0,0-2.94-20.78s0,0,0,0Z"/><path class="cls-2" d="M843.88,299v41.58a0,0,0,0,1,0,0H519s0,0,0,0a74.91,74.91,0,0,0,0-41.56s0,0,0,0H843.85A0,0,0,0,1,843.88,299Z"/><path class="cls-1" d="M373.1,319.83a74.3,74.3,0,1,1-3-20.82A74.5,74.5,0,0,1,373.1,319.83Z"/><path class="cls-1" d="M521.88,319.83a74.34,74.34,0,1,1-3-20.82A74.14,74.14,0,0,1,521.88,319.83Z"/><path class="cls-2" d="M341.92,511.87a0,0,0,0,1,0,.05,74.87,74.87,0,0,0,0,41.55,0,0,0,0,1,0,0H156.14a0,0,0,0,1,0,0V511.91a0,0,0,0,1,0,0Z"/><path class="cls-2" d="M652.85,511.87s0,0,0,.05a74.87,74.87,0,0,0,0,41.55s0,0,0,0h-168a0,0,0,0,1,0,0,74.87,74.87,0,0,0,0-41.55,0,0,0,0,1,0-.05Z"/><path class="cls-2" d="M843.88,511.91v41.57s0,0,0,0H795.8a0,0,0,0,1,0,0,74.87,74.87,0,0,0,0-41.55,0,0,0,0,1,0-.05h48.05S843.88,511.89,843.88,511.91Z"/><path class="cls-1" d="M487.78,532.7a74.29,74.29,0,1,1-2.95-20.83A74.56,74.56,0,0,1,487.78,532.7Z"/><path class="cls-1" d="M798.71,532.7a74.33,74.33,0,1,1-3-20.83A74.19,74.19,0,0,1,798.71,532.7Z"/><path class="cls-2" d="M183.42,724.74a0,0,0,0,1,0,0,74.87,74.87,0,0,0,0,41.55s0,0,0,0H156.14s0,0,0,0V724.78a0,0,0,0,1,0,0Z"/><path class="cls-2" d="M506.68,724.74s0,0,0,0a74.63,74.63,0,0,0,0,41.55,0,0,0,0,1,0,0H326.37s0,0,0,0a74.87,74.87,0,0,0,0-41.55,0,0,0,0,1,0,0Z"/><path class="cls-2" d="M843.88,724.78v41.57a0,0,0,0,1,0,0H649.63s0,0,0,0a74.87,74.87,0,0,0,0-41.55,0,0,0,0,1,0,0H843.85S843.88,724.76,843.88,724.78Z"/><path class="cls-1" d="M329.28,745.56a74.3,74.3,0,1,1-2.95-20.82A74.5,74.5,0,0,1,329.28,745.56Z"/><path class="cls-1" d="M652.54,745.56a74.34,74.34,0,1,1-3-20.82A74.14,74.14,0,0,1,652.54,745.56Z"/></g></g></g></svg>