<svg xmlns="http://www.w3.org/2000/svg" viewBox="0 0 997.96 1000"><defs><style>.cls-1{fill:#5b99f5;}.cls-2{fill:#48575e;}.cls-3{fill:#e1eaf1;}</style></defs><title>Electrocardiogram</title><g id="Layer_2" data-name="Layer 2"><g id="Layer_26" data-name="Layer 26"><g id="Electrocardiogram"><rect class="cls-1" width="997.96" height="694.78" rx="104.92"/><rect class="cls-2" y="765.6" width="997.96" height="234.4" rx="105"/><rect class="cls-3" x="72.94" y="73.59" width="852.08" height="547.61" rx="52.43"/><circle class="cls-3" cx="229.96" cy="882.8" r="42.61"/><rect class="cls-3" x="376.85" y="840.19" width="433.76" height="85.23" rx="42.61"/><path class="cls-2" d="M532.51,489.87c-1.12,0-2.24,0-3.38-.12a49.42,49.42,0,0,1-45.85-42L459.51,294.53l-21.37,56a30,30,0,0,1-28,19.3h-47.4a30,30,0,0,1,0-60h26.73l27.82-72.89A49.72,49.72,0,0,1,512.86,247l22.66,146.1,18.16-61.77a30,30,0,0,1,28.78-21.54h52.78a30,30,0,0,1,0,60H604.91l-24.79,84.34A49.42,49.42,0,0,1,532.51,489.87Z"/></g></g></g></svg>