<svg xmlns="http://www.w3.org/2000/svg" viewBox="0 0 925.12 1000"><defs><style>.cls-1{fill:#48575e;}.cls-2{fill:#5b99f5;}</style></defs><title>X-Ray Image</title><g id="Layer_2" data-name="Layer 2"><g id="Layer_26" data-name="Layer 26"><g id="X-Ray_Image" data-name="X-Ray Image"><path class="cls-1" d="M394.21,370.38a20.45,20.45,0,0,1-10.34-2.79C290.62,313.32,251.58,269.6,261,230c5.88-24.69,29.78-42.59,71-53.2a311.51,311.51,0,0,1,52.85-8.48,20.59,20.59,0,1,1,2.46,41.1h0a272.86,272.86,0,0,0-45.58,7.39c-27.77,7.22-39.28,16.76-40.7,22.73-.69,2.9-3.62,30.09,103.52,92.44a20.59,20.59,0,0,1-10.37,38.38Z"/><path class="cls-1" d="M389.77,479.53a20.57,20.57,0,0,1-7.18-1.3c-2.22-.82-54.85-20.58-104.31-53.29-90.21-59.69-95.58-114-84.2-149.12a20.59,20.59,0,1,1,39.16,12.71c-12.64,39,29.87,77,67.76,102.07,45.56,30.14,95.45,48.86,95.95,49a20.59,20.59,0,0,1-7.18,39.88Z"/><path class="cls-1" d="M366.2,592.41a20.48,20.48,0,0,1-3.71-.34c-6.6-1.2-162.23-30.35-216.33-114.51-18.3-28.46-23.31-59.74-14.89-93a20.59,20.59,0,1,1,39.91,10.12c-5.58,22-2.44,41.85,9.61,60.59,18,28,56,53.44,110,73.65a519.24,519.24,0,0,0,79.11,22.62,20.59,20.59,0,0,1-3.66,40.84Z"/><path class="cls-1" d="M283.05,672.93c-37,0-76.94-6.07-108-26.18-29.15-18.87-46.73-47.08-52.24-83.84a20.58,20.58,0,1,1,40.71-6.11c3.74,24.9,14.81,43,33.85,55.35,60.95,39.53,178.41,7.51,179.59,7.18A20.59,20.59,0,0,1,388,659C384.74,659.91,337.17,672.93,283.05,672.93Z"/><path class="cls-1" d="M208.19,774.75a105.82,105.82,0,0,1-17.4-1.41c-29.17-4.85-53.8-21.56-73.21-49.67a20.59,20.59,0,0,1,33.88-23.4c13,18.85,28.08,29.46,46.08,32.45,34.46,5.73,68.8-18.81,69.14-19.06a20.58,20.58,0,0,1,24.49,33.09C289.44,748,252.76,774.75,208.19,774.75Z"/><path class="cls-1" d="M530.91,370.38a20.45,20.45,0,0,0,10.34-2.79c93.25-54.27,132.29-98,122.86-137.57-5.88-24.69-29.78-42.59-71-53.2a311.51,311.51,0,0,0-52.85-8.48,20.59,20.59,0,0,0-2.46,41.1h0a272.86,272.86,0,0,1,45.58,7.39c27.77,7.22,39.28,16.76,40.7,22.73.69,2.9,3.62,30.09-103.52,92.44a20.59,20.59,0,0,0,10.37,38.38Z"/><path class="cls-1" d="M535.35,479.53a20.57,20.57,0,0,0,7.18-1.3c2.22-.82,54.85-20.58,104.31-53.29,90.21-59.69,95.58-114,84.2-149.12a20.59,20.59,0,1,0-39.16,12.71c12.64,39-29.87,77-67.76,102.07-45.56,30.14-95.45,48.86-96,49a20.59,20.59,0,0,0,7.18,39.88Z"/><path class="cls-1" d="M558.92,592.41a20.48,20.48,0,0,0,3.71-.34c6.6-1.2,162.23-30.35,216.33-114.51,18.3-28.46,23.31-59.74,14.89-93a20.59,20.59,0,1,0-39.91,10.12c5.58,22,2.44,41.85-9.61,60.59-18,28-56,53.44-110,73.65a519.24,519.24,0,0,1-79.11,22.62,20.59,20.59,0,0,0,3.66,40.84Z"/><path class="cls-1" d="M642.07,672.93c36.95,0,76.94-6.07,108-26.18,29.15-18.87,46.73-47.08,52.24-83.84a20.58,20.58,0,0,0-40.71-6.11c-3.74,24.9-14.81,43-33.85,55.35-61,39.53-178.41,7.51-179.59,7.18A20.59,20.59,0,0,0,537.09,659C540.38,659.91,588,672.93,642.07,672.93Z"/><path class="cls-1" d="M716.93,774.75a105.82,105.82,0,0,0,17.4-1.41c29.17-4.85,53.8-21.56,73.21-49.67a20.59,20.59,0,1,0-33.88-23.4c-13,18.85-28.08,29.46-46.08,32.45-34.46,5.73-68.8-18.81-69.14-19.06A20.58,20.58,0,0,0,634,746.75C635.68,748,672.36,774.75,716.93,774.75Z"/><path class="cls-1" d="M462.56,600.68A20.59,20.59,0,0,1,442,580.09V324.37a20.59,20.59,0,0,1,41.18,0V580.09A20.59,20.59,0,0,1,462.56,600.68Z"/><circle class="cls-1" cx="462.56" cy="147.72" r="20.59"/><circle class="cls-1" cx="462.56" cy="682.07" r="20.59"/><circle class="cls-1" cx="462.56" cy="753.65" r="20.59"/><path class="cls-2" d="M238.17,960h0a40,40,0,0,1-40,40H157.68C70.73,1000,0,929.27,0,842.33v-40.5a40,40,0,0,1,40-40h0a40,40,0,0,1,40,40v40.5A77.66,77.66,0,0,0,157.67,920h40.5A40,40,0,0,1,238.17,960Z"/><path class="cls-2" d="M885.12,761.83a40,40,0,0,1,40,40v40.5c0,86.94-70.73,157.67-157.68,157.67H727a40,40,0,0,1-40-40h0a40,40,0,0,1,40-40h40.49a77.68,77.68,0,0,0,77.68-77.68V801.83a40,40,0,0,1,40-40Z"/><path class="cls-2" d="M238.17,40h0a40,40,0,0,1-40,40H157.68A77.68,77.68,0,0,0,80,157.68v40.49a40,40,0,0,1-40,40h0a40,40,0,0,1-40-40v-40.5C0,70.73,70.73,0,157.68,0h40.49A40,40,0,0,1,238.17,40Z"/><path class="cls-2" d="M925.12,157.67v40.5a40,40,0,0,1-40,40h0a40,40,0,0,1-40-40v-40.5A77.66,77.66,0,0,0,767.45,80H727a40,40,0,0,1-40-40h0A40,40,0,0,1,727,0h40.49C854.39,0,925.12,70.73,925.12,157.67Z"/></g></g></g></svg>