<?xml version="1.0" encoding="UTF-8" standalone="no"?>
<svg
   width="128"
   height="128"
   viewBox="0 0 33.866666 33.866668"
   version="1.1"
   id="svg1443"
   inkscape:version="1.1.2 (0a00cf5339, 2022-02-04)"
   sodipodi:docname="3540_XVIIx86.0.svg"
   xmlns:inkscape="http://www.inkscape.org/namespaces/inkscape"
   xmlns:sodipodi="http://sodipodi.sourceforge.net/DTD/sodipodi-0.dtd"
   xmlns:xlink="http://www.w3.org/1999/xlink"
   xmlns="http://www.w3.org/2000/svg"
   xmlns:svg="http://www.w3.org/2000/svg"
   xmlns:rdf="http://www.w3.org/1999/02/22-rdf-syntax-ns#"
   xmlns:cc="http://creativecommons.org/ns#"
   xmlns:dc="http://purl.org/dc/elements/1.1/">
  <defs
     id="defs1437">
    <linearGradient
       inkscape:collect="always"
       id="linearGradient884">
      <stop
         style="stop-color:#ffffff;stop-opacity:1;"
         offset="0"
         id="stop880" />
      <stop
         style="stop-color:#e9c1fb;stop-opacity:1"
         offset="1"
         id="stop882" />
    </linearGradient>
    <linearGradient
       id="linearGradient1630"
       inkscape:collect="always">
      <stop
         id="stop1626"
         offset="0"
         style="stop-color:#ff53f9;stop-opacity:1" />
      <stop
         id="stop1628"
         offset="1"
         style="stop-color:#8400ea;stop-opacity:1" />
    </linearGradient>
    <filter
       color-interpolation-filters="sRGB"
       height="1.1311001"
       width="1.1106"
       y="-0.065563001"
       x="-0.055319"
       id="c-9">
      <feGaussianBlur
         id="feGaussianBlur1093"
         stdDeviation="1.1062912" />
    </filter>
    <linearGradient
       gradientUnits="userSpaceOnUse"
       gradientTransform="matrix(0.13235,0,0,0.13075,-32.379,1.0873)"
       y2="269.48999"
       y1="235.14999"
       x2="657.65002"
       x1="319.20999"
       id="a-12">
      <stop
         id="stop1076"
         offset="0"
         stop-color="#e54c18" />
      <stop
         id="stop1078"
         offset="1"
         stop-color="#fec350" />
    </linearGradient>
    <radialGradient
       inkscape:collect="always"
       xlink:href="#linearGradient1630"
       id="radialGradient948"
       cx="16.951138"
       cy="6.0443439"
       fx="16.951138"
       fy="6.0443439"
       r="14.543719"
       gradientUnits="userSpaceOnUse"
       gradientTransform="matrix(3.1335146,0,0,1.987443,-36.165498,-5.9684452)" />
    <linearGradient
       inkscape:collect="always"
       xlink:href="#linearGradient884"
       id="linearGradient886"
       x1="13.364421"
       y1="13.92075"
       x2="13.364421"
       y2="24.14933"
       gradientUnits="userSpaceOnUse"
       gradientTransform="scale(3.7795276)" />
  </defs>
  <sodipodi:namedview
     id="base"
     pagecolor="#ffffff"
     bordercolor="#666666"
     borderopacity="1.0"
     inkscape:pageopacity="0.0"
     inkscape:pageshadow="2"
     inkscape:zoom="2.8"
     inkscape:cx="28.571429"
     inkscape:cy="86.964286"
     inkscape:document-units="mm"
     inkscape:current-layer="layer1"
     inkscape:document-rotation="0"
     showgrid="false"
     units="px"
     inkscape:window-width="1920"
     inkscape:window-height="1022"
     inkscape:window-x="0"
     inkscape:window-y="32"
     inkscape:window-maximized="1"
     inkscape:pagecheckerboard="0" />
  <metadata
     id="metadata1440">
    <rdf:RDF>
      <cc:Work
         rdf:about="">
        <dc:format>image/svg+xml</dc:format>
        <dc:type
           rdf:resource="http://purl.org/dc/dcmitype/StillImage" />
      </cc:Work>
    </rdf:RDF>
  </metadata>
  <g
     inkscape:label="Capa 1"
     inkscape:groupmode="layer"
     id="layer1">
    <g
       style="opacity:0.18753551"
       transform="matrix(0.97573206,0,0,0.96360993,-65.737228,-36.327649)"
       id="g1702">
      <rect
         ry="6.6098609"
         rx="6.6098609"
         y="40.709618"
         x="69.839508"
         height="29.810888"
         width="29.810888"
         id="rect1634"
         style="fill:none;fill-opacity:1;stroke:#000000;stroke-width:0.1;stroke-linecap:round;stroke-linejoin:round;stroke-miterlimit:4;stroke-dasharray:none;stroke-opacity:0.02" />
      <rect
         style="fill:none;fill-opacity:1;stroke:#000000;stroke-width:0.2;stroke-linecap:round;stroke-linejoin:round;stroke-miterlimit:4;stroke-dasharray:none;stroke-opacity:0.02"
         id="rect1638"
         width="29.810888"
         height="29.810888"
         x="69.839508"
         y="40.709618"
         rx="6.6098609"
         ry="6.6098609" />
      <rect
         ry="6.6098609"
         rx="6.6098609"
         y="40.709618"
         x="69.839508"
         height="29.810888"
         width="29.810888"
         id="rect1640"
         style="fill:none;fill-opacity:1;stroke:#000000;stroke-width:0.3;stroke-linecap:round;stroke-linejoin:round;stroke-miterlimit:4;stroke-dasharray:none;stroke-opacity:0.02" />
      <rect
         style="fill:none;fill-opacity:1;stroke:#000000;stroke-width:0.4;stroke-linecap:round;stroke-linejoin:round;stroke-miterlimit:4;stroke-dasharray:none;stroke-opacity:0.02"
         id="rect1642"
         width="29.810888"
         height="29.810888"
         x="69.839508"
         y="40.709618"
         rx="6.6098609"
         ry="6.6098609" />
      <rect
         ry="6.6098609"
         rx="6.6098609"
         y="40.709618"
         x="69.839508"
         height="29.810888"
         width="29.810888"
         id="rect1644"
         style="fill:none;fill-opacity:1;stroke:#000000;stroke-width:0.5;stroke-linecap:round;stroke-linejoin:round;stroke-miterlimit:4;stroke-dasharray:none;stroke-opacity:0.02" />
      <rect
         style="fill:none;fill-opacity:1;stroke:#000000;stroke-width:0.6;stroke-linecap:round;stroke-linejoin:round;stroke-miterlimit:4;stroke-dasharray:none;stroke-opacity:0.02"
         id="rect1646"
         width="29.810888"
         height="29.810888"
         x="69.839508"
         y="40.709618"
         rx="6.6098609"
         ry="6.6098609" />
      <rect
         ry="6.6098609"
         rx="6.6098609"
         y="40.709618"
         x="69.839508"
         height="29.810888"
         width="29.810888"
         id="rect1648"
         style="fill:none;fill-opacity:1;stroke:#000000;stroke-width:0.7;stroke-linecap:round;stroke-linejoin:round;stroke-miterlimit:4;stroke-dasharray:none;stroke-opacity:0.02" />
      <rect
         style="fill:none;fill-opacity:1;stroke:#000000;stroke-width:0.8;stroke-linecap:round;stroke-linejoin:round;stroke-miterlimit:4;stroke-dasharray:none;stroke-opacity:0.02"
         id="rect1650"
         width="29.810888"
         height="29.810888"
         x="69.839508"
         y="40.709618"
         rx="6.6098609"
         ry="6.6098609" />
      <rect
         ry="6.6098609"
         rx="6.6098609"
         y="40.709618"
         x="69.839508"
         height="29.810888"
         width="29.810888"
         id="rect1652"
         style="fill:none;fill-opacity:1;stroke:#000000;stroke-width:1;stroke-linecap:round;stroke-linejoin:round;stroke-miterlimit:4;stroke-dasharray:none;stroke-opacity:0.02" />
      <rect
         style="fill:none;fill-opacity:1;stroke:#000000;stroke-width:1.2;stroke-linecap:round;stroke-linejoin:round;stroke-miterlimit:4;stroke-dasharray:none;stroke-opacity:0.02"
         id="rect1654"
         width="29.810888"
         height="29.810888"
         x="69.839508"
         y="40.709618"
         rx="6.6098609"
         ry="6.6098609" />
      <rect
         ry="6.6098609"
         rx="6.6098609"
         y="40.709618"
         x="69.839508"
         height="29.810888"
         width="29.810888"
         id="rect1656"
         style="fill:none;fill-opacity:1;stroke:#000000;stroke-width:1.4;stroke-linecap:round;stroke-linejoin:round;stroke-miterlimit:4;stroke-dasharray:none;stroke-opacity:0.02" />
      <rect
         style="fill:none;fill-opacity:1;stroke:#000000;stroke-width:1.6;stroke-linecap:round;stroke-linejoin:round;stroke-miterlimit:4;stroke-dasharray:none;stroke-opacity:0.02"
         id="rect1658"
         width="29.810888"
         height="29.810888"
         x="69.839508"
         y="40.709618"
         rx="6.6098609"
         ry="6.6098609" />
      <rect
         ry="6.6098609"
         rx="6.6098609"
         y="40.709618"
         x="69.839508"
         height="29.810888"
         width="29.810888"
         id="rect1660"
         style="fill:none;fill-opacity:1;stroke:#000000;stroke-width:1.8;stroke-linecap:round;stroke-linejoin:round;stroke-miterlimit:4;stroke-dasharray:none;stroke-opacity:0.02" />
      <rect
         style="fill:none;fill-opacity:1;stroke:#000000;stroke-width:2;stroke-linecap:round;stroke-linejoin:round;stroke-miterlimit:4;stroke-dasharray:none;stroke-opacity:0.02"
         id="rect1662"
         width="29.810888"
         height="29.810888"
         x="69.839508"
         y="40.709618"
         rx="6.6098609"
         ry="6.6098609" />
      <rect
         ry="6.6098609"
         rx="6.6098609"
         y="40.709618"
         x="69.839508"
         height="29.810888"
         width="29.810888"
         id="rect1664"
         style="fill:none;fill-opacity:1;stroke:#000000;stroke-width:2.2;stroke-linecap:round;stroke-linejoin:round;stroke-miterlimit:4;stroke-dasharray:none;stroke-opacity:0.02" />
      <rect
         style="fill:none;fill-opacity:1;stroke:#000000;stroke-width:2.6;stroke-linecap:round;stroke-linejoin:round;stroke-miterlimit:4;stroke-dasharray:none;stroke-opacity:0.02"
         id="rect1666"
         width="29.810888"
         height="29.810888"
         x="69.839508"
         y="40.709618"
         rx="6.6098609"
         ry="6.6098609" />
      <rect
         ry="6.6098609"
         rx="6.6098609"
         y="40.709618"
         x="69.839508"
         height="29.810888"
         width="29.810888"
         id="rect1668"
         style="fill:none;fill-opacity:1;stroke:#000000;stroke-width:3;stroke-linecap:round;stroke-linejoin:round;stroke-miterlimit:4;stroke-dasharray:none;stroke-opacity:0.02" />
      <rect
         style="fill:none;fill-opacity:1;stroke:#000000;stroke-width:3.4;stroke-linecap:round;stroke-linejoin:round;stroke-miterlimit:4;stroke-dasharray:none;stroke-opacity:0.02"
         id="rect1670"
         width="29.810888"
         height="29.810888"
         x="69.839508"
         y="40.709618"
         rx="6.6098609"
         ry="6.6098609" />
      <rect
         ry="6.6098609"
         rx="6.6098609"
         y="40.709618"
         x="69.839508"
         height="29.810888"
         width="29.810888"
         id="rect1672"
         style="fill:none;fill-opacity:1;stroke:#000000;stroke-width:3.8;stroke-linecap:round;stroke-linejoin:round;stroke-miterlimit:4;stroke-dasharray:none;stroke-opacity:0.02" />
      <rect
         style="fill:none;fill-opacity:1;stroke:#000000;stroke-width:4.2;stroke-linecap:round;stroke-linejoin:round;stroke-miterlimit:4;stroke-dasharray:none;stroke-opacity:0.02"
         id="rect1674"
         width="29.810888"
         height="29.810888"
         x="69.839508"
         y="40.709618"
         rx="6.6098609"
         ry="6.6098609" />
      <rect
         ry="6.6098609"
         rx="6.6098609"
         y="40.709618"
         x="69.839508"
         height="29.810888"
         width="29.810888"
         id="rect1676"
         style="fill:none;fill-opacity:1;stroke:#000000;stroke-width:4.6;stroke-linecap:round;stroke-linejoin:round;stroke-miterlimit:4;stroke-dasharray:none;stroke-opacity:0.02" />
      <rect
         style="fill:none;fill-opacity:1;stroke:#000000;stroke-width:5;stroke-linecap:round;stroke-linejoin:round;stroke-miterlimit:4;stroke-dasharray:none;stroke-opacity:0.02"
         id="rect1678"
         width="29.810888"
         height="29.810888"
         x="69.839508"
         y="40.709618"
         rx="6.6098609"
         ry="6.6098609" />
    </g>
    <rect
       ry="6.4494534"
       rx="6.4494534"
       y="2.5391712"
       x="2.4074187"
       height="29.087439"
       width="29.087439"
       id="rect849"
       style="fill:url(#radialGradient948);fill-opacity:1;stroke-width:2.68768;stroke-linecap:round;stroke-linejoin:round" />
    <g
       id="g2300"
       style="opacity:0.89149619">
      <path
         id="path2159"
         style="fill:#000000;fill-opacity:0.058467;stroke-width:0.264583"
         d="m 15.900726,12.672524 c -2.04361,-0.004 -3.68874,2.396872 -4.520138,5.011063 -0.94213,2.962327 -2.6346758,4.035051 -4.2204134,4.442623 l 10.6649814,5.17e-4 0.658874,-1.285193 -2.45618,-0.03049 c -2.160976,-0.184528 -2.591606,-2.316766 -2.466,-2.995683 0.207729,-1.332219 0.886477,-3.426302 2.338876,-5.142837 z m 0.787548,0 -0.658357,1.285193 2.455664,0.03049 c 2.160974,0.184528 2.591605,2.316763 2.465999,2.995683 -0.20773,1.332217 -0.886418,3.426304 -2.338875,5.142838 2.043849,0.0044 3.689187,-2.396651 4.520654,-5.011063 0.94213,-2.962324 2.634735,-4.035053 4.220415,-4.442623 z" />
      <path
         id="path2269"
         style="fill:#000000;fill-opacity:0.03003893;stroke-width:0.264583"
         d="m 16.186536,13.063685 c -2.04361,-0.004 -3.68874,2.396872 -4.520138,5.011063 -0.94213,2.962327 -2.6346757,4.035051 -4.2204133,4.442623 l 10.6649813,5.17e-4 0.658874,-1.285193 -2.45618,-0.03049 c -2.160976,-0.184528 -2.591606,-2.316766 -2.466,-2.995683 0.207729,-1.332219 0.886477,-3.426302 2.338876,-5.142837 z m 0.787548,0 -0.658357,1.285193 2.455664,0.03049 c 2.160974,0.184528 2.591605,2.316763 2.465999,2.995683 -0.20773,1.332217 -0.886418,3.426304 -2.338875,5.142838 2.043849,0.0044 3.689187,-2.396651 4.520654,-5.011063 0.94213,-2.962324 2.634735,-4.035053 4.220415,-4.442623 z" />
      <path
         id="path2289"
         style="fill:#000000;fill-opacity:0.0300389;stroke-width:0.264583"
         d="m 16.479557,13.611903 c -2.04361,-0.004 -3.68874,2.396872 -4.520138,5.011063 -0.94213,2.962327 -2.6346753,4.035051 -4.2204129,4.442623 l 10.6649809,5.17e-4 0.658874,-1.285193 -2.45618,-0.03049 c -2.160976,-0.184528 -2.591606,-2.316766 -2.466,-2.995683 0.207729,-1.332219 0.886477,-3.426302 2.338876,-5.142837 z m 0.787548,0 -0.658357,1.285193 2.455664,0.03049 c 2.160974,0.184528 2.591605,2.316763 2.465999,2.995683 -0.20773,1.332217 -0.886418,3.426304 -2.338875,5.142838 2.043849,0.0044 3.689187,-2.396651 4.520654,-5.011063 0.94213,-2.962324 2.634735,-4.035053 4.220415,-4.442623 z" />
      <path
         id="path2291"
         style="fill:#000000;fill-opacity:0.0300389;stroke-width:0.264583"
         d="m 16.695606,14.141855 c -2.04361,-0.004 -3.68874,2.396872 -4.520138,5.011063 -0.94213,2.962327 -2.634675,4.035051 -4.2204126,4.442623 l 10.6649806,5.17e-4 0.658874,-1.285193 -2.45618,-0.03049 c -2.160976,-0.184528 -2.591606,-2.316766 -2.466,-2.995683 0.207729,-1.332219 0.886477,-3.426302 2.338876,-5.142837 z m 0.787548,0 -0.658357,1.285193 2.455664,0.03049 c 2.160974,0.184528 2.591605,2.316763 2.465999,2.995683 -0.20773,1.332217 -0.886418,3.426304 -2.338875,5.142838 2.043849,0.0044 3.689187,-2.396651 4.520654,-5.011063 0.94213,-2.962324 2.634735,-4.035053 4.220415,-4.442623 z" />
      <path
         id="path2293"
         style="fill:#000000;fill-opacity:0.0300389;stroke-width:0.264583"
         d="m 17.097529,14.694623 c -2.04361,-0.004 -3.68874,2.396872 -4.520138,5.011063 -0.94213,2.962327 -2.6346752,4.035051 -4.2204128,4.442623 l 10.6649808,5.17e-4 0.658874,-1.285193 -2.45618,-0.03049 c -2.160976,-0.184528 -2.591606,-2.316766 -2.466,-2.995683 0.207729,-1.332219 0.886477,-3.426302 2.338876,-5.142837 z m 0.787548,0 -0.658357,1.285193 2.455664,0.03049 c 2.160974,0.184528 2.591605,2.316763 2.465999,2.995683 -0.20773,1.332217 -0.886418,3.426304 -2.338875,5.142838 2.043849,0.0044 3.689187,-2.396651 4.520654,-5.011063 0.94213,-2.962324 2.634735,-4.035053 4.220415,-4.442623 z" />
    </g>
    <path
       id="path2390"
       style="fill:url(#linearGradient886);fill-opacity:1"
       d="M 58.941406 46.699219 C 51.217526 46.684126 44.999713 55.758264 41.857422 65.638672 C 38.296616 76.834865 31.899589 80.889258 25.90625 82.429688 L 66.214844 82.431641 L 68.705078 77.574219 L 59.421875 77.458984 C 51.254407 76.761556 49.626831 68.702704 50.101562 66.136719 C 50.88668 61.10156 53.452024 53.186914 58.941406 46.699219 z M 61.917969 46.699219 L 59.429688 51.556641 L 68.710938 51.671875 C 76.878398 52.369304 78.505981 60.428144 78.03125 62.994141 C 77.246129 68.029295 74.681008 75.943953 69.191406 82.431641 C 76.91619 82.448271 83.134791 73.37343 86.277344 63.492188 C 89.83815 52.296006 96.235398 48.241594 102.22852 46.701172 L 61.917969 46.699219 z "
       transform="scale(0.26458333)" />
  </g>
</svg>
