<?xml version="1.0" encoding="UTF-8" standalone="no"?>
<svg
   xmlns:dc="http://purl.org/dc/elements/1.1/"
   xmlns:cc="http://creativecommons.org/ns#"
   xmlns:rdf="http://www.w3.org/1999/02/22-rdf-syntax-ns#"
   xmlns:svg="http://www.w3.org/2000/svg"
   xmlns="http://www.w3.org/2000/svg"
   xmlns:xlink="http://www.w3.org/1999/xlink"
   xmlns:sodipodi="http://sodipodi.sourceforge.net/DTD/sodipodi-0.dtd"
   xmlns:inkscape="http://www.inkscape.org/namespaces/inkscape"
   inkscape:version="0.92.5 (2060ec1f9f, 2020-04-08)"
   sodipodi:docname="sudoku.svg"
   id="svg6"
   version="1.1"
   viewBox="0 0 33.866666 33.866667"
   height="128"
   width="128">
  <metadata
     id="metadata102">
    <rdf:RDF>
      <cc:Work
         rdf:about="">
        <dc:format>image/svg+xml</dc:format>
        <dc:type
           rdf:resource="http://purl.org/dc/dcmitype/StillImage" />
        <dc:title></dc:title>
      </cc:Work>
    </rdf:RDF>
  </metadata>
  <defs
     id="defs2">
    <linearGradient
       inkscape:collect="always"
       id="linearGradient1042">
      <stop
         style="stop-color:#000000;stop-opacity:1;"
         offset="0"
         id="stop1038" />
      <stop
         style="stop-color:#000000;stop-opacity:0;"
         offset="1"
         id="stop1040" />
    </linearGradient>
    <linearGradient
       inkscape:collect="always"
       id="linearGradient954">
      <stop
         style="stop-color:#000000;stop-opacity:0.32407407"
         offset="0"
         id="stop950" />
      <stop
         style="stop-color:#000000;stop-opacity:0;"
         offset="1"
         id="stop952" />
    </linearGradient>
    <linearGradient
       inkscape:collect="always"
       id="linearGradient944">
      <stop
         style="stop-color:#3533ff;stop-opacity:1;"
         offset="0"
         id="stop940" />
      <stop
         style="stop-color:#56b0f5;stop-opacity:1"
         offset="1"
         id="stop942" />
    </linearGradient>
    <linearGradient
       inkscape:collect="always"
       id="linearGradient924">
      <stop
         style="stop-color:#ffffff;stop-opacity:1"
         offset="0"
         id="stop920" />
      <stop
         id="stop936"
         offset="0.113889"
         style="stop-color:#fcfcfc;stop-opacity:1;" />
      <stop
         style="stop-color:#eeeeee;stop-opacity:1"
         offset="0.34477913"
         id="stop938" />
      <stop
         style="stop-color:#393939;stop-opacity:1"
         offset="1"
         id="stop922" />
    </linearGradient>
    <linearGradient
       id="lgrad"
       x1="32"
       y1="32"
       x2="32"
       y2="992"
       gradientUnits="userSpaceOnUse"
       gradientTransform="translate(0,-896)">
      <stop
         offset="0%"
         stop-color="#f8f8f8"
         id="stop2" />
      <stop
         offset="100%"
         stop-color="#ccc"
         id="stop4" />
    </linearGradient>
    <radialGradient
       id="rgrad"
       x1="0%"
       y1="0%"
       x2="0%"
       y2="100%"
       fx="512"
       fy="494.39999"
       cx="512"
       cy="512"
       r="440"
       gradientUnits="userSpaceOnUse"
       gradientTransform="translate(0,-896)">
      <stop
         offset="0%"
         stop-color="#00f0ff"
         id="stop7" />
      <stop
         offset="100%"
         stop-color="#0070e0"
         id="stop9" />
    </radialGradient>
    <radialGradient
       gradientTransform="matrix(0.03099337,0,0,0.03032562,85.198869,42.985295)"
       gradientUnits="userSpaceOnUse"
       r="440"
       cy="306.1813"
       cx="523.57568"
       fy="306.1813"
       fx="523.57568"
       y2="100%"
       x2="0%"
       y1="0%"
       x1="0%"
       id="rgrad-3">
      <stop
         style="stop-color:#03d7e4;stop-opacity:1"
         id="stop7-6"
         stop-color="#00f0ff"
         offset="0%" />
      <stop
         id="stop9-7"
         stop-color="#0070e0"
         offset="100%" />
    </radialGradient>
    <filter
       id="b"
       color-interpolation-filters="sRGB"
       height="1.024007"
       width="1.023993"
       x="-0.011996"
       y="-0.012004">
      <feGaussianBlur
         stdDeviation=".47521291"
         id="feGaussianBlur7" />
    </filter>
    <linearGradient
       id="k"
       gradientUnits="userSpaceOnUse"
       x1="-350.6571"
       x2="-376.36255"
       y1="-73.89106"
       y2="-319.05783">
      <stop
         offset="0"
         stop-color="#83a3d4"
         id="stop50" />
      <stop
         offset="1"
         stop-color="#6bb5e3"
         id="stop52" />
    </linearGradient>
    <linearGradient
       id="i"
       gradientUnits="userSpaceOnUse"
       x1="-206.76952"
       x2="10.51211"
       y1="-12.925184"
       y2="-156.88734">
      <stop
         offset="0"
         stop-color="#70c2bd"
         id="stop40" />
      <stop
         offset="1"
         stop-color="#67c381"
         id="stop42" />
    </linearGradient>
    <linearGradient
       id="e"
       gradientUnits="userSpaceOnUse"
       x1="134.56509"
       x2="148.51404"
       y1="117.30138"
       y2="-149.18999">
      <stop
         offset="0"
         stop-color="#faaa32"
         id="stop20" />
      <stop
         offset="1"
         stop-color="#fdc22b"
         id="stop22" />
    </linearGradient>
    <linearGradient
       id="c"
       gradientUnits="userSpaceOnUse"
       x1="-146.054"
       x2="123.35784"
       y1="144.89951"
       y2="144.89951">
      <stop
         offset="0"
         stop-color="#a0cf63"
         id="stop10" />
      <stop
         offset="1"
         stop-color="#c4da45"
         id="stop12" />
    </linearGradient>
    <linearGradient
       id="m"
       gradientUnits="userSpaceOnUse"
       x1="206.7137"
       x2="28.495264"
       y1="-12.740612"
       y2="-150.01163">
      <stop
         offset="0"
         stop-color="#b28cc0"
         id="stop60" />
      <stop
         offset="1"
         stop-color="#9a8ec4"
         id="stop62" />
    </linearGradient>
    <linearGradient
       id="q"
       gradientUnits="userSpaceOnUse"
       x1="189.94229"
       x2="-19.617525"
       y1="147.05296"
       y2="76.406288">
      <stop
         offset="0"
         stop-color="#f48155"
         id="stop80" />
      <stop
         offset="1"
         stop-color="#f16168"
         id="stop82" />
    </linearGradient>
    <linearGradient
       id="l"
       gradientUnits="userSpaceOnUse"
       x1="116.504"
       x2="21.156284"
       y1="308.30261"
       y2="34.179653">
      <stop
         offset="0"
         stop-color="#735194"
         id="stop55" />
      <stop
         offset="1"
         stop-color="#525da3"
         id="stop57" />
    </linearGradient>
    <linearGradient
       id="j"
       gradientUnits="userSpaceOnUse"
       x1="30.131145"
       x2="123.3283"
       y1="111.50156"
       y2="-107.16671">
      <stop
         offset="0"
         stop-color="#416db9"
         id="stop45" />
      <stop
         offset="1"
         stop-color="#337e8d"
         id="stop47" />
    </linearGradient>
    <linearGradient
       id="h"
       gradientUnits="userSpaceOnUse"
       x1="-103.67039"
       x2="205.55051"
       y1="133.12218"
       y2="0.071801998">
      <stop
         offset="0"
         stop-color="#2e9274"
         id="stop35" />
      <stop
         offset="1"
         stop-color="#469d3c"
         id="stop37" />
    </linearGradient>
    <linearGradient
       id="f"
       gradientUnits="userSpaceOnUse"
       x1="26.97802"
       x2="146.80986"
       y1="120.22743"
       y2="-100.48971">
      <stop
         offset="0"
         stop-color="#ec4001"
         id="stop25" />
      <stop
         offset="1"
         stop-color="#fb6f01"
         id="stop27" />
    </linearGradient>
    <linearGradient
       id="d"
       gradientUnits="userSpaceOnUse"
       x1="-14.298616"
       x2="309.397"
       y1="73.499695"
       y2="73.499695">
      <stop
         offset="0"
         stop-color="#58a920"
         id="stop15" />
      <stop
         offset="1"
         stop-color="#98b811"
         id="stop17" />
    </linearGradient>
    <linearGradient
       id="o"
       gradientUnits="userSpaceOnUse"
       x1="-123.11901"
       x2="145.987"
       y1="144.897"
       y2="144.897">
      <stop
         offset="0"
         stop-color="#d287af"
         id="stop70" />
      <stop
         offset="1"
         stop-color="#e07993"
         id="stop72" />
    </linearGradient>
    <linearGradient
       id="p"
       gradientUnits="userSpaceOnUse"
       x1="-205.78"
       x2="117.81888"
       y1="-71.695564"
       y2="-71.695564">
      <stop
         offset="0"
         stop-color="#bd090f"
         id="stop75" />
      <stop
         offset="1"
         stop-color="#e11f07"
         id="stop77" />
    </linearGradient>
    <linearGradient
       id="n"
       gradientUnits="userSpaceOnUse"
       x1="0.176406"
       x2="-308.72031"
       y1="-14.582834"
       y2="-143.7106">
      <stop
         offset="0"
         stop-color="#c23857"
         id="stop65" />
      <stop
         offset="1"
         stop-color="#914475"
         id="stop67" />
    </linearGradient>
    <linearGradient
       id="g"
       gradientUnits="userSpaceOnUse"
       x1="41.409683"
       x2="117.31723"
       y1="108.52529"
       y2="319.1076">
      <stop
         offset="0"
         stop-color="#e69e08"
         id="stop30" />
      <stop
         offset="1"
         stop-color="#cbc507"
         id="stop32" />
    </linearGradient>
    <radialGradient
       inkscape:collect="always"
       xlink:href="#linearGradient924"
       id="radialGradient930"
       gradientUnits="userSpaceOnUse"
       gradientTransform="matrix(1.4235324,1.1983551,-2.4826514,2.9491544,45.199485,-69.25376)"
       cx="22.057449"
       cy="21.969065"
       fx="22.057449"
       fy="21.969065"
       r="6.7108" />
    <linearGradient
       inkscape:collect="always"
       xlink:href="#linearGradient944"
       id="linearGradient946"
       x1="13.631866"
       y1="30.960323"
       x2="11.916492"
       y2="3.4983788"
       gradientUnits="userSpaceOnUse" />
    <linearGradient
       inkscape:collect="always"
       xlink:href="#linearGradient954"
       id="linearGradient956"
       x1="42.363338"
       y1="35.570721"
       x2="21.738646"
       y2="17.730482"
       gradientUnits="userSpaceOnUse" />
    <radialGradient
       inkscape:collect="always"
       xlink:href="#linearGradient1042"
       id="radialGradient1044"
       cx="26.246538"
       cy="26.912306"
       fx="26.246538"
       fy="26.912306"
       r="9.6775427"
       gradientTransform="matrix(2.0365735,1.7736097,-3.4018272,3.9061986,135.26302,-54.564223)"
       gradientUnits="userSpaceOnUse" />
  </defs>
  <sodipodi:namedview
     inkscape:window-maximized="1"
     inkscape:window-y="30"
     inkscape:window-x="0"
     inkscape:window-height="1019"
     inkscape:window-width="1920"
     units="px"
     showgrid="false"
     inkscape:current-layer="layer1"
     inkscape:document-units="mm"
     inkscape:cy="46.634099"
     inkscape:cx="68.870303"
     inkscape:zoom="0.98994949"
     inkscape:pageshadow="2"
     inkscape:pageopacity="0.0"
     borderopacity="1.0"
     bordercolor="#666666"
     pagecolor="#ffffff"
     id="base" />
  <g
     id="layer1"
     inkscape:groupmode="layer"
     inkscape:label="Layer 1">
    <g
       style="opacity:0.2967651"
       transform="matrix(0.97573206,0,0,0.97573206,-65.748383,-37.203094)"
       id="g1702">
      <rect
         ry="6.6098609"
         rx="6.6098609"
         y="40.709618"
         x="69.839508"
         height="29.810888"
         width="29.810888"
         id="rect1634"
         style="fill:none;fill-opacity:1;stroke:#000000;stroke-width:0.1;stroke-linecap:round;stroke-linejoin:round;stroke-miterlimit:4;stroke-dasharray:none;stroke-opacity:0.02" />
      <rect
         style="fill:none;fill-opacity:1;stroke:#000000;stroke-width:0.2;stroke-linecap:round;stroke-linejoin:round;stroke-miterlimit:4;stroke-dasharray:none;stroke-opacity:0.02"
         id="rect1638"
         width="29.810888"
         height="29.810888"
         x="69.839508"
         y="40.709618"
         rx="6.6098609"
         ry="6.6098609" />
      <rect
         ry="6.6098609"
         rx="6.6098609"
         y="40.709618"
         x="69.839508"
         height="29.810888"
         width="29.810888"
         id="rect1640"
         style="fill:none;fill-opacity:1;stroke:#000000;stroke-width:0.3;stroke-linecap:round;stroke-linejoin:round;stroke-miterlimit:4;stroke-dasharray:none;stroke-opacity:0.02" />
      <rect
         style="fill:none;fill-opacity:1;stroke:#000000;stroke-width:0.4;stroke-linecap:round;stroke-linejoin:round;stroke-miterlimit:4;stroke-dasharray:none;stroke-opacity:0.02"
         id="rect1642"
         width="29.810888"
         height="29.810888"
         x="69.839508"
         y="40.709618"
         rx="6.6098609"
         ry="6.6098609" />
      <rect
         ry="6.6098609"
         rx="6.6098609"
         y="40.709618"
         x="69.839508"
         height="29.810888"
         width="29.810888"
         id="rect1644"
         style="fill:none;fill-opacity:1;stroke:#000000;stroke-width:0.5;stroke-linecap:round;stroke-linejoin:round;stroke-miterlimit:4;stroke-dasharray:none;stroke-opacity:0.02" />
      <rect
         style="fill:none;fill-opacity:1;stroke:#000000;stroke-width:0.6;stroke-linecap:round;stroke-linejoin:round;stroke-miterlimit:4;stroke-dasharray:none;stroke-opacity:0.02"
         id="rect1646"
         width="29.810888"
         height="29.810888"
         x="69.839508"
         y="40.709618"
         rx="6.6098609"
         ry="6.6098609" />
      <rect
         ry="6.6098609"
         rx="6.6098609"
         y="40.709618"
         x="69.839508"
         height="29.810888"
         width="29.810888"
         id="rect1648"
         style="fill:none;fill-opacity:1;stroke:#000000;stroke-width:0.7;stroke-linecap:round;stroke-linejoin:round;stroke-miterlimit:4;stroke-dasharray:none;stroke-opacity:0.02" />
      <rect
         style="fill:none;fill-opacity:1;stroke:#000000;stroke-width:0.8;stroke-linecap:round;stroke-linejoin:round;stroke-miterlimit:4;stroke-dasharray:none;stroke-opacity:0.02"
         id="rect1650"
         width="29.810888"
         height="29.810888"
         x="69.839508"
         y="40.709618"
         rx="6.6098609"
         ry="6.6098609" />
      <rect
         ry="6.6098609"
         rx="6.6098609"
         y="40.709618"
         x="69.839508"
         height="29.810888"
         width="29.810888"
         id="rect1652"
         style="fill:none;fill-opacity:1;stroke:#000000;stroke-width:1;stroke-linecap:round;stroke-linejoin:round;stroke-miterlimit:4;stroke-dasharray:none;stroke-opacity:0.02" />
      <rect
         style="fill:none;fill-opacity:1;stroke:#000000;stroke-width:1.2;stroke-linecap:round;stroke-linejoin:round;stroke-miterlimit:4;stroke-dasharray:none;stroke-opacity:0.02"
         id="rect1654"
         width="29.810888"
         height="29.810888"
         x="69.839508"
         y="40.709618"
         rx="6.6098609"
         ry="6.6098609" />
      <rect
         ry="6.6098609"
         rx="6.6098609"
         y="40.709618"
         x="69.839508"
         height="29.810888"
         width="29.810888"
         id="rect1656"
         style="fill:none;fill-opacity:1;stroke:#000000;stroke-width:1.4;stroke-linecap:round;stroke-linejoin:round;stroke-miterlimit:4;stroke-dasharray:none;stroke-opacity:0.02" />
      <rect
         style="fill:none;fill-opacity:1;stroke:#000000;stroke-width:1.6;stroke-linecap:round;stroke-linejoin:round;stroke-miterlimit:4;stroke-dasharray:none;stroke-opacity:0.02"
         id="rect1658"
         width="29.810888"
         height="29.810888"
         x="69.839508"
         y="40.709618"
         rx="6.6098609"
         ry="6.6098609" />
      <rect
         ry="6.6098609"
         rx="6.6098609"
         y="40.709618"
         x="69.839508"
         height="29.810888"
         width="29.810888"
         id="rect1660"
         style="fill:none;fill-opacity:1;stroke:#000000;stroke-width:1.8;stroke-linecap:round;stroke-linejoin:round;stroke-miterlimit:4;stroke-dasharray:none;stroke-opacity:0.02" />
      <rect
         style="fill:none;fill-opacity:1;stroke:#000000;stroke-width:2;stroke-linecap:round;stroke-linejoin:round;stroke-miterlimit:4;stroke-dasharray:none;stroke-opacity:0.02"
         id="rect1662"
         width="29.810888"
         height="29.810888"
         x="69.839508"
         y="40.709618"
         rx="6.6098609"
         ry="6.6098609" />
      <rect
         ry="6.6098609"
         rx="6.6098609"
         y="40.709618"
         x="69.839508"
         height="29.810888"
         width="29.810888"
         id="rect1664"
         style="fill:none;fill-opacity:1;stroke:#000000;stroke-width:2.2;stroke-linecap:round;stroke-linejoin:round;stroke-miterlimit:4;stroke-dasharray:none;stroke-opacity:0.02" />
      <rect
         style="fill:none;fill-opacity:1;stroke:#000000;stroke-width:2.6;stroke-linecap:round;stroke-linejoin:round;stroke-miterlimit:4;stroke-dasharray:none;stroke-opacity:0.02"
         id="rect1666"
         width="29.810888"
         height="29.810888"
         x="69.839508"
         y="40.709618"
         rx="6.6098609"
         ry="6.6098609" />
      <rect
         ry="6.6098609"
         rx="6.6098609"
         y="40.709618"
         x="69.839508"
         height="29.810888"
         width="29.810888"
         id="rect1668"
         style="fill:none;fill-opacity:1;stroke:#000000;stroke-width:3;stroke-linecap:round;stroke-linejoin:round;stroke-miterlimit:4;stroke-dasharray:none;stroke-opacity:0.02" />
      <rect
         style="fill:none;fill-opacity:1;stroke:#000000;stroke-width:3.4;stroke-linecap:round;stroke-linejoin:round;stroke-miterlimit:4;stroke-dasharray:none;stroke-opacity:0.02"
         id="rect1670"
         width="29.810888"
         height="29.810888"
         x="69.839508"
         y="40.709618"
         rx="6.6098609"
         ry="6.6098609" />
      <rect
         ry="6.6098609"
         rx="6.6098609"
         y="40.709618"
         x="69.839508"
         height="29.810888"
         width="29.810888"
         id="rect1672"
         style="fill:none;fill-opacity:1;stroke:#000000;stroke-width:3.8;stroke-linecap:round;stroke-linejoin:round;stroke-miterlimit:4;stroke-dasharray:none;stroke-opacity:0.02" />
      <rect
         style="fill:none;fill-opacity:1;stroke:#000000;stroke-width:4.2;stroke-linecap:round;stroke-linejoin:round;stroke-miterlimit:4;stroke-dasharray:none;stroke-opacity:0.02"
         id="rect1674"
         width="29.810888"
         height="29.810888"
         x="69.839508"
         y="40.709618"
         rx="6.6098609"
         ry="6.6098609" />
      <rect
         ry="6.6098609"
         rx="6.6098609"
         y="40.709618"
         x="69.839508"
         height="29.810888"
         width="29.810888"
         id="rect1676"
         style="fill:none;fill-opacity:1;stroke:#000000;stroke-width:4.6;stroke-linecap:round;stroke-linejoin:round;stroke-miterlimit:4;stroke-dasharray:none;stroke-opacity:0.02" />
      <rect
         style="fill:none;fill-opacity:1;stroke:#000000;stroke-width:5;stroke-linecap:round;stroke-linejoin:round;stroke-miterlimit:4;stroke-dasharray:none;stroke-opacity:0.02"
         id="rect1678"
         width="29.810888"
         height="29.810888"
         x="69.839508"
         y="40.709618"
         rx="6.6098609"
         ry="6.6098609" />
    </g>
    <rect
       ry="6.4494534"
       rx="6.4494534"
       y="2.5185876"
       x="2.4065466"
       height="29.087439"
       width="29.087439"
       id="rect849"
       style="fill:url(#linearGradient946);fill-opacity:1;stroke-width:2.68768;stroke-linecap:round;stroke-linejoin:round" />
    <rect
       style="fill:url(#linearGradient956);fill-opacity:1;stroke-width:2.68768;stroke-linecap:round;stroke-linejoin:round"
       id="rect948"
       width="29.087439"
       height="29.087439"
       x="2.4065466"
       y="2.5185876"
       rx="6.4494534"
       ry="6.4494534" />
    <path
       style="fill:#ffffff;fill-opacity:1;stroke-width:2.68768001;stroke-linecap:round;stroke-linejoin:round"
       d="M 9.1276722,3.6407037 H 24.77286 c 3.101849,0 5.599006,2.4971569 5.599006,5.5990066 v 7.8225967 c -1.371421,9.612733 -5.914842,11.09165 -13.4216,13.421603 H 9.1276722 c -3.1018497,0 -5.5990067,-2.497157 -5.5990067,-5.599007 V 9.2397103 c 0,-3.1018497 2.497157,-5.5990066 5.5990067,-5.5990066 z"
       id="rect915"
       inkscape:connector-curvature="0"
       sodipodi:nodetypes="sssccssss" />
    <path
       style="opacity:0.34599998;fill:url(#radialGradient1044);fill-opacity:1;stroke:none;stroke-width:13.3357954;stroke-linecap:round;stroke-linejoin:round;stroke-miterlimit:4;stroke-dasharray:none;stroke-opacity:1"
       d="M 98.931641 39.033203 A 51.623091 54.585146 0 0 0 47.306641 93.617188 A 51.623091 54.585146 0 0 0 51.585938 115.21484 L 64.064453 115.21484 C 92.436452 106.40872 109.60769 100.81987 114.79102 64.488281 L 114.79102 41.705078 A 51.623091 54.585146 0 0 0 98.931641 39.033203 z "
       transform="scale(0.26458333)"
       id="path1036" />
    <path
       style="opacity:1;fill:#0f54a6;fill-opacity:0.44999999;stroke:none;stroke-width:9.44881916;stroke-linecap:round;stroke-linejoin:round;stroke-miterlimit:4;stroke-dasharray:none;stroke-opacity:1"
       d="M 30.601562 20.544922 C 25.005728 20.544922 20.501953 25.050649 20.501953 30.646484 L 20.501953 98.328125 C 20.501953 103.92396 25.005728 108.42969 30.601562 108.42969 L 97.525391 108.42969 C 103.12123 108.42969 107.62695 103.92396 107.62695 98.328125 L 107.62695 30.646484 C 107.62695 25.050649 103.12123 20.544922 97.525391 20.544922 L 30.601562 20.544922 z M 30.953125 22.703125 L 49.339844 22.703125 L 49.339844 49.546875 L 22.638672 49.546875 L 22.638672 31.017578 C 22.638672 26.411029 26.346576 22.703125 30.953125 22.703125 z M 50.337891 22.703125 L 77.708984 22.703125 L 77.708984 49.546875 L 50.337891 49.546875 L 50.337891 22.703125 z M 78.705078 22.703125 L 97.173828 22.703125 C 101.78038 22.703125 105.48828 26.411029 105.48828 31.017578 L 105.48828 49.546875 L 78.705078 49.546875 L 78.705078 22.703125 z M 22.638672 50.542969 L 49.339844 50.542969 L 49.339844 78.085938 L 22.638672 78.085938 L 22.638672 50.542969 z M 50.337891 50.542969 L 77.708984 50.542969 L 77.708984 78.085938 L 50.337891 78.085938 L 50.337891 50.542969 z M 78.705078 50.542969 L 105.48828 50.542969 L 105.48828 78.085938 L 78.705078 78.085938 L 78.705078 50.542969 z M 22.638672 79.082031 L 49.339844 79.082031 L 49.339844 106.27344 L 30.953125 106.27344 C 26.346576 106.27344 22.638672 102.56358 22.638672 97.957031 L 22.638672 79.082031 z M 50.337891 79.082031 L 77.708984 79.082031 L 77.708984 106.27344 L 50.337891 106.27344 L 50.337891 79.082031 z M 78.705078 79.082031 L 105.48828 79.082031 L 105.48828 97.957031 C 105.48828 102.56358 101.78038 106.27344 97.173828 106.27344 L 78.705078 106.27344 L 78.705078 79.082031 z "
       transform="scale(0.26458333)"
       id="rect958" />
    <path
       inkscape:connector-curvature="0"
       id="path1020"
       style="font-style:normal;font-variant:normal;font-weight:bold;font-stretch:normal;font-size:10.58333302px;line-height:1.25;font-family:P052;-inkscape-font-specification:'P052 Bold';letter-spacing:0px;word-spacing:0px;fill:#4a4a4a;fill-opacity:1;stroke:none;stroke-width:0.1835008"
       d="m 8.0074776,10.816965 h 1.790968 v 0.396362 c -0.0073,0.344981 -0.146801,0.528483 -0.418382,0.543162 l -0.469761,0.02202 v 0.271582 c 0.344981,-0.0073 0.653263,-0.0073 0.822084,-0.01469 0.22754,-0.0073 0.3816814,-0.0073 0.4771024,-0.0073 0.16148,0 0.506461,0.0073 1.130364,0.02202 v -0.271614 l -0.264241,-0.02202 c -0.278921,-0.02202 -0.411042,-0.198181 -0.418381,-0.543163 v -0.396362 h 0.653262 V 10.2371 l -0.0073,-0.02202 H 10.657252 V 9.2975748 c 0,-0.594542 0.0073,-1.071644 0.04404,-2.113929 l -0.05138,-0.08808 -0.8954844,0.198181 c -0.851444,1.247805 -1.379926,2.19467 -1.798308,3.2369542 z m 0.462423,-0.601882 c 0.04404,-0.08808 0.05873,-0.117444 0.12478,-0.2642412 0.08074,-0.190842 0.161481,-0.352323 0.198181,-0.418382 l 0.455082,-0.851445 c 0.09542,-0.16148 0.278921,-0.462422 0.550502,-0.902824 v 2.4368922 z" />
    <path
       inkscape:connector-curvature="0"
       id="path1022"
       style="font-style:normal;font-variant:normal;font-weight:bold;font-stretch:normal;font-size:10.58333302px;line-height:1.25;font-family:P052;-inkscape-font-specification:'P052 Bold';letter-spacing:0px;word-spacing:0px;fill:#4a4a4a;fill-opacity:1;stroke:none;stroke-width:0.1835008"
       d="m 8.7337827,24.698348 c -0.579863,0.293602 -0.858784,0.682624 -0.858784,1.211105 0,0.741345 0.601882,1.262487 1.4680068,1.262487 0.9835635,0 1.7102265,-0.689962 1.7102265,-1.614808 0,-0.344981 -0.102761,-0.631242 -0.315621,-0.873462 -0.161482,-0.183502 -0.293602,-0.271582 -0.594542,-0.396362 0.506462,-0.344983 0.689962,-0.623905 0.689962,-1.034945 0,-0.638583 -0.506462,-1.049626 -1.2991845,-1.049626 -0.9321838,0 -1.5340678,0.528484 -1.5340678,1.350567 0,0.521143 0.205522,0.836763 0.734004,1.145044 z m 0.7486838,0.330303 c 0.5431605,0.24222 0.7633615,0.499121 0.7633615,0.917504 0,0.484441 -0.3376405,0.844104 -0.8000625,0.844104 -0.5284818,0 -0.9175038,-0.425722 -0.9175038,-0.998246 0,-0.389021 0.124781,-0.623901 0.5064628,-0.961543 z m -0.02202,-1.005586 C 8.9466447,23.802864 8.7558037,23.590004 8.7558037,23.237682 c 0,-0.396361 0.2789208,-0.653262 0.6973028,-0.653262 0.455082,0 0.7633625,0.315622 0.7633625,0.778043 0,0.315622 -0.11744,0.528483 -0.4330605,0.800063 z" />
    <path
       inkscape:connector-curvature="0"
       id="path1024"
       style="font-style:normal;font-variant:normal;font-weight:bold;font-stretch:normal;font-size:10.58333302px;line-height:1.25;font-family:P052;-inkscape-font-specification:'P052 Bold';letter-spacing:0px;word-spacing:0px;fill:#4a4a4a;fill-opacity:1;stroke:none;stroke-width:0.1835008"
       d="m 22.853049,10.883025 c 0.06606,0.330302 0.08808,0.506462 0.1835,1.093665 0.300942,0.124777 0.550503,0.176161 0.917504,0.176161 1.159726,0 2.099249,-0.792724 2.099249,-1.776289 0,-0.3890212 -0.15414,-0.6899622 -0.447742,-0.8881432 -0.1835,-0.117444 -0.337641,-0.16148 -0.667942,-0.198181 0.572523,-0.293601 0.822084,-0.623903 0.822084,-1.071645 0,-0.601881 -0.557842,-1.034945 -1.328546,-1.034945 -0.403702,0 -0.697303,0.08808 -1.123025,0.330303 l -0.227541,1.130363 h 0.256901 c 0.13946,-0.506461 0.411042,-0.741341 0.866124,-0.741341 0.455082,0 0.741343,0.24956 0.741343,0.660602 0,0.469761 -0.330301,0.770704 -0.829424,0.770704 h -0.2569 l -0.139462,0.543162 0.05138,0.0367 c 0.154141,-0.04405 0.278922,-0.05872 0.447742,-0.05872 0.565183,0 0.924844,0.3596632 0.924844,0.9101642 0,0.572523 -0.374342,0.976225 -0.910163,0.976225 -0.256902,0 -0.506463,-0.09542 -0.697304,-0.256902 -0.17616,-0.154142 -0.271581,-0.308281 -0.433061,-0.667942 z" />
    <path
       inkscape:connector-curvature="0"
       id="path1026"
       style="font-style:normal;font-variant:normal;font-weight:bold;font-stretch:normal;font-size:10.58333302px;line-height:1.25;font-family:P052;-inkscape-font-specification:'P052 Bold';letter-spacing:0px;word-spacing:0px;fill:#4a4a4a;fill-opacity:1;stroke:none;stroke-width:0.1835008"
       d="m 15.848065,19.353192 v 0.271583 c 0.425721,-0.0073 0.807403,-0.01469 1.027604,-0.01469 0.212861,-0.0073 0.374341,-0.0073 0.462421,-0.0073 0.09542,0 0.264242,0 0.506462,0.0073 0.1101,0 0.433064,0.0073 0.792724,0.01469 v -0.271583 l -0.455082,-0.02202 C 17.895933,19.309152 17.763813,19.206395 17.763813,18.98619 V 16.6227 c 0,-0.579863 0.02202,-1.115684 0.0734,-1.864369 l -0.08808,-0.0734 c -0.895484,0.352321 -1.739588,0.638582 -2.194671,0.741342 0,0.183501 0.02936,0.322962 0.102761,0.513803 l 1.027605,-0.477102 c 0.01468,-0.0073 0.02936,-0.0073 0.0367,-0.0073 0.05872,0.0073 0.0734,0.05873 0.0734,0.278921 v 3.251634 c 0,0.220201 -0.13212,0.322962 -0.418381,0.344982 z" />
    <path
       inkscape:connector-curvature="0"
       id="path1028"
       style="font-style:normal;font-variant:normal;font-weight:bold;font-stretch:normal;font-size:10.58333302px;line-height:1.25;font-family:P052;-inkscape-font-specification:'P052 Bold';letter-spacing:0px;word-spacing:0px;fill:#4a4a4a;fill-opacity:1;stroke:none;stroke-width:0.1835008"
       d="m 23.335281,15.579659 1.056964,-0.02202 c 0.0734,0 0.425722,0.0073 1.049625,0.02202 l 0.04405,-0.08075 c -0.0073,-0.117445 -0.0073,-0.227542 -0.0073,-0.30828 0,-0.161481 0.01469,-0.249562 0.05138,-0.411043 l -0.02936,-0.05873 -1.299186,0.04403 c -0.667944,-0.01469 -0.822084,-0.02202 -1.247806,-0.04403 l -0.05138,0.05873 c 0.02935,0.499123 0.04405,0.741345 0.04405,0.998244 v 0.748684 c 0,0.168821 -0.0073,0.315622 -0.04405,0.910165 l 0.13946,0.08073 c 0.24956,-0.20552 0.491782,-0.293601 0.822083,-0.293601 0.594544,0 0.976225,0.396362 0.976225,1.012924 0,0.609224 -0.367002,0.998244 -0.932184,0.998244 -0.506463,0 -0.888144,-0.286261 -1.137705,-0.851442 l -0.220202,0.132122 c 0.13946,0.565181 0.183501,0.748682 0.227541,0.983563 0.264242,0.117444 0.499122,0.161481 0.829425,0.161481 1.174404,0 2.09925,-0.822086 2.09925,-1.864369 0,-0.814744 -0.557844,-1.328546 -1.445989,-1.328546 -0.32296,0 -0.535821,0.05873 -0.954204,0.249561 z" />
    <path
       sodipodi:nodetypes="csscc"
       inkscape:connector-curvature="0"
       id="path918"
       d="m 16.950266,30.483911 c 2.764009,-0.992779 4.04035,-2.71608 3.948365,-5.568985 -0.07175,-2.225181 1.750775,-4.100639 3.760137,-4.05271 2.835435,0.06763 4.973964,-1.610919 5.713098,-3.799908 -0.02106,7.909591 -6.627047,13.438249 -13.4216,13.421603 z"
       style="fill:url(#radialGradient930);fill-opacity:1;stroke-width:2.68768001;stroke-linecap:round;stroke-linejoin:round" />
  </g>
</svg>
