<svg xmlns="http://www.w3.org/2000/svg" viewBox="0 0 1000 842.18"><defs><style>.cls-1{fill:#e1eaf1;}.cls-2{fill:#48575e;}.cls-3{fill:#5b99f5;}</style></defs><title>Tambourine</title><g id="Layer_2" data-name="Layer 2"><g id="Layer_26" data-name="Layer 26"><g id="Tambourine"><path class="cls-1" d="M906.69,500.76A406.85,406.85,0,0,1,729.16,836.83a30.71,30.71,0,0,1-39.66-4.29L664.59,806.1a94.43,94.43,0,0,0-63.79-29.39,53.71,53.71,0,0,0,.12-61.43A156,156,0,0,1,709.26,764l6.24,6.63A345.68,345.68,0,0,0,833,409.22a342.15,342.15,0,0,0-16.42-46.37,346.62,346.62,0,0,0-202.5-188.1A344.35,344.35,0,0,0,338.55,195.4,347.7,347.7,0,0,0,183.24,362.78a341.57,341.57,0,0,0-16.43,46.36h0A345.47,345.47,0,0,0,284.29,770.63l6.24-6.62a155.91,155.91,0,0,1,108.33-48.73,53.71,53.71,0,0,0,.12,61.43A94.25,94.25,0,0,0,335.2,806.1l-24.92,26.44a30.68,30.68,0,0,1-39.64,4.29A406.62,406.62,0,0,1,125.08,342.41q3-7.16,6.3-14.15A407.3,407.3,0,0,1,341.54,126q16.88-7.14,34.21-12.7h0a409.23,409.23,0,0,1,248.26,0q17.33,5.56,34.23,12.7A408.19,408.19,0,0,1,868.48,328.42q3.24,6.93,6.23,14a404.38,404.38,0,0,1,32,158.35Z"/><path class="cls-2" d="M499.89,155.35a343.89,343.89,0,0,1,114.18,19.4,124.71,124.71,0,0,1-228.37,0A344,344,0,0,1,499.89,155.35Z"/><path class="cls-2" d="M499.89,94a405,405,0,0,0-124.13,19.28,124.65,124.65,0,0,1,248.26,0A405,405,0,0,0,499.89,94Z"/><path class="cls-2" d="M212.24,213.11a405.18,405.18,0,0,0-80.86,115.15,124.66,124.66,0,0,1,168.86-182A405.63,405.63,0,0,0,212.24,213.11Z"/><path class="cls-2" d="M348.81,245a124.74,124.74,0,0,1-165.57,117.8A347.7,347.7,0,0,1,338.55,195.4,124,124,0,0,1,348.81,245Z"/><path class="cls-2" d="M93.1,500.76a406.46,406.46,0,0,0,28.8,150.38,124.68,124.68,0,0,1-17.1-247.73A407.4,407.4,0,0,0,93.1,500.76Z"/><path class="cls-2" d="M249.33,526.5A124.64,124.64,0,0,1,182.46,637a345.94,345.94,0,0,1-15.65-227.83A124.69,124.69,0,0,1,249.33,526.5Z"/><path class="cls-2" d="M816.57,362.85A124.72,124.72,0,0,1,661.41,195.5,347.56,347.56,0,0,1,816.57,362.85Z"/><path class="cls-2" d="M900.52,245a124.24,124.24,0,0,1-32,83.44A408.57,408.57,0,0,0,699.67,146.31,124.66,124.66,0,0,1,900.52,245Z"/><path class="cls-2" d="M845.3,500.76a345,345,0,0,1-28,136.12A124.71,124.71,0,0,1,833,409.22,344.36,344.36,0,0,1,845.3,500.76Z"/><path class="cls-2" d="M1000,526.5A124.67,124.67,0,0,1,877.88,651.14,408.27,408.27,0,0,0,895,403.37,124.7,124.7,0,0,1,1000,526.5Z"/><path class="cls-3" d="M610.51,745.9a53.46,53.46,0,0,1-9.71,30.81,54.79,54.79,0,0,1-6,7.16,53.53,53.53,0,0,1-38,15.72H443a53.69,53.69,0,0,1-44.1-84.31,54.66,54.66,0,0,1,6.14-7.34,53.52,53.52,0,0,1,38-15.73H556.82a53.7,53.7,0,0,1,53.69,53.69Z"/></g></g></g></svg>