<svg xmlns="http://www.w3.org/2000/svg" viewBox="0 0 1000 1000"><defs><style>.cls-1{fill:#e1eaf1;}.cls-2{fill:#5b99f5;}.cls-3{fill:#48575e;}</style></defs><title>21</title><g id="_21" data-name="21"><rect class="cls-1" x="347.02" y="389.72" width="305.96" height="605.99" rx="77.74"/><rect class="cls-2" x="694.04" y="556.7" width="305.96" height="439" rx="77.74"/><rect class="cls-3" y="770.12" width="305.96" height="225.59" rx="77.74"/><path class="cls-3" d="M523.32,18.81l28.47,57.9A26,26,0,0,0,571.41,91l63.86,9.18c21.35,3.07,29.88,29.32,14.41,44.35l-46.27,45a26,26,0,0,0-7.49,23.07l11,63.57c3.68,21.26-18.65,37.48-37.73,27.41l-57.07-30.1a25.93,25.93,0,0,0-24.24,0l-57.07,30.1c-19.08,10.07-41.41-6.15-37.73-27.41l11-63.57a26,26,0,0,0-7.49-23.07l-46.27-45c-15.47-15-6.94-41.28,14.41-44.35L428.59,91a26,26,0,0,0,19.62-14.26l28.47-57.9C486.2-.54,513.8-.54,523.32,18.81Z"/></g></svg>