<svg xmlns="http://www.w3.org/2000/svg" viewBox="0 0 1000 733.02"><defs><style>.cls-1{fill:#e1eaf1;}.cls-2{fill:#5b99f5;}.cls-3{fill:#48575e;}</style></defs><title>Blueprint</title><g id="Layer_2" data-name="Layer 2"><g id="Layer_26" data-name="Layer 26"><g id="Blueprint"><path class="cls-1" d="M1000,668.86a72.47,72.47,0,0,1-8.7,33.77A56.94,56.94,0,0,1,940.83,733H96.21A96.21,96.21,0,0,1,0,636.81V224.52a96.2,96.2,0,0,1,96.21-96.21H871.7V668.86a64.15,64.15,0,0,1,106.13-48.51c.78.67,1.54,1.37,2.28,2.07A64,64,0,0,1,1000,668.86Z"/><path class="cls-2" d="M1000,64.15V668.86a64,64,0,0,0-19.89-46.44c-.74-.7-1.5-1.4-2.28-2.07A64.15,64.15,0,0,0,871.7,668.86V64.15a64.15,64.15,0,1,1,128.3,0Z"/><path class="cls-3" d="M807,251.82V609.51a52.57,52.57,0,0,1-52.57,52.56h-635a52.56,52.56,0,0,1-52.56-52.56V251.82a52.56,52.56,0,0,1,52.56-52.56h635A52.57,52.57,0,0,1,807,251.82Z"/><path class="cls-1" d="M382.87,468.49H367.52a10.38,10.38,0,0,0,0,20.76h25.73a10.38,10.38,0,0,0,10.38-10.38V199.26H382.87Z"/><path class="cls-1" d="M309.66,563.82a10.38,10.38,0,0,0-16.44,12.68l66,85.57h23.49a10.34,10.34,0,0,0-2.16-6.34Z"/><path class="cls-1" d="M274.19,468.49H66.84v20.76H274.19a10.38,10.38,0,0,0,0-20.76Z"/><path class="cls-1" d="M549.2,515.15a10.38,10.38,0,0,0-10.38,10.38V662.07h20.75V525.53A10.37,10.37,0,0,0,549.2,515.15Z"/><path class="cls-1" d="M807,341.85H559.57v-45a10.38,10.38,0,1,0-20.75,0V412.62a10.38,10.38,0,1,0,20.75,0v-50H807Z"/></g></g></g></svg>