<svg xmlns="http://www.w3.org/2000/svg" viewBox="0 0 801.63 1000"><defs><style>.cls-1{fill:none;stroke:#231f20;stroke-linecap:round;stroke-linejoin:round;stroke-width:6px;}.cls-2{fill:#e1eaf1;}.cls-3{fill:#48575e;}.cls-4{fill:#5b99f5;}</style></defs><title>Hacker</title><g id="Layer_2" data-name="Layer 2"><g id="Layer_26" data-name="Layer 26"><g id="Hacker"><line class="cls-1" x1="99.04" y1="926.19" x2="96.82" y2="925.52"/><path class="cls-2" d="M696.57,665V896.21A103.7,103.7,0,0,1,592.78,1000H208.85A103.7,103.7,0,0,1,105.06,896.21V665a103.79,103.79,0,0,1,103.79-103.8H592.78A103.8,103.8,0,0,1,696.57,665Z"/><path class="cls-3" d="M400.81,710.4A70.19,70.19,0,1,0,471,780.59,70.19,70.19,0,0,0,400.81,710.4Zm0,110a39.84,39.84,0,1,1,39.84-39.84A39.84,39.84,0,0,1,400.81,820.43Z"/><path class="cls-3" d="M496.3,649.48h-191a6.21,6.21,0,1,1,0-12.41h191a6.21,6.21,0,0,1,0,12.41Z"/><path class="cls-4" d="M586.89,266.71s-34.71-24.63-90.6-40.81a337.71,337.71,0,0,0-191,0c-55.88,16.18-90.59,40.81-90.59,40.81S278,0,400.81,0,586.89,266.71,586.89,266.71Z"/><path class="cls-2" d="M496.29,225.9V308a95.49,95.49,0,1,1-191,0V225.9a337.71,337.71,0,0,1,191,0Z"/><path class="cls-3" d="M586.89,266.71a596.07,596.07,0,0,1-24.28,110.12c-24.67,76-72.48,163.48-161.8,163.48S263.69,452.85,239,376.83a597.06,597.06,0,0,1-24.28-110.12s34.71-24.63,90.59-40.81V308a95.49,95.49,0,1,0,191,0V225.9C552.18,242.08,586.89,266.71,586.89,266.71Z"/><path class="cls-4" d="M743.24,916.21l-53.09,16a103.63,103.63,0,0,0,6.42-36V665a103.8,103.8,0,0,0-103.79-103.8H208.85A103.79,103.79,0,0,0,105.06,665V896.21a103.4,103.4,0,0,0,6.42,36l-53.09-16A82.1,82.1,0,0,1,1.27,823.27L44.05,582A232.61,232.61,0,0,1,163.1,417.59L239,376.83c24.68,76,72.48,163.48,161.8,163.48s137.13-87.46,161.8-163.48l75.91,40.76A232.62,232.62,0,0,1,757.56,582l42.79,241.32A82.11,82.11,0,0,1,743.24,916.21Z"/><line class="cls-1" x1="562.61" y1="376.83" x2="562.6" y2="376.83"/></g></g></g></svg>