<svg xmlns="http://www.w3.org/2000/svg" viewBox="0 0 1000 534.38"><defs><style>.cls-1{fill:#e1eaf1;}.cls-2{fill:#48575e;}</style></defs><title>Nurse&amp;apos;s Hat</title><g id="Layer_2" data-name="Layer 2"><g id="Layer_26" data-name="Layer 26"><g id="Nurse_s_Hat" data-name="Nurse&apos;s Hat"><path class="cls-1" d="M965.27,370.18c-71.59,114.74-65.2,103.62-78.94,139.46s-62.08,30-139,0S609.25,465.15,500,465.15s-170.47,14.49-247.36,44.49-125.23,35.84-139,0-7.34-24.72-78.93-139.46S1.53,182.81,156.28,93C330.38-8.06,500,.16,500,.16S669.62-8.06,843.72,93C998.47,182.81,1036.85,255.45,965.27,370.18Z"/><circle class="cls-2" cx="500" cy="236.58" r="154.26"/><path class="cls-1" d="M569,206.31H546.51A15.34,15.34,0,0,1,531.17,191V168.45a17,17,0,0,0-17-17H487.61a17,17,0,0,0-17,17V191a15.34,15.34,0,0,1-15.35,15.34H432.78a17,17,0,0,0-17,17v26.59a17,17,0,0,0,17,17h22.51a15.35,15.35,0,0,1,15.35,15.35V304.7a17,17,0,0,0,17,17H514.2a17,17,0,0,0,17-17V282.19a15.34,15.34,0,0,1,15.34-15.35H569a17,17,0,0,0,17-17V223.28A17,17,0,0,0,569,206.31Z"/></g></g></g></svg>