<svg xmlns="http://www.w3.org/2000/svg" viewBox="0 0 1000 676.31"><defs><style>.cls-1{fill:#5b99f5;}</style></defs><title>Puzzle Piece</title><g id="Layer_2" data-name="Layer 2"><g id="Layer_26" data-name="Layer 26"><g id="Puzzle_Piece" data-name="Puzzle Piece"><path class="cls-1" d="M1000,339.7c-.82,64.73-53.78,117.44-118.51,118h-1.81a41.35,41.35,0,0,0-41.52,41.4v67.86A109.38,109.38,0,0,1,728.77,676.31H660.92a41.35,41.35,0,0,1-41.4-41.51c0-.62,0-1.23,0-1.84-.54-64.75-53.29-117.71-118-118.49A119.51,119.51,0,0,0,380.48,634v.45a41.51,41.51,0,0,1-41.39,41.88H271.22A109.37,109.37,0,0,1,161.85,566.94V499.07a41.34,41.34,0,0,0-41.52-41.4h-1.81C53.79,457.14.83,404.42,0,339.69A119.52,119.52,0,0,1,119.53,218.63H120a41.5,41.5,0,0,0,41.88-41.4V109.38A109.38,109.38,0,0,1,271.23,0h67.86a41.34,41.34,0,0,1,41.4,41.52c0,.6,0,1.21,0,1.82.54,64.74,53.26,117.69,118,118.5a119.52,119.52,0,0,0,121-119.51v-.45A41.51,41.51,0,0,1,660.92,0h67.85A109.38,109.38,0,0,1,838.15,109.38v67.85A41.5,41.5,0,0,0,880,218.63h.44A119.52,119.52,0,0,1,1000,339.7Z"/></g></g></g></svg>