<svg xmlns="http://www.w3.org/2000/svg" viewBox="0 0 1000 879.75"><defs><style>.cls-1{fill:#5b99f5;}.cls-2{fill:#48575e;}.cls-3{fill:#e1eaf1;}</style></defs><title>Binary Code</title><g id="Layer_2" data-name="Layer 2"><g id="Layer_26" data-name="Layer 26"><g id="Binary_Code" data-name="Binary Code"><path class="cls-1" d="M50.66,280.43a24.39,24.39,0,0,1,6.58-17.22A25.52,25.52,0,0,1,74,255.1a25.31,25.31,0,0,1-23.3-23.3,25.48,25.48,0,0,1-8.11,16.72,24.39,24.39,0,0,1-17.22,6.58,24.43,24.43,0,0,1-18-7.34,25.68,25.68,0,0,1,0-36,24.46,24.46,0,0,1,18-7.34A24.44,24.44,0,0,1,42.55,211a25.5,25.5,0,0,1,8.11,16.72A26.2,26.2,0,0,1,58,212.05a25,25,0,0,1,16-7.6,25.48,25.48,0,0,1-16.72-8.11A25.34,25.34,0,0,1,76,153.79a24.44,24.44,0,0,1,17.22,6.58,25.52,25.52,0,0,1,8.11,16.72,25.47,25.47,0,0,1,8.1-16.72,25.77,25.77,0,0,1,35.21.76,25.74,25.74,0,0,1,.76,35.21,25.5,25.5,0,0,1-16.72,8.11,25.53,25.53,0,0,1,16.72,8.1,25.81,25.81,0,0,1,0,34.45,25.44,25.44,0,0,1-16.72,8.1,25.55,25.55,0,0,1,16.72,8.11,25.81,25.81,0,0,1,0,34.45,25.44,25.44,0,0,1-16.72,8.1,25.5,25.5,0,0,1,16.72,8.11,25.81,25.81,0,0,1,0,34.45,25.44,25.44,0,0,1-16.72,8.1,25.5,25.5,0,0,1,16.72,8.11,25.81,25.81,0,0,1,0,34.45,25.44,25.44,0,0,1-16.72,8.1,25.5,25.5,0,0,1,16.72,8.11,25.79,25.79,0,0,1,0,34.44,25.41,25.41,0,0,1-16.72,8.11,25.53,25.53,0,0,1,16.72,8.1A24.44,24.44,0,0,1,152,483.07a25,25,0,1,1,8.1,18.74A25.4,25.4,0,0,1,152,485.1a25.45,25.45,0,0,1-8.11,16.71,25.81,25.81,0,0,1-34.45,0,25.4,25.4,0,0,1-8.1-16.71,25.45,25.45,0,0,1-8.11,16.71A24.36,24.36,0,0,1,76,508.4a24.36,24.36,0,0,1-17.23-6.59,25.4,25.4,0,0,1-8.1-16.71,25.45,25.45,0,0,1-8.11,16.71,24.36,24.36,0,0,1-17.22,6.59,24.43,24.43,0,0,1-18-7.35,25.68,25.68,0,0,1,0-36,24.46,24.46,0,0,1,18-7.34,24.48,24.48,0,0,1,18,7.34,24.51,24.51,0,0,1,7.35,18,24.43,24.43,0,0,1,6.58-17.23A25.51,25.51,0,0,1,74,457.74a25.39,25.39,0,0,1-16.72-8.11,25.82,25.82,0,0,1,0-34.44A25.48,25.48,0,0,1,74,407.08,25.42,25.42,0,0,1,57.24,399a25.84,25.84,0,0,1,0-34.45A25.48,25.48,0,0,1,74,356.42a25.42,25.42,0,0,1-16.72-8.1,25.84,25.84,0,0,1,0-34.45A25.48,25.48,0,0,1,74,305.76a25.42,25.42,0,0,1-16.72-8.1A24.4,24.4,0,0,1,50.66,280.43Zm74-76a25.34,25.34,0,0,1-23.3-23.31,25.1,25.1,0,0,1-7.6,16A26.27,26.27,0,0,1,78,204.45a26.56,26.56,0,0,1,23.31,23.3,26.2,26.2,0,0,1,7.34-15.7A25,25,0,0,1,124.62,204.45Zm0,50.65a25.31,25.31,0,0,1-23.3-23.3,25.1,25.1,0,0,1-7.6,16A26.2,26.2,0,0,1,78,255.1a26.55,26.55,0,0,1,23.31,23.31,26.26,26.26,0,0,1,7.34-15.71A25.15,25.15,0,0,1,124.62,255.1Zm-23.3,76a24.39,24.39,0,0,1,6.58-17.22,25.48,25.48,0,0,1,16.72-8.11,25.31,25.31,0,0,1-23.3-23.3,25.1,25.1,0,0,1-7.6,16A26.26,26.26,0,0,1,78,305.76a25.48,25.48,0,0,1,16.72,8.11A24.4,24.4,0,0,1,101.32,331.09Zm23.3,25.33a25.31,25.31,0,0,1-23.3-23.3,25.1,25.1,0,0,1-7.6,16A26.26,26.26,0,0,1,78,356.42a26.56,26.56,0,0,1,23.31,23.3,26.23,26.23,0,0,1,7.34-15.7A25.1,25.1,0,0,1,124.62,356.42Zm0,50.66a25.31,25.31,0,0,1-23.3-23.3,25.1,25.1,0,0,1-7.6,16A26.26,26.26,0,0,1,78,407.08a26.56,26.56,0,0,1,23.31,23.3,26.2,26.2,0,0,1,7.34-15.7A25,25,0,0,1,124.62,407.08Zm0,50.66a25.34,25.34,0,0,1-23.3-23.3,25.07,25.07,0,0,1-7.6,15.95A26.21,26.21,0,0,1,78,457.74,26.56,26.56,0,0,1,101.32,481a26.2,26.2,0,0,1,7.34-15.7A25,25,0,0,1,124.62,457.74Z"/><path class="cls-2" d="M282.68,179.12a25.47,25.47,0,0,1,42.55-18.75,25.56,25.56,0,0,1,8.1,16.72,25.52,25.52,0,0,1,8.11-16.72,25.84,25.84,0,0,1,34.45,0,25.56,25.56,0,0,1,8.1,16.72,25.48,25.48,0,0,1,8.11-16.72,25.84,25.84,0,0,1,34.45,0,25.56,25.56,0,0,1,8.1,16.72,25.43,25.43,0,0,1,8.11-16.72,25.46,25.46,0,0,1,36,36A25.48,25.48,0,0,1,462,204.45a26.56,26.56,0,0,1,23.3,23.3A25.41,25.41,0,0,1,493.42,211a25.46,25.46,0,0,1,36,36,25.42,25.42,0,0,1-16.71,8.1,25.52,25.52,0,0,1,16.71,8.11,25.81,25.81,0,0,1,0,34.45,25.42,25.42,0,0,1-16.71,8.1,25.48,25.48,0,0,1,16.71,8.11,25.81,25.81,0,0,1,0,34.45,25.42,25.42,0,0,1-16.71,8.1,25.48,25.48,0,0,1,16.71,8.11,25.81,25.81,0,0,1,0,34.45,25.42,25.42,0,0,1-16.71,8.1,25.48,25.48,0,0,1,16.71,8.11,25.46,25.46,0,0,1-36,36,25.34,25.34,0,0,1-8.11-16.71,25,25,0,0,1-7.6,15.95,26.16,26.16,0,0,1-15.7,7.35,25.51,25.51,0,0,1,16.71,8.1,25.46,25.46,0,0,1-36,36,25.36,25.36,0,0,1-8.11-16.71,25.49,25.49,0,0,1-8.1,16.71,25.81,25.81,0,0,1-34.45,0A25.41,25.41,0,0,1,384,485.1a25.49,25.49,0,0,1-8.1,16.71,25.81,25.81,0,0,1-34.45,0,25.45,25.45,0,0,1-8.11-16.71,25.49,25.49,0,0,1-8.1,16.71,25.47,25.47,0,0,1-36-36,25.51,25.51,0,0,1,16.72-8.1,25.34,25.34,0,0,1-23.3-23.3,25.48,25.48,0,0,1-8.11,16.71,25.46,25.46,0,0,1-36-36,25.48,25.48,0,0,1,16.72-8.11A25.42,25.42,0,0,1,238.6,399a25.84,25.84,0,0,1,0-34.45,25.48,25.48,0,0,1,16.72-8.11,25.42,25.42,0,0,1-16.72-8.1,25.84,25.84,0,0,1,0-34.45,25.48,25.48,0,0,1,16.72-8.11,25.42,25.42,0,0,1-16.72-8.1,25.84,25.84,0,0,1,0-34.45,25.52,25.52,0,0,1,16.72-8.11A25.42,25.42,0,0,1,238.6,247a25.47,25.47,0,0,1,36-36,25.55,25.55,0,0,1,8.11,16.72,26.15,26.15,0,0,1,7.34-15.7,25,25,0,0,1,16-7.6,25.48,25.48,0,0,1-16.72-8.11A24.38,24.38,0,0,1,282.68,179.12Zm23.3,76a25.31,25.31,0,0,1-23.3-23.3,25.15,25.15,0,0,1-7.6,16,26.2,26.2,0,0,1-15.71,7.34,26.55,26.55,0,0,1,23.31,23.31A26.2,26.2,0,0,1,290,262.7,25.15,25.15,0,0,1,306,255.1Zm0,50.66a25.31,25.31,0,0,1-23.3-23.3,25.15,25.15,0,0,1-7.6,16,26.26,26.26,0,0,1-15.71,7.34,26.55,26.55,0,0,1,23.31,23.31A26.2,26.2,0,0,1,290,313.36,25.1,25.1,0,0,1,306,305.76Zm0,50.66a25.31,25.31,0,0,1-23.3-23.3,25.15,25.15,0,0,1-7.6,16,26.26,26.26,0,0,1-15.71,7.34,26.56,26.56,0,0,1,23.31,23.3A26.17,26.17,0,0,1,290,364,25.1,25.1,0,0,1,306,356.42Zm0,50.66a25.31,25.31,0,0,1-23.3-23.3,25.15,25.15,0,0,1-7.6,16,26.26,26.26,0,0,1-15.71,7.34,26.56,26.56,0,0,1,23.31,23.3,26.15,26.15,0,0,1,7.34-15.7A25,25,0,0,1,306,407.08Zm128.67-177.3a24.36,24.36,0,0,1,6.59-17.23,25.47,25.47,0,0,1,16.71-8.1,25.36,25.36,0,0,1-23.3-23.31,25.49,25.49,0,0,1-8.1,16.72,25.81,25.81,0,0,1-34.45,0A25.41,25.41,0,0,1,384,181.14a25.49,25.49,0,0,1-8.1,16.72,25.81,25.81,0,0,1-34.45,0,25.46,25.46,0,0,1-8.11-16.72,25.09,25.09,0,0,1-7.59,16A26.27,26.27,0,0,1,310,204.45a25.53,25.53,0,0,1,16.72,8.1,25.84,25.84,0,0,1,0,34.45A25.44,25.44,0,0,1,310,255.1a25.55,25.55,0,0,1,16.72,8.11,25.84,25.84,0,0,1,0,34.45,25.44,25.44,0,0,1-16.72,8.1,25.5,25.5,0,0,1,16.72,8.11,25.84,25.84,0,0,1,0,34.45,25.44,25.44,0,0,1-16.72,8.1,25.5,25.5,0,0,1,16.72,8.11,25.84,25.84,0,0,1,0,34.45,25.44,25.44,0,0,1-16.72,8.1,25.5,25.5,0,0,1,16.72,8.11,25.82,25.82,0,0,1,0,34.44A25.41,25.41,0,0,1,310,457.74a26.53,26.53,0,0,1,23.3,23.3,25.48,25.48,0,0,1,8.11-16.71,25.81,25.81,0,0,1,34.45,0A25.51,25.51,0,0,1,384,481a25.43,25.43,0,0,1,8.11-16.71,25.81,25.81,0,0,1,34.45,0,25.51,25.51,0,0,1,8.1,16.71,26.16,26.16,0,0,1,7.35-15.7,25,25,0,0,1,15.95-7.6,25.34,25.34,0,0,1-16.71-8.11,25.79,25.79,0,0,1,0-34.44A25.43,25.43,0,0,1,458,407.08a25.37,25.37,0,0,1-16.71-8.1,25.81,25.81,0,0,1,0-34.45A25.43,25.43,0,0,1,458,356.42a25.37,25.37,0,0,1-16.71-8.1,25.81,25.81,0,0,1,0-34.45A25.43,25.43,0,0,1,458,305.76a25.37,25.37,0,0,1-16.71-8.1,25.81,25.81,0,0,1,0-34.45A25.48,25.48,0,0,1,458,255.1a25.37,25.37,0,0,1-16.71-8.1A24.34,24.34,0,0,1,434.65,229.78Zm74,25.32a25.34,25.34,0,0,1-23.3-23.3,25,25,0,0,1-7.6,16A26.15,26.15,0,0,1,462,255.1a26.56,26.56,0,0,1,23.3,23.31,26.21,26.21,0,0,1,7.35-15.71A25.12,25.12,0,0,1,508.61,255.1Zm0,50.66a25.34,25.34,0,0,1-23.3-23.3,25,25,0,0,1-7.6,16,26.2,26.2,0,0,1-15.7,7.34,26.56,26.56,0,0,1,23.3,23.31,26.21,26.21,0,0,1,7.35-15.71A25.07,25.07,0,0,1,508.61,305.76Zm-23.3,76a24.36,24.36,0,0,1,6.59-17.22,25.43,25.43,0,0,1,16.71-8.11,25.34,25.34,0,0,1-23.3-23.3,25,25,0,0,1-7.6,16,26.2,26.2,0,0,1-15.7,7.34,25.48,25.48,0,0,1,16.71,8.11A24.4,24.4,0,0,1,485.31,381.75Zm23.3,25.33a25.34,25.34,0,0,1-23.3-23.3,25,25,0,0,1-7.6,16,26.2,26.2,0,0,1-15.7,7.34,26.56,26.56,0,0,1,23.3,23.3,26.16,26.16,0,0,1,7.35-15.7A25,25,0,0,1,508.61,407.08Z"/><path class="cls-1" d="M616,280.43a24.39,24.39,0,0,1,6.58-17.22,25.52,25.52,0,0,1,16.72-8.11A25.31,25.31,0,0,1,616,231.8a25.48,25.48,0,0,1-8.11,16.72,25.33,25.33,0,1,1,0-37.49A25.5,25.5,0,0,1,616,227.75a26.2,26.2,0,0,1,7.34-15.7,25,25,0,0,1,16-7.6,25.48,25.48,0,0,1-16.72-8.11,25.47,25.47,0,0,1,36-36,25.57,25.57,0,0,1,8.11,16.72,25.47,25.47,0,0,1,8.1-16.72,25.47,25.47,0,0,1,36,36A25.5,25.5,0,0,1,694,204.45a25.53,25.53,0,0,1,16.72,8.1,25.84,25.84,0,0,1,0,34.45A25.44,25.44,0,0,1,694,255.1a25.55,25.55,0,0,1,16.72,8.11,25.84,25.84,0,0,1,0,34.45,25.44,25.44,0,0,1-16.72,8.1,25.5,25.5,0,0,1,16.72,8.11,25.84,25.84,0,0,1,0,34.45,25.44,25.44,0,0,1-16.72,8.1,25.5,25.5,0,0,1,16.72,8.11,25.84,25.84,0,0,1,0,34.45,25.44,25.44,0,0,1-16.72,8.1,25.5,25.5,0,0,1,16.72,8.11,25.82,25.82,0,0,1,0,34.44A25.41,25.41,0,0,1,694,457.74a25.53,25.53,0,0,1,16.72,8.1,24.48,24.48,0,0,1,6.58,17.23,25,25,0,1,1,8.11,18.74,25.45,25.45,0,0,1-8.11-16.71,25.49,25.49,0,0,1-8.1,16.71,25.81,25.81,0,0,1-34.45,0,25.4,25.4,0,0,1-8.1-16.71,25.5,25.5,0,0,1-8.11,16.71,25.81,25.81,0,0,1-34.45,0A25.4,25.4,0,0,1,616,485.1a25.45,25.45,0,0,1-8.11,16.71A25.7,25.7,0,1,1,616,483.07a24.43,24.43,0,0,1,6.58-17.23,25.51,25.51,0,0,1,16.72-8.1,25.39,25.39,0,0,1-16.72-8.11,25.82,25.82,0,0,1,0-34.44,25.48,25.48,0,0,1,16.72-8.11,25.42,25.42,0,0,1-16.72-8.1,25.84,25.84,0,0,1,0-34.45,25.48,25.48,0,0,1,16.72-8.11,25.42,25.42,0,0,1-16.72-8.1,25.84,25.84,0,0,1,0-34.45,25.48,25.48,0,0,1,16.72-8.11,25.42,25.42,0,0,1-16.72-8.1A24.4,24.4,0,0,1,616,280.43Zm74-76a25.34,25.34,0,0,1-23.3-23.31,25.15,25.15,0,0,1-7.6,16,26.27,26.27,0,0,1-15.71,7.35,26.56,26.56,0,0,1,23.31,23.3,26.15,26.15,0,0,1,7.34-15.7A25,25,0,0,1,690,204.45Zm0,50.65a25.31,25.31,0,0,1-23.3-23.3,25.15,25.15,0,0,1-7.6,16,26.2,26.2,0,0,1-15.71,7.34,26.55,26.55,0,0,1,23.31,23.31A26.2,26.2,0,0,1,674,262.7,25.15,25.15,0,0,1,690,255.1Zm-23.3,76a24.39,24.39,0,0,1,6.58-17.22A25.48,25.48,0,0,1,690,305.76a25.31,25.31,0,0,1-23.3-23.3,25.15,25.15,0,0,1-7.6,16,26.26,26.26,0,0,1-15.71,7.34,25.48,25.48,0,0,1,16.72,8.11A24.4,24.4,0,0,1,666.67,331.09ZM690,356.42a25.31,25.31,0,0,1-23.3-23.3,25.15,25.15,0,0,1-7.6,16,26.26,26.26,0,0,1-15.71,7.34,26.56,26.56,0,0,1,23.31,23.3A26.17,26.17,0,0,1,674,364,25.1,25.1,0,0,1,690,356.42Zm0,50.66a25.31,25.31,0,0,1-23.3-23.3,25.15,25.15,0,0,1-7.6,16,26.26,26.26,0,0,1-15.71,7.34,26.56,26.56,0,0,1,23.31,23.3,26.15,26.15,0,0,1,7.34-15.7A25,25,0,0,1,690,407.08Zm0,50.66a25.34,25.34,0,0,1-23.3-23.3,25.12,25.12,0,0,1-7.6,15.95,26.21,26.21,0,0,1-15.71,7.35A26.56,26.56,0,0,1,666.67,481a26.15,26.15,0,0,1,7.34-15.7A25,25,0,0,1,690,457.74Z"/><path class="cls-1" d="M848,280.43a24.4,24.4,0,0,1,6.59-17.22,25.52,25.52,0,0,1,16.72-8.11A25.34,25.34,0,0,1,848,231.8a25.51,25.51,0,0,1-8.1,16.72,25.33,25.33,0,1,1,0-37.49,25.53,25.53,0,0,1,8.1,16.72,26.22,26.22,0,0,1,7.35-15.7,25,25,0,0,1,16-7.6,25.48,25.48,0,0,1-16.72-8.11,25.47,25.47,0,0,1,36-36,25.56,25.56,0,0,1,8.1,16.72,25.52,25.52,0,0,1,8.11-16.72,25.47,25.47,0,0,1,36,36A25.52,25.52,0,0,1,926,204.45a25.56,25.56,0,0,1,16.72,8.1,25.84,25.84,0,0,1,0,34.45A25.47,25.47,0,0,1,926,255.1a25.57,25.57,0,0,1,16.72,8.11,25.84,25.84,0,0,1,0,34.45,25.47,25.47,0,0,1-16.72,8.1,25.52,25.52,0,0,1,16.72,8.11,25.84,25.84,0,0,1,0,34.45,25.47,25.47,0,0,1-16.72,8.1,25.52,25.52,0,0,1,16.72,8.11,25.84,25.84,0,0,1,0,34.45,25.47,25.47,0,0,1-16.72,8.1,25.52,25.52,0,0,1,16.72,8.11,25.82,25.82,0,0,1,0,34.44A25.43,25.43,0,0,1,926,457.74a25.56,25.56,0,0,1,16.72,8.1,24.48,24.48,0,0,1,6.58,17.23,25,25,0,1,1,8.11,18.74,25.36,25.36,0,0,1-8.11-16.71,25.49,25.49,0,0,1-8.1,16.71,25.81,25.81,0,0,1-34.45,0,25.45,25.45,0,0,1-8.11-16.71,25.49,25.49,0,0,1-8.1,16.71,25.81,25.81,0,0,1-34.45,0A25.45,25.45,0,0,1,848,485.1a25.49,25.49,0,0,1-8.1,16.71,25.72,25.72,0,1,1,8.1-18.74,24.44,24.44,0,0,1,6.59-17.23,25.51,25.51,0,0,1,16.72-8.1,25.39,25.39,0,0,1-16.72-8.11,25.79,25.79,0,0,1,0-34.44,25.48,25.48,0,0,1,16.72-8.11,25.42,25.42,0,0,1-16.72-8.1,25.81,25.81,0,0,1,0-34.45,25.48,25.48,0,0,1,16.72-8.11,25.42,25.42,0,0,1-16.72-8.1,25.81,25.81,0,0,1,0-34.45,25.48,25.48,0,0,1,16.72-8.11,25.42,25.42,0,0,1-16.72-8.1A24.41,24.41,0,0,1,848,280.43Zm74-76a25.36,25.36,0,0,1-23.31-23.31,25,25,0,0,1-7.6,16,26.22,26.22,0,0,1-15.7,7.35,26.56,26.56,0,0,1,23.3,23.3,26.22,26.22,0,0,1,7.35-15.7A25,25,0,0,1,922,204.45Zm0,50.65a25.34,25.34,0,0,1-23.31-23.3,25,25,0,0,1-7.6,16,26.15,26.15,0,0,1-15.7,7.34,26.56,26.56,0,0,1,23.3,23.31A26.27,26.27,0,0,1,906,262.7,25.15,25.15,0,0,1,922,255.1Zm-23.31,76a24.4,24.4,0,0,1,6.59-17.22A25.46,25.46,0,0,1,922,305.76a25.34,25.34,0,0,1-23.31-23.3,25,25,0,0,1-7.6,16,26.2,26.2,0,0,1-15.7,7.34,25.52,25.52,0,0,1,16.72,8.11A24.44,24.44,0,0,1,898.68,331.09ZM922,356.42a25.34,25.34,0,0,1-23.31-23.3,25,25,0,0,1-7.6,16,26.2,26.2,0,0,1-15.7,7.34,26.56,26.56,0,0,1,23.3,23.3A26.24,26.24,0,0,1,906,364,25.1,25.1,0,0,1,922,356.42Zm0,50.66a25.34,25.34,0,0,1-23.31-23.3,25,25,0,0,1-7.6,16,26.2,26.2,0,0,1-15.7,7.34,26.56,26.56,0,0,1,23.3,23.3,26.22,26.22,0,0,1,7.35-15.7A25,25,0,0,1,922,407.08Zm0,50.66a25.36,25.36,0,0,1-23.31-23.3,25,25,0,0,1-7.6,15.95,26.16,26.16,0,0,1-15.7,7.35,26.56,26.56,0,0,1,23.3,23.3,26.22,26.22,0,0,1,7.35-15.7A25,25,0,0,1,922,457.74Z"/><path class="cls-2" d="M65.35,550.47a25.1,25.1,0,0,1,25.33-25.33,24.44,24.44,0,0,1,17.23,6.59,25.51,25.51,0,0,1,8.1,16.72,25.42,25.42,0,0,1,8.1-16.72,25.81,25.81,0,0,1,34.45,0,25.48,25.48,0,0,1,8.11,16.72,25.39,25.39,0,0,1,8.11-16.72,25.79,25.79,0,0,1,34.44,0,25.48,25.48,0,0,1,8.11,16.72,25.42,25.42,0,0,1,8.1-16.72,25.47,25.47,0,0,1,36,36,25.44,25.44,0,0,1-16.72,8.1A26.56,26.56,0,0,1,268,599.1a25.42,25.42,0,0,1,8.1-16.71,25.46,25.46,0,0,1,36,36,25.41,25.41,0,0,1-16.72,8.11,25.5,25.5,0,0,1,16.72,8.11,25.79,25.79,0,0,1,0,34.44,25.41,25.41,0,0,1-16.72,8.11,25.53,25.53,0,0,1,16.72,8.1,25.81,25.81,0,0,1,0,34.45,25.45,25.45,0,0,1-16.72,8.11,25.53,25.53,0,0,1,16.72,8.1,25.81,25.81,0,0,1,0,34.45,25.5,25.5,0,0,1-16.72,8.11,25.53,25.53,0,0,1,16.72,8.1,25.47,25.47,0,0,1-36,36,25.42,25.42,0,0,1-8.1-16.72,25.1,25.1,0,0,1-7.6,16,26.2,26.2,0,0,1-15.71,7.34,25.55,25.55,0,0,1,16.72,8.11,25.47,25.47,0,0,1-36,36,25.42,25.42,0,0,1-8.1-16.72,25.48,25.48,0,0,1-8.11,16.72,25.82,25.82,0,0,1-34.44,0,25.39,25.39,0,0,1-8.11-16.72,25.48,25.48,0,0,1-8.11,16.72,25.84,25.84,0,0,1-34.45,0,25.42,25.42,0,0,1-8.1-16.72,25.51,25.51,0,0,1-8.1,16.72,24.43,24.43,0,0,1-17.23,6.58A25.46,25.46,0,0,1,71.94,837.2a25.48,25.48,0,0,1,16.71-8.11,25.34,25.34,0,0,1-23.3-23.3,25.51,25.51,0,0,1-8.1,16.72A24.43,24.43,0,0,1,40,829.09a25.08,25.08,0,0,1-25.33-25.32,24.36,24.36,0,0,1,6.59-17.23A25.49,25.49,0,0,1,38,778.44a25.46,25.46,0,0,1-16.72-8.11,25.81,25.81,0,0,1,0-34.45A25.49,25.49,0,0,1,38,727.78a25.41,25.41,0,0,1-16.72-8.11,25.81,25.81,0,0,1,0-34.45A25.49,25.49,0,0,1,38,677.12,25.36,25.36,0,0,1,21.28,669a25.79,25.79,0,0,1,0-34.44A25.46,25.46,0,0,1,38,626.46a25.36,25.36,0,0,1-16.72-8.11,25.73,25.73,0,0,1,.76-35.2,24.47,24.47,0,0,1,18-7.35,24.44,24.44,0,0,1,17.23,6.59,25.51,25.51,0,0,1,8.1,16.71,26.24,26.24,0,0,1,7.35-15.7,25,25,0,0,1,16-7.6,25.37,25.37,0,0,1-16.71-8.1A24.36,24.36,0,0,1,65.35,550.47Zm23.3,76a25.36,25.36,0,0,1-23.3-23.3,25,25,0,0,1-7.6,16,26.16,26.16,0,0,1-15.7,7.35,25.65,25.65,0,0,1,15.7,7.6,25.65,25.65,0,0,1,7.6,15.7,26.22,26.22,0,0,1,7.35-15.7A25,25,0,0,1,88.65,626.46Zm0,50.66a25.36,25.36,0,0,1-23.3-23.3,25,25,0,0,1-7.6,15.95,26.16,26.16,0,0,1-15.7,7.35,25.65,25.65,0,0,1,15.7,7.6,25.65,25.65,0,0,1,7.6,15.7,26.22,26.22,0,0,1,7.35-15.7A25,25,0,0,1,88.65,677.12Zm0,50.66a25.36,25.36,0,0,1-23.3-23.31,25,25,0,0,1-7.6,16,26.22,26.22,0,0,1-15.7,7.35,25.65,25.65,0,0,1,15.7,7.6,25.65,25.65,0,0,1,7.6,15.7,26.22,26.22,0,0,1,7.35-15.7A25,25,0,0,1,88.65,727.78Zm0,50.66a25.36,25.36,0,0,1-23.3-23.31,25,25,0,0,1-7.6,16,26.22,26.22,0,0,1-15.7,7.35A25.69,25.69,0,0,1,57.75,786a25.7,25.7,0,0,1,7.6,15.71A26.27,26.27,0,0,1,72.7,786,25.06,25.06,0,0,1,88.65,778.44ZM217.33,601.13a24.39,24.39,0,0,1,6.58-17.22,25.48,25.48,0,0,1,16.72-8.11,25.31,25.31,0,0,1-23.3-23.3,25.48,25.48,0,0,1-8.11,16.72,25.82,25.82,0,0,1-34.44,0,25.39,25.39,0,0,1-8.11-16.72,25.48,25.48,0,0,1-8.11,16.72,25.84,25.84,0,0,1-34.45,0A25.42,25.42,0,0,1,116,552.5a25,25,0,0,1-7.6,16,26.2,26.2,0,0,1-15.7,7.34,25.52,25.52,0,0,1,16.72,8.11,25.82,25.82,0,0,1,0,34.44,25.43,25.43,0,0,1-16.72,8.11,25.52,25.52,0,0,1,16.72,8.11,25.82,25.82,0,0,1,0,34.44,25.43,25.43,0,0,1-16.72,8.11,25.56,25.56,0,0,1,16.72,8.1,25.84,25.84,0,0,1,0,34.45,25.48,25.48,0,0,1-16.72,8.11,25.56,25.56,0,0,1,16.72,8.1,25.84,25.84,0,0,1,0,34.45,25.52,25.52,0,0,1-16.72,8.11,25.56,25.56,0,0,1,16.72,8.1,25.84,25.84,0,0,1,0,34.45,25.47,25.47,0,0,1-16.72,8.1A26.56,26.56,0,0,1,116,852.4a25.44,25.44,0,0,1,8.1-16.72,25.81,25.81,0,0,1,34.45,0,25.5,25.5,0,0,1,8.11,16.72,25.41,25.41,0,0,1,8.11-16.72,25.79,25.79,0,0,1,34.44,0,25.5,25.5,0,0,1,8.11,16.72,26.26,26.26,0,0,1,7.34-15.71,25.15,25.15,0,0,1,16-7.6,25.42,25.42,0,0,1-16.72-8.1,25.84,25.84,0,0,1,0-34.45,25.51,25.51,0,0,1,16.72-8.1,25.48,25.48,0,0,1-16.72-8.11,25.84,25.84,0,0,1,0-34.45,25.51,25.51,0,0,1,16.72-8.1,25.43,25.43,0,0,1-16.72-8.11,25.84,25.84,0,0,1,0-34.45,25.51,25.51,0,0,1,16.72-8.1A25.39,25.39,0,0,1,223.91,669a25.82,25.82,0,0,1,0-34.44,25.48,25.48,0,0,1,16.72-8.11,25.39,25.39,0,0,1-16.72-8.11A24.36,24.36,0,0,1,217.33,601.13Zm74,25.33a25.34,25.34,0,0,1-23.3-23.3,25,25,0,0,1-7.6,16,26.21,26.21,0,0,1-15.71,7.35A26.56,26.56,0,0,1,268,649.76a26.15,26.15,0,0,1,7.34-15.7A25,25,0,0,1,291.29,626.46Zm0,50.66a25.34,25.34,0,0,1-23.3-23.3,25.1,25.1,0,0,1-7.6,15.95,26.21,26.21,0,0,1-15.71,7.35A26.56,26.56,0,0,1,268,700.42a26.15,26.15,0,0,1,7.34-15.7A25,25,0,0,1,291.29,677.12Zm-23.3,76a24.42,24.42,0,0,1,6.58-17.23,25.51,25.51,0,0,1,16.72-8.1A25.34,25.34,0,0,1,268,704.47a25.1,25.1,0,0,1-7.6,16,26.27,26.27,0,0,1-15.71,7.35,25.53,25.53,0,0,1,16.72,8.1A24.42,24.42,0,0,1,268,753.11Zm23.3,25.33A25.34,25.34,0,0,1,268,755.13a25.1,25.1,0,0,1-7.6,16,26.27,26.27,0,0,1-15.71,7.35A26.53,26.53,0,0,1,268,801.74,26.2,26.2,0,0,1,275.33,786,25.09,25.09,0,0,1,291.29,778.44Z"/><path class="cls-2" d="M398.68,550.47a25.47,25.47,0,0,1,42.56-18.74,25.51,25.51,0,0,1,8.1,16.72,25.48,25.48,0,0,1,8.11-16.72,25.81,25.81,0,0,1,34.45,0,25.51,25.51,0,0,1,8.1,16.72,25.39,25.39,0,0,1,8.11-16.72,25.79,25.79,0,0,1,34.44,0,25.48,25.48,0,0,1,8.11,16.72,25.39,25.39,0,0,1,8.11-16.72,25.46,25.46,0,0,1,36,36A25.42,25.42,0,0,1,578,575.8a26.56,26.56,0,0,1,23.3,23.3,25.42,25.42,0,0,1,8.1-16.71,25.46,25.46,0,0,1,36,36,25.39,25.39,0,0,1-16.72,8.11,25.48,25.48,0,0,1,16.72,8.11,25.79,25.79,0,0,1,0,34.44,25.39,25.39,0,0,1-16.72,8.11,25.51,25.51,0,0,1,16.72,8.1,25.81,25.81,0,0,1,0,34.45,25.43,25.43,0,0,1-16.72,8.11,25.51,25.51,0,0,1,16.72,8.1,25.81,25.81,0,0,1,0,34.45,25.48,25.48,0,0,1-16.72,8.11,25.51,25.51,0,0,1,16.72,8.1,25.47,25.47,0,0,1-36,36,25.42,25.42,0,0,1-8.1-16.72,25,25,0,0,1-7.6,16,26.17,26.17,0,0,1-15.7,7.34,25.52,25.52,0,0,1,16.71,8.11,25.46,25.46,0,0,1-36,36,25.39,25.39,0,0,1-8.11-16.72,25.48,25.48,0,0,1-8.11,16.72,25.82,25.82,0,0,1-34.44,0A25.39,25.39,0,0,1,500,856.45a25.51,25.51,0,0,1-8.1,16.72,25.84,25.84,0,0,1-34.45,0,25.48,25.48,0,0,1-8.11-16.72,25.51,25.51,0,0,1-8.1,16.72,25.47,25.47,0,0,1-36-36A25.52,25.52,0,0,1,422,829.09a25.34,25.34,0,0,1-23.31-23.3,25.51,25.51,0,0,1-8.1,16.72,25.47,25.47,0,0,1-36-36,25.51,25.51,0,0,1,16.72-8.1,25.48,25.48,0,0,1-16.72-8.11,25.84,25.84,0,0,1,0-34.45,25.51,25.51,0,0,1,16.72-8.1,25.43,25.43,0,0,1-16.72-8.11,25.84,25.84,0,0,1,0-34.45,25.51,25.51,0,0,1,16.72-8.1A25.39,25.39,0,0,1,354.61,669a25.82,25.82,0,0,1,0-34.44,25.48,25.48,0,0,1,16.72-8.11,25.39,25.39,0,0,1-16.72-8.11,25.46,25.46,0,0,1,36-36,25.51,25.51,0,0,1,8.1,16.71A26.24,26.24,0,0,1,406,583.4a25,25,0,0,1,16-7.6,25.42,25.42,0,0,1-16.72-8.1A24.41,24.41,0,0,1,398.68,550.47Zm23.31,76a25.36,25.36,0,0,1-23.31-23.3,25,25,0,0,1-7.59,16,26.21,26.21,0,0,1-15.71,7.35,26.53,26.53,0,0,1,23.3,23.3,26.22,26.22,0,0,1,7.35-15.7A25,25,0,0,1,422,626.46Zm0,50.66a25.36,25.36,0,0,1-23.31-23.3,25.09,25.09,0,0,1-7.59,15.95,26.21,26.21,0,0,1-15.71,7.35,26.53,26.53,0,0,1,23.3,23.3,26.22,26.22,0,0,1,7.35-15.7A25,25,0,0,1,422,677.12Zm0,50.66a25.36,25.36,0,0,1-23.31-23.31,25.09,25.09,0,0,1-7.59,16,26.27,26.27,0,0,1-15.71,7.35,26.53,26.53,0,0,1,23.3,23.3,26.22,26.22,0,0,1,7.35-15.7A25,25,0,0,1,422,727.78Zm0,50.66a25.36,25.36,0,0,1-23.31-23.31,25.09,25.09,0,0,1-7.59,16,26.27,26.27,0,0,1-15.71,7.35,26.51,26.51,0,0,1,23.3,23.3A26.27,26.27,0,0,1,406,786,25.09,25.09,0,0,1,422,778.44ZM550.66,601.13a24.36,24.36,0,0,1,6.59-17.22A25.43,25.43,0,0,1,574,575.8a25.34,25.34,0,0,1-23.3-23.3,25.48,25.48,0,0,1-8.11,16.72,25.82,25.82,0,0,1-34.44,0A25.39,25.39,0,0,1,500,552.5a25.51,25.51,0,0,1-8.1,16.72,25.84,25.84,0,0,1-34.45,0,25.48,25.48,0,0,1-8.11-16.72,25,25,0,0,1-7.6,16A26.2,26.2,0,0,1,426,575.8a25.5,25.5,0,0,1,16.72,8.11,25.82,25.82,0,0,1,0,34.44A25.41,25.41,0,0,1,426,626.46a25.5,25.5,0,0,1,16.72,8.11,25.82,25.82,0,0,1,0,34.44A25.41,25.41,0,0,1,426,677.12a25.53,25.53,0,0,1,16.72,8.1,25.84,25.84,0,0,1,0,34.45A25.45,25.45,0,0,1,426,727.78a25.53,25.53,0,0,1,16.72,8.1,25.84,25.84,0,0,1,0,34.45A25.5,25.5,0,0,1,426,778.44a25.53,25.53,0,0,1,16.72,8.1,25.84,25.84,0,0,1,0,34.45,25.44,25.44,0,0,1-16.72,8.1,26.56,26.56,0,0,1,23.3,23.31,25.5,25.5,0,0,1,8.11-16.72,25.81,25.81,0,0,1,34.45,0A25.53,25.53,0,0,1,500,852.4a25.41,25.41,0,0,1,8.11-16.72,25.79,25.79,0,0,1,34.44,0,25.5,25.5,0,0,1,8.11,16.72A26.21,26.21,0,0,1,558,836.69a25.1,25.1,0,0,1,16-7.6,25.37,25.37,0,0,1-16.71-8.1,25.81,25.81,0,0,1,0-34.45,25.47,25.47,0,0,1,16.71-8.1,25.43,25.43,0,0,1-16.71-8.11,25.81,25.81,0,0,1,0-34.45,25.47,25.47,0,0,1,16.71-8.1,25.39,25.39,0,0,1-16.71-8.11,25.81,25.81,0,0,1,0-34.45,25.47,25.47,0,0,1,16.71-8.1A25.34,25.34,0,0,1,557.25,669a25.79,25.79,0,0,1,0-34.44A25.43,25.43,0,0,1,574,626.46a25.34,25.34,0,0,1-16.71-8.11A24.32,24.32,0,0,1,550.66,601.13Zm74,25.33a25.34,25.34,0,0,1-23.3-23.3,25,25,0,0,1-7.6,16,26.18,26.18,0,0,1-15.7,7.35,26.56,26.56,0,0,1,23.3,23.3,26.2,26.2,0,0,1,7.34-15.7A25,25,0,0,1,624.62,626.46Zm0,50.66a25.34,25.34,0,0,1-23.3-23.3,25,25,0,0,1-7.6,15.95,26.18,26.18,0,0,1-15.7,7.35,26.56,26.56,0,0,1,23.3,23.3,26.2,26.2,0,0,1,7.34-15.7A25,25,0,0,1,624.62,677.12Zm-23.3,76a24.42,24.42,0,0,1,6.58-17.23,25.51,25.51,0,0,1,16.72-8.1,25.34,25.34,0,0,1-23.3-23.31,25,25,0,0,1-7.6,16,26.24,26.24,0,0,1-15.7,7.35,25.51,25.51,0,0,1,16.71,8.1A24.42,24.42,0,0,1,601.32,753.11Zm23.3,25.33a25.34,25.34,0,0,1-23.3-23.31,25,25,0,0,1-7.6,16,26.24,26.24,0,0,1-15.7,7.35,26.53,26.53,0,0,1,23.3,23.3A26.26,26.26,0,0,1,608.66,786,25.09,25.09,0,0,1,624.62,778.44Z"/><path class="cls-2" d="M732,550.47a25.46,25.46,0,0,1,42.55-18.74,25.52,25.52,0,0,1,8.11,16.72,25.42,25.42,0,0,1,8.1-16.72,25.81,25.81,0,0,1,34.45,0,25.51,25.51,0,0,1,8.1,16.72,25.48,25.48,0,0,1,8.11-16.72,25.81,25.81,0,0,1,34.45,0,25.51,25.51,0,0,1,8.1,16.72,25.43,25.43,0,0,1,8.11-16.72,25.47,25.47,0,0,1,36,36,25.47,25.47,0,0,1-16.72,8.1,26.56,26.56,0,0,1,23.3,23.3,25.38,25.38,0,0,1,8.11-16.71,25.46,25.46,0,0,1,36,36A25.38,25.38,0,0,1,962,626.46a25.48,25.48,0,0,1,16.71,8.11,25.79,25.79,0,0,1,0,34.44A25.38,25.38,0,0,1,962,677.12a25.51,25.51,0,0,1,16.71,8.1,25.81,25.81,0,0,1,0,34.45A25.43,25.43,0,0,1,962,727.78a25.51,25.51,0,0,1,16.71,8.1,25.81,25.81,0,0,1,0,34.45A25.48,25.48,0,0,1,962,778.44a25.51,25.51,0,0,1,16.71,8.1,25.46,25.46,0,0,1-36,36,25.39,25.39,0,0,1-8.11-16.72,25,25,0,0,1-7.6,16,26.15,26.15,0,0,1-15.7,7.34,25.57,25.57,0,0,1,16.72,8.11,25.47,25.47,0,0,1-36,36A25.43,25.43,0,0,1,884,856.45a25.51,25.51,0,0,1-8.1,16.72,25.84,25.84,0,0,1-34.45,0,25.48,25.48,0,0,1-8.11-16.72,25.51,25.51,0,0,1-8.1,16.72,25.84,25.84,0,0,1-34.45,0,25.42,25.42,0,0,1-8.1-16.72,25.52,25.52,0,0,1-8.11,16.72,25.47,25.47,0,0,1-36-36,25.52,25.52,0,0,1,16.72-8.11,25.31,25.31,0,0,1-23.3-23.3,25.48,25.48,0,0,1-8.11,16.72,25.47,25.47,0,0,1-36-36,25.51,25.51,0,0,1,16.72-8.1,25.48,25.48,0,0,1-16.72-8.11,25.84,25.84,0,0,1,0-34.45,25.51,25.51,0,0,1,16.72-8.1,25.43,25.43,0,0,1-16.72-8.11,25.84,25.84,0,0,1,0-34.45,25.51,25.51,0,0,1,16.72-8.1A25.39,25.39,0,0,1,687.94,669a25.82,25.82,0,0,1,0-34.44,25.48,25.48,0,0,1,16.72-8.11,25.39,25.39,0,0,1-16.72-8.11,25.46,25.46,0,0,1,36-36A25.48,25.48,0,0,1,732,599.1a26.23,26.23,0,0,1,7.34-15.7,25,25,0,0,1,16-7.6,25.42,25.42,0,0,1-16.72-8.1A24.4,24.4,0,0,1,732,550.47Zm23.3,76a25.34,25.34,0,0,1-23.3-23.3,25,25,0,0,1-7.6,16,26.18,26.18,0,0,1-15.71,7.35A26.56,26.56,0,0,1,732,649.76a26.2,26.2,0,0,1,7.34-15.7A25,25,0,0,1,755.32,626.46Zm0,50.66a25.34,25.34,0,0,1-23.3-23.3,25.1,25.1,0,0,1-7.6,15.95,26.18,26.18,0,0,1-15.71,7.35A26.56,26.56,0,0,1,732,700.42a26.2,26.2,0,0,1,7.34-15.7A25,25,0,0,1,755.32,677.12Zm0,50.66A25.34,25.34,0,0,1,732,704.47a25.1,25.1,0,0,1-7.6,16,26.24,26.24,0,0,1-15.71,7.35A26.56,26.56,0,0,1,732,751.08a26.2,26.2,0,0,1,7.34-15.7A25,25,0,0,1,755.32,727.78Zm0,50.66A25.34,25.34,0,0,1,732,755.13a25.1,25.1,0,0,1-7.6,16,26.24,26.24,0,0,1-15.71,7.35A26.53,26.53,0,0,1,732,801.74,26.26,26.26,0,0,1,739.36,786,25.09,25.09,0,0,1,755.32,778.44ZM884,601.13a24.4,24.4,0,0,1,6.59-17.22,25.46,25.46,0,0,1,16.72-8.11A25.34,25.34,0,0,1,884,552.5a25.51,25.51,0,0,1-8.1,16.72,25.84,25.84,0,0,1-34.45,0,25.48,25.48,0,0,1-8.11-16.72,25.51,25.51,0,0,1-8.1,16.72,25.84,25.84,0,0,1-34.45,0,25.42,25.42,0,0,1-8.1-16.72,25.15,25.15,0,0,1-7.6,16,26.26,26.26,0,0,1-15.71,7.34,25.48,25.48,0,0,1,16.72,8.11,25.79,25.79,0,0,1,0,34.44,25.39,25.39,0,0,1-16.72,8.11,25.48,25.48,0,0,1,16.72,8.11,25.79,25.79,0,0,1,0,34.44,25.39,25.39,0,0,1-16.72,8.11,25.51,25.51,0,0,1,16.72,8.1,25.81,25.81,0,0,1,0,34.45,25.43,25.43,0,0,1-16.72,8.11,25.51,25.51,0,0,1,16.72,8.1,25.81,25.81,0,0,1,0,34.45,25.48,25.48,0,0,1-16.72,8.11,25.51,25.51,0,0,1,16.72,8.1,25.81,25.81,0,0,1,0,34.45,25.42,25.42,0,0,1-16.72,8.1,26.55,26.55,0,0,1,23.31,23.31,25.44,25.44,0,0,1,8.1-16.72,25.81,25.81,0,0,1,34.45,0,25.53,25.53,0,0,1,8.1,16.72,25.5,25.5,0,0,1,8.11-16.72,25.81,25.81,0,0,1,34.45,0A25.53,25.53,0,0,1,884,852.4a26.27,26.27,0,0,1,7.35-15.71,25.15,25.15,0,0,1,16-7.6,25.4,25.4,0,0,1-16.72-8.1,25.81,25.81,0,0,1,0-34.45,25.49,25.49,0,0,1,16.72-8.1,25.46,25.46,0,0,1-16.72-8.11,25.81,25.81,0,0,1,0-34.45,25.49,25.49,0,0,1,16.72-8.1,25.41,25.41,0,0,1-16.72-8.11,25.81,25.81,0,0,1,0-34.45,25.49,25.49,0,0,1,16.72-8.1A25.36,25.36,0,0,1,890.58,669a25.79,25.79,0,0,1,0-34.44,25.46,25.46,0,0,1,16.72-8.11,25.36,25.36,0,0,1-16.72-8.11A24.37,24.37,0,0,1,884,601.13Zm74,25.33a25.36,25.36,0,0,1-23.3-23.3,25,25,0,0,1-7.6,16,26.16,26.16,0,0,1-15.7,7.35,26.56,26.56,0,0,1,23.3,23.3,26.16,26.16,0,0,1,7.35-15.7A25,25,0,0,1,958,626.46Zm0,50.66a25.36,25.36,0,0,1-23.3-23.3,25,25,0,0,1-7.6,15.95,26.16,26.16,0,0,1-15.7,7.35,26.56,26.56,0,0,1,23.3,23.3,26.16,26.16,0,0,1,7.35-15.7A25,25,0,0,1,958,677.12Zm-23.3,76a24.38,24.38,0,0,1,6.59-17.23,25.47,25.47,0,0,1,16.71-8.1,25.36,25.36,0,0,1-23.3-23.31,25,25,0,0,1-7.6,16,26.22,26.22,0,0,1-15.7,7.35,25.56,25.56,0,0,1,16.72,8.1A24.46,24.46,0,0,1,934.65,753.11ZM958,778.44a25.36,25.36,0,0,1-23.3-23.31,25,25,0,0,1-7.6,16,26.22,26.22,0,0,1-15.7,7.35,26.53,26.53,0,0,1,23.3,23.3A26.21,26.21,0,0,1,942,786,25.09,25.09,0,0,1,958,778.44Z"/><path class="cls-3" d="M635.69,103.22H220.28A51.61,51.61,0,1,1,220.28,0H635.69a51.61,51.61,0,0,1,0,103.22Z"/><circle class="cls-2" cx="77.34" cy="51.61" r="51.61"/><circle class="cls-2" cx="778.62" cy="51.61" r="51.61"/><circle class="cls-2" cx="922.66" cy="51.61" r="51.61"/></g></g></g></svg>