<svg xmlns="http://www.w3.org/2000/svg" viewBox="0 0 1000 554.43"><defs><style>.cls-1{fill:#48575e;}.cls-2{fill:#e1eaf1;}.cls-3{fill:#5b99f5;}</style></defs><title>Solving</title><g id="Layer_2" data-name="Layer 2"><g id="Layer_26" data-name="Layer 26"><g id="Solving"><path class="cls-1" d="M185.61,302.5a52.51,52.51,0,0,0-52.5-52.5H116.88a52.5,52.5,0,0,0-52.49,52.5v1.92H185.61Z"/><rect class="cls-1" y="304.43" width="499.99" height="250" rx="52.1"/><path class="cls-2" d="M697.9,54.42H685.61A54.43,54.43,0,0,0,631.19,0H618.8a54.41,54.41,0,0,0-54.41,54.42H435.61A54.42,54.42,0,0,0,381.19,0H368.81a54.42,54.42,0,0,0-54.42,54.42h-12.3A52.1,52.1,0,0,0,250,106.52v145.8a52.11,52.11,0,0,0,52.09,52.11H697.9A52.11,52.11,0,0,0,750,252.32V106.52A52.11,52.11,0,0,0,697.9,54.42Z"/><rect class="cls-3" x="499.99" y="304.43" width="500.01" height="250" rx="52.1"/><path class="cls-3" d="M935.61,302.5a52.51,52.51,0,0,0-52.5-52.5H866.88a52.5,52.5,0,0,0-52.49,52.5v1.92H935.61Z"/></g></g></g></svg>