<svg xmlns="http://www.w3.org/2000/svg" viewBox="0 0 1000 1000"><defs><style>.cls-1{fill:#48575e;}.cls-2{fill:#5b99f5;}.cls-3{fill:#e1eaf1;}</style></defs><title>Problem Solved</title><g id="Layer_2" data-name="Layer 2"><g id="Layer_26" data-name="Layer 26"><g id="Problem_Solved" data-name="Problem Solved"><path class="cls-1" d="M356.58,254.46c2.25,43.81,38.32,78.91,82.18,80l2.31,0h.22c.63,0,1.24,0,1.86,0s1.43,0,2.14-.08l1.65-.1h.21l1.3-.11c.62-.05,1.23-.11,1.84-.18s1.09-.12,1.63-.2l.18,0a.07.07,0,0,0,.06,0l.54-.07,1.23-.18,1.47-.24.72-.12,1.41-.27,1.77-.37c.56-.12,1.11-.25,1.66-.39l1.19-.29,1.06-.28,1.11-.31c.69-.2,1.38-.4,2.06-.62l1.26-.4c.68-.23,1.35-.46,2-.7A22.56,22.56,0,0,1,500,350.66V500H350.66a22.56,22.56,0,0,0-21.11,30.35c.24.66.47,1.33.69,2s.44,1.34.64,2c.14.45.27.9.4,1.36s.21.71.3,1.06.19.71.28,1.06c.18.7.35,1.4.5,2.1.11.41.19.82.28,1.24s.19.85.27,1.28.18.91.26,1.37.12.67.17,1,.14.81.2,1.22.17,1.1.24,1.66a1,1,0,0,1,0,.24.09.09,0,0,0,0,0c.06.44.11.89.16,1.34v0c0,.07,0,.13,0,.2a.5.5,0,0,1,0,.17q.11.9.18,1.8c0,.43.08.87.11,1.3,0,.07,0,.14,0,.21,0,.55.07,1.1.1,1.66s.07,1.42.08,2.13c0,.27,0,.53,0,.8s0,.54,0,.81,0,.26,0,.39V559c0,.61,0,1.22,0,1.83,0,.21,0,.42,0,.63a.86.86,0,0,1,0,.16c0,.47,0,1-.05,1.42,0,.29,0,.57-.05.86s0,.67-.06,1,0,.39,0,.58,0,.4,0,.6c0,.42-.07.84-.11,1.25-.06.6-.12,1.19-.19,1.78-.09.75-.19,1.49-.3,2.23s-.21,1.33-.32,2-.21,1.21-.33,1.81a1.84,1.84,0,0,1-.05.25s0,0,0,.06c-.12.6-.25,1.2-.38,1.8-.2.91-.42,1.82-.65,2.72-.11.46-.23.92-.36,1.37-.23.84-.47,1.68-.73,2.52s-.51,1.61-.78,2.4-.5,1.44-.77,2.16A85.56,85.56,0,0,1,282,637.24q-2.25.93-4.56,1.72l-1.32.44c-.48.16-1,.31-1.45.45l-.16,0-.26.08a.11.11,0,0,1-.08,0c-.52.16-1.05.31-1.58.45l-.07,0-.05,0c-.14,0-.29.08-.44.12-.54.15-1.08.29-1.63.42s-1.26.31-1.89.45h-.05c-.47.11-.93.21-1.4.3h0l-1,.2-1.1.2-2.09.35-2.1.29-1.8.21-1,.1-.77.07-.27,0c-.33,0-.67.06-1,.07l-1.62.1a84.15,84.15,0,0,1-8.7,0l-1.62-.1c-.54,0-1.07-.07-1.61-.12-1.07-.1-2.13-.21-3.19-.35l-2.1-.29-2.09-.35c-.7-.12-1.39-.25-2.08-.4l-1.5-.32-.08,0-.9-.21-.91-.22c-.46-.11-.9-.22-1.35-.35l-.28-.07-.56-.16-1.32-.37-.26-.08-.08,0c-.62-.18-1.25-.38-1.87-.58l-1.32-.44c-.86-.3-1.71-.61-2.56-.93h0A85.26,85.26,0,0,1,168.1,580c-.22-.89-.44-1.79-.64-2.69l-.39-1.86a2.21,2.21,0,0,0,0-.25s0,0,0-.08c-.11-.57-.21-1.16-.32-1.73s-.22-1.32-.32-2c-.14-1-.27-1.94-.37-2.93-.06-.45-.1-.9-.14-1.35s-.1-1.05-.14-1.58-.07-.9-.09-1.35c0-.08,0-.16,0-.24,0-.27,0-.55-.05-.83,0-.62-.06-1.23-.07-1.84s0-1.52,0-2.28v-.12c0-.13,0-.26,0-.38s0-.54,0-.8,0-.54,0-.81c0-.42,0-.84,0-1.25s0-.59,0-.89,0-.62,0-.93,0-.53.05-.8c0,0,0-.09,0-.13s0-.09,0-.13c0-.46.07-.92.12-1.37,0-.06,0-.13,0-.19,0-.43.07-.86.12-1.3.09-.87.2-1.73.32-2.59.05-.41.11-.83.18-1.24.09-.6.19-1.21.3-1.81.07-.41.15-.83.23-1.25a0,0,0,0,1,0,0c.06-.32.12-.64.19-1s.18-.89.28-1.33.22-1,.34-1.48.17-.71.27-1.06.24-1,.37-1.44.21-.78.33-1.16.25-.87.38-1.3a.49.49,0,0,1,0-.11c.06-.22.13-.43.2-.65s.21-.68.33-1c.24-.72.48-1.44.74-2.15A22.54,22.54,0,0,0,149.34,500H0V100.47A100.47,100.47,0,0,1,100.47,0H500V149.34a22.54,22.54,0,0,1-30.29,21.13l-.1,0c-.67-.25-1.35-.48-2-.71l-.36-.11-1.48-.47c-.44-.14-.89-.27-1.33-.39l-1.08-.31c-.48-.13-1-.26-1.44-.37l-.18-.05c-.52-.14-1-.26-1.57-.37-1-.25-2-.47-3.07-.66-.51-.1-1-.2-1.55-.28s-1-.18-1.55-.26l-1.17-.17-.65-.09-.5-.06-.68-.08c-.29,0-.59-.08-.89-.1l-.19,0q-.6-.08-1.2-.12l-1.41-.12h-.13c-.63-.05-1.24-.08-1.87-.11l-.88,0-1.25,0c-.72,0-1.43,0-2.15,0A84.54,84.54,0,0,0,356.58,254.46Z"/><path class="cls-2" d="M1000,500V899.53A100.47,100.47,0,0,1,899.53,1000H500V850.66a22.56,22.56,0,0,1,30.35-21.11c1.75.63,3.53,1.21,5.33,1.72l1.11.31,1.06.28,1.19.29c.55.14,1.1.27,1.66.39l1.77.37c.71.14,1.42.28,2.13.39,1.08.19,2.16.36,3.24.49a.07.07,0,0,0,.06,0c.6.08,1.2.16,1.81.22s1.22.13,1.84.18l1.3.11,1.86.11c.71,0,1.42.07,2.14.08s1.38,0,2.08,0l2.31,0c43.86-1.13,79.93-36.23,82.18-80a84.54,84.54,0,0,0-84.42-89c-.72,0-1.43,0-2.15,0s-1.42,0-2.13.08-1.33.07-2,.12q-.71,0-1.41.12c-.47,0-.93.08-1.39.14-.91.09-1.82.2-2.72.33l-1.17.17q-3.12.48-6.17,1.2c-.52.11-1,.23-1.56.37l-.19.05c-.48.11-1,.24-1.44.37l-1.08.31c-.44.12-.89.25-1.33.39-.62.18-1.23.38-1.84.58s-1.36.46-2,.71l-.1,0A22.54,22.54,0,0,1,500,649.34V500H649.34a22.56,22.56,0,0,0,21.11-30.35q-1-2.65-1.73-5.38c-.11-.35-.21-.71-.3-1.06s-.19-.71-.28-1.06c-.29-1.11-.55-2.22-.78-3.34-.1-.42-.19-.85-.27-1.28-.16-.79-.31-1.58-.43-2.38s-.32-1.91-.44-2.88a1,1,0,0,1,0-.24c-.07-.53-.14-1.07-.19-1.61a.5.5,0,0,1,0-.17q-.11-.9-.18-1.8c0-.43-.08-.87-.11-1.3,0-.62-.08-1.25-.11-1.87s-.07-1.42-.08-2.13,0-1.41,0-2.12v0c0-1.66,0-3.31.15-4.94,0-.52.06-1.05.1-1.57.15-2,.36-3.92.65-5.85.1-.67.21-1.33.32-2s.23-1.26.34-1.89a.61.61,0,0,1,0-.13c.13-.63.26-1.27.4-1.9.2-.92.42-1.83.65-2.73s.45-1.72.7-2.57a85.26,85.26,0,0,1,53.58-56.34l1.32-.44a2.67,2.67,0,0,1,.4-.13l1.31-.41q.86-.28,1.74-.51l1.13-.31,1.1-.28a3.69,3.69,0,0,1,.45-.11q.75-.19,1.5-.36c.54-.13,1.09-.24,1.64-.35s1.38-.28,2.07-.4l2.09-.35,2.11-.29,1.59-.19,1.6-.16,1.62-.12,1.61-.1a83.38,83.38,0,0,1,8.66,0l1.61.1q.81,0,1.62.12l1.6.16,1.59.19,2.11.29,2.09.35c.7.12,1.38.25,2.07.4s1.1.22,1.64.35,1,.23,1.5.36l.45.11c.37.08.74.18,1.1.28l1.13.31q.88.24,1.74.51l1.31.41.4.13,1.32.44,1.12.4.64.24.27.11h0l.16.06.23.09h0l.41.16,0,0,.2.08a1.15,1.15,0,0,1,.17.06l.41.16.25.11c.31.11.62.24.92.38h.06l.06,0,.32.13,0,0,.2.09c.28.11.57.23.84.36l.08,0,.29.13.28.13a2.32,2.32,0,0,1,.39.18l.27.12.68.32a4.59,4.59,0,0,1,.5.24l.44.21.11.06.15.07.42.21.42.22.22.11.11.06h0s0,0,.07,0l1.11.57c.22.11.43.23.64.35l1.5.83.2.11,1,.57c.32.18.63.37.95.57l.24.15.12.07.12.08.37.23a2.92,2.92,0,0,1,.37.24l.18.11h0l.27.17.24.15c.18.11.36.22.53.34l.06,0q.8.53,1.59,1.08l.3.21.42.29.5.36.58.42.35.26.22.17.1.07.18.13.15.12c.53.39,1,.79,1.56,1.19l.8.65c.37.29.73.59,1.09.9a.53.53,0,0,1,.12.1c.31.25.62.51.91.78l.2.17a5.65,5.65,0,0,1,.46.41l0,0,0,0,0,0,.05,0,0,0v0h0c.34.29.67.59,1,.9h0l0,0,0,0c.35.31.68.62,1,.95l0,0h0l0,0,.44.42.12.12c.21.19.41.4.62.61l.06.06a1.85,1.85,0,0,1,.14.14l.31.31c.27.26.54.54.8.81h0l0,0c.41.42.82.85,1.22,1.28l.35.38.86,1,.36.41q.32.35.6.69l.21.25c.4.45.78.92,1.16,1.38.12.15.24.29.35.44l.18.22c.36.44.71.88,1,1.34a.21.21,0,0,1,.06.08l.28.36c.3.4.61.8.9,1.21l.08.1.13.18a.83.83,0,0,0,.08.12l.44.61c.15.21.3.42.44.64l.31.45c.18.24.35.49.51.74a3.28,3.28,0,0,1,.2.31,5.39,5.39,0,0,1,.33.5l.33.5a.35.35,0,0,1,0,.08l0,0q.25.38.48.75l.57.91.55.92.27.46c.27.46.54.93.8,1.4a2,2,0,0,1,.11.2l0,.05.23.43.18.32q.5.92,1,1.83c.33.64.65,1.28,1,1.93,0,0,0,0,0,.06s0,.05,0,.08l0,.09c.09.18.17.37.26.56a1,1,0,0,1,.07.15c.29.61.57,1.23.84,1.85s.51,1.2.75,1.8.41,1,.6,1.52a.78.78,0,0,1,0,.14c.21.55.42,1.11.62,1.66s.39,1.12.58,1.68c.14.36.25.72.36,1.09,0,0,0,0,0,0s.1.27.14.41l.18.6c.1.31.19.63.29.94l.09.32c.11.37.21.75.31,1.13s.2.75.3,1.12c.23.91.45,1.82.65,2.73.14.63.27,1.27.4,1.9a.28.28,0,0,0,0,.13c.11.63.23,1.26.34,1.89s.22,1.32.32,2q.42,2.89.65,5.85c0,.52.08,1.05.1,1.57q.09,1.35.12,2.7,0,1.14,0,2.28c0,.71,0,1.41,0,2.11s0,1.43-.08,2.14-.07,1.33-.12,2c0,.46-.07.92-.12,1.37s-.09,1-.14,1.49c-.09.87-.2,1.73-.32,2.59-.05.41-.11.83-.18,1.24-.28,1.81-.62,3.61-1,5.38-.11.5-.22,1-.34,1.48s-.17.71-.27,1.06-.24,1-.37,1.44-.21.78-.33,1.16-.25.87-.38,1.3q-.27.88-.57,1.77c-.24.72-.48,1.44-.74,2.15A22.54,22.54,0,0,0,850.66,500Z"/><path class="cls-3" d="M1000,100.47V500H850.66a22.54,22.54,0,0,1-21.13-30.29c.26-.71.5-1.43.74-2.15s.39-1.18.57-1.77c.13-.43.26-.87.38-1.3s.22-.77.33-1.16.26-1,.37-1.44.18-.7.27-1.06.23-1,.34-1.48c.39-1.77.73-3.57,1-5.38.07-.41.13-.83.18-1.24.12-.86.23-1.72.32-2.59.06-.5.1-1,.14-1.49s.09-.91.12-1.37c.05-.66.09-1.33.12-2s.07-1.42.08-2.14,0-1.4,0-2.11,0-1.52,0-2.28-.06-1.8-.12-2.7c0-.52-.06-1.05-.1-1.57q-.22-3-.65-5.85c-.1-.67-.21-1.33-.32-2s-.23-1.26-.34-1.89a.28.28,0,0,1,0-.13c-.13-.63-.26-1.27-.4-1.9-.2-.91-.42-1.82-.65-2.73-.1-.37-.19-.75-.3-1.12s-.2-.76-.31-1.13l-.09-.32c-.1-.31-.19-.63-.29-.94l-.18-.6c0-.14-.09-.28-.14-.41s0,0,0,0c-.18-.6-.38-1.19-.58-1.78q-.75-2.22-1.63-4.38c-.19-.47-.38-.94-.59-1.4q-1.51-3.6-3.36-7c-.27-.5-.54-1-.83-1.5-.47-.85-1-1.68-1.47-2.5q-.6-1-1.23-1.95c-.38-.6-.78-1.19-1.19-1.77l-.12-.18c-.86-1.25-1.75-2.47-2.69-3.67-.46-.61-.94-1.21-1.43-1.8-1-1.19-2-2.34-3-3.47-.51-.57-1-1.12-1.57-1.67s-1-1-1.46-1.48l-.27-.26c-.38-.39-.76-.76-1.15-1.11l-.57-.54c-.5-.47-1-.92-1.52-1.37s-1.07-.94-1.61-1.39l-.24-.2c-.5-.42-1-.83-1.52-1.23l-.24-.19c-.57-.46-1.15-.9-1.74-1.33s-1.23-.92-1.86-1.35q-1.87-1.35-3.83-2.55c-.64-.42-1.29-.81-2-1.19l0,0c-.66-.4-1.32-.78-2-1.14s-1.35-.74-2-1.09c-1.31-.69-2.65-1.34-4-1.94l-.47-.21-.29-.13-.27-.12c-.28-.13-.56-.25-.85-.36l0,0-.32-.13-.06,0h-.06c-.3-.14-.61-.27-.92-.38l-.25-.11-.41-.16c-.39-.17-.78-.32-1.18-.46l-.35-.13-.64-.24-1.12-.4-1.32-.44-.4-.13-1.31-.41q-.86-.27-1.74-.51l-1.13-.31c-.36-.1-.73-.2-1.1-.28l-.45-.11q-.75-.19-1.5-.36c-.54-.13-1.09-.24-1.64-.35s-1.37-.28-2.07-.4-1.39-.25-2.09-.35-1.4-.21-2.11-.29l-1.59-.19-1.6-.16q-.81-.07-1.62-.12c-.49-.05-1-.08-1.48-.1h-.13a83.38,83.38,0,0,0-8.66,0h-.13c-.5,0-1,.05-1.48.1l-1.62.12-1.6.16-1.59.19-2.11.29-2.09.35c-.69.12-1.38.26-2.07.4s-1.1.22-1.64.35-1,.23-1.5.36a3.69,3.69,0,0,0-.45.11l-1.1.28-1.13.31q-.88.22-1.74.51c-.44.13-.88.26-1.31.41a2.67,2.67,0,0,0-.4.13l-1.32.44a84.62,84.62,0,0,0-53.58,56.34c-.25.85-.48,1.71-.7,2.57s-.45,1.81-.65,2.73c-.15.63-.28,1.26-.4,1.9a.61.61,0,0,0,0,.13c-.12.63-.24,1.26-.34,1.89s-.23,1.33-.32,2c-.29,1.93-.5,3.88-.65,5.85,0,.52-.08,1.05-.1,1.57-.1,1.63-.15,3.28-.15,4.94v0c0,.71,0,1.41,0,2.12s0,1.42.08,2.13.07,1.25.11,1.87c0,.43.07.87.11,1.3q.08.9.18,1.8a.5.5,0,0,0,0,.17c0,.54.11,1.08.19,1.61a1,1,0,0,0,0,.24c.12,1,.27,1.93.44,2.88s.27,1.59.43,2.38c.08.43.17.86.27,1.28.23,1.12.49,2.23.78,3.34.09.35.18.71.28,1.06s.19.71.3,1.06q.76,2.73,1.73,5.38A22.56,22.56,0,0,1,649.34,500H500V350.66a22.56,22.56,0,0,0-30.35-21.11c-.66.24-1.33.47-2,.7l-1.26.4c-.68.22-1.37.42-2.06.62l-1.11.31-1.06.28-1.19.29c-.55.14-1.1.27-1.66.39l-1.77.37-1.41.27-.72.12-1.47.24-1.23.18-.54.07a.07.07,0,0,1-.06,0l-.18,0c-.54.08-1.08.14-1.63.2s-1.22.13-1.84.18l-1.3.11h-.21l-1.65.1c-.71,0-1.42.07-2.14.08s-1.23,0-1.86,0h-.22l-2.31,0c-43.86-1.13-79.93-36.23-82.18-80a84.54,84.54,0,0,1,84.42-89c.72,0,1.43,0,2.15,0l1.25,0,.88,0c.63,0,1.24.06,1.87.11h.13l1.41.12q.6,0,1.2.12l.19,0,.89.1.68.08.5.06.65.09,1.17.17c.52.08,1,.16,1.55.26s1,.18,1.55.28c1,.2,2.05.42,3.07.66.52.11,1.05.23,1.57.37l.18.05c.48.11,1,.24,1.44.37l1.08.31c.44.12.89.25,1.33.39l1.48.47.36.11c.68.23,1.36.46,2,.71l.1,0A22.54,22.54,0,0,0,500,149.34V0H899.53A100.47,100.47,0,0,1,1000,100.47Z"/><path class="cls-3" d="M643.42,754.46c-2.25,43.81-38.32,78.91-82.18,80l-2.31,0c-.7,0-1.39,0-2.08,0s-1.43,0-2.14-.08l-1.86-.11-1.3-.11c-.62-.05-1.23-.11-1.84-.18s-1.21-.14-1.81-.22a.07.07,0,0,1-.06,0c-1.09-.14-2.17-.3-3.24-.49-.71-.11-1.42-.25-2.13-.39l-1.77-.37c-.56-.12-1.11-.25-1.66-.39l-1.19-.29-1.06-.28-1.11-.31c-1.8-.51-3.58-1.09-5.33-1.72A22.56,22.56,0,0,0,500,850.66V1000H100.47A100.47,100.47,0,0,1,0,899.53V500H149.34a22.54,22.54,0,0,1,21.13,30.29c-.26.71-.5,1.43-.74,2.15-.12.33-.23.67-.33,1s-.14.43-.2.65a.49.49,0,0,0,0,.11c-.13.43-.26.87-.38,1.3s-.22.77-.33,1.16-.26,1-.37,1.44-.18.7-.27,1.06-.23,1-.34,1.48-.19.89-.28,1.33-.13.64-.19,1a0,0,0,0,0,0,0c-.08.42-.16.84-.23,1.25-.11.6-.21,1.21-.3,1.81-.07.41-.13.83-.18,1.24-.12.86-.23,1.72-.32,2.59-.05.44-.09.87-.12,1.3,0,.06,0,.13,0,.19,0,.45-.09.91-.12,1.37,0,0,0,.09,0,.13s0,.09,0,.13c0,.27,0,.54-.05.8s0,.62,0,.93,0,.59,0,.89,0,.83,0,1.25c0,.27,0,.54,0,.81s0,.53,0,.8,0,.25,0,.38V559q0,1.14,0,2.28c0,.61,0,1.22.07,1.84,0,.28,0,.56.05.83,0,.08,0,.16,0,.24,0,.45.06.9.09,1.35s.09,1,.14,1.58.08.9.14,1.35c.1,1,.23,2,.37,2.93.09.67.2,1.33.32,2s.2,1.16.32,1.73c0,0,0,0,0,.08a2.21,2.21,0,0,1,0,.25q.17.93.39,1.86c.2.9.42,1.8.64,2.69A84.62,84.62,0,0,0,220,638h0c.85.33,1.7.63,2.56.93.43.16.87.3,1.32.44.62.2,1.25.4,1.87.58l.08,0,.26.08,1.32.37.56.16.28.07c.45.13.89.24,1.35.35l.91.22.9.21.08,0,1.5.32c.69.15,1.38.28,2.08.4s1.39.25,2.09.35,1.4.21,2.1.29c1.06.14,2.12.25,3.19.35.54,0,1.07.09,1.61.12l1.51.1h.11a84.15,84.15,0,0,0,8.7,0h.11l1.51-.1c.33,0,.67,0,1-.07l.27,0,.77-.07,1-.1,1.8-.21c.7-.08,1.4-.18,2.1-.29s1.4-.22,2.09-.35l1.1-.2,1-.2h0c.47-.09.93-.19,1.4-.3h.05q.94-.21,1.89-.45c.55-.13,1.09-.27,1.63-.42.15,0,.3-.07.44-.12l.05,0,.07,0c.53-.14,1.06-.29,1.58-.45a.11.11,0,0,0,.08,0l.26-.08.16,0c.49-.13,1-.29,1.45-.45l1.32-.44q2.31-.8,4.56-1.72a84.67,84.67,0,0,0,48-51q.41-1.18.78-2.4c.26-.84.5-1.68.73-2.52.13-.45.25-.91.36-1.37.23-.9.45-1.81.65-2.72.15-.6.27-1.2.38-1.8,0,0,0,0,0-.06a1.84,1.84,0,0,0,.05-.25c.12-.6.23-1.2.33-1.81s.23-1.32.32-2,.21-1.48.3-2.23c.07-.59.13-1.18.19-1.78,0-.41.08-.83.11-1.25,0-.2,0-.4,0-.6s0-.39,0-.58.05-.67.06-1,0-.57.05-.86c0-.47,0-.95.05-1.42a.86.86,0,0,0,0-.16c0-.21,0-.42,0-.63,0-.61,0-1.22,0-1.83v-.16c0-.13,0-.26,0-.39s0-.54,0-.81,0-.53,0-.8c0-.71,0-1.42-.08-2.13s-.06-1.11-.1-1.66c0-.07,0-.14,0-.21,0-.43-.07-.87-.11-1.3q-.07-.9-.18-1.8a.5.5,0,0,0,0-.17c0-.07,0-.13,0-.2v0c0-.45-.1-.9-.16-1.34a.09.09,0,0,1,0,0,1,1,0,0,0,0-.24c-.07-.56-.15-1.11-.24-1.66s-.13-.81-.2-1.22-.11-.67-.17-1-.17-.92-.26-1.37-.17-.86-.27-1.28-.17-.83-.28-1.24c-.15-.7-.32-1.4-.5-2.1-.09-.35-.18-.71-.28-1.06s-.19-.71-.3-1.06-.26-.91-.4-1.36c-.2-.68-.42-1.35-.64-2s-.45-1.34-.69-2A22.56,22.56,0,0,1,350.66,500H500V649.34a22.54,22.54,0,0,0,30.29,21.13l.1,0c.67-.25,1.35-.48,2-.71l1.84-.58c.44-.14.89-.27,1.33-.39l1.08-.31c.48-.13,1-.26,1.44-.37l.19-.05c.52-.14,1-.26,1.56-.37q3-.72,6.17-1.2l1.17-.17c.9-.13,1.81-.24,2.72-.33.46-.06.92-.1,1.39-.14s.94-.09,1.41-.12c.67-.05,1.33-.09,2-.12s1.42-.07,2.13-.08,1.43,0,2.15,0A84.54,84.54,0,0,1,643.42,754.46Z"/></g></g></g></svg>