<svg xmlns="http://www.w3.org/2000/svg" viewBox="0 0 848.67 1000"><defs><style>.cls-1{fill:#48575e;}.cls-2{fill:#5b99f5;}</style></defs><title>Lock</title><g id="Layer_2" data-name="Layer 2"><g id="Layer_26" data-name="Layer 26"><g id="Lock"><path class="cls-1" d="M478.74,71.92A245.59,245.59,0,0,0,59.5,245.58V359a102.76,102.76,0,0,1,43.62-9.66H142V247.16C142,157,214.48,82.75,304.63,82.5s163.54,73,163.54,163.08V349.35h38.88A102.76,102.76,0,0,1,550.67,359V245.58A244,244,0,0,0,478.74,71.92Z"/><path class="cls-2" d="M229.07,607.21a75.15,75.15,0,0,0-.55,8.4,76.28,76.28,0,0,0,21.1,53.58,46.69,46.69,0,0,1,9.22,51.21l-1.37,3.08a46.31,46.31,0,0,0,42.31,65.13h10.6a46.19,46.19,0,0,0,46.13-41.74h94.56a240.89,240.89,0,0,0,67.34,86.57l.41.33a51.78,51.78,0,0,1,4.62,76.75A299.87,299.87,0,0,1,309.37,1000C146.09,1000,12.34,873.49.81,713.14Q0,702,0,690.63V452.48A103.06,103.06,0,0,1,103.12,349.35H507.05a103,103,0,0,1,88.24,49.76l.42.7a14.92,14.92,0,0,1-7.8,21.65l-.16.06A240.78,240.78,0,0,0,451.07,547.21H337.91a76.48,76.48,0,0,0-43.54-6.62c-1.27.18-2.54.39-3.79.64a75.28,75.28,0,0,0-18.12,6A77,77,0,0,0,229.07,607.21Z"/><path class="cls-1" d="M669,467.35a179.49,179.49,0,0,0-48.3,6.59q-3.91,1.1-7.77,2.37c-.9.29-1.8.59-2.69.9l-.05,0-.15,0-2.56.92c-1.11.4-2.22.82-3.32,1.25-.95.37-1.9.74-2.84,1.13s-1.61.66-2.4,1-1.37.58-2,.88c-1.81.79-3.6,1.62-5.37,2.47l-1.66.8-1.23.61-2,1q-2.55,1.32-5,2.71c-.83.47-1.65.93-2.47,1.41L576.62,493c-1.62,1-3.23,2-4.81,3-.66.43-1.32.86-2,1.3-.23.14-.45.29-.66.44l-1.75,1.18-1,.69c-.56.38-1.11.77-1.66,1.17-1.06.75-2.1,1.52-3.14,2.29-.65.48-1.3,1-1.94,1.47s-1.14.88-1.7,1.33l-2.21,1.76c-.73.59-1.45,1.19-2.18,1.8L551.75,511l-.38.33-2,1.78c-.71.62-1.4,1.26-2.09,1.89s-1.38,1.29-2.06,1.93l-2,2c-.67.65-1.34,1.32-2,2s-1.32,1.34-2,2q-2.06,2.16-4.05,4.38l-1.31,1.47-.67.78c-.51.58-1,1.17-1.52,1.77s-1.21,1.44-1.8,2.17-1.19,1.46-1.77,2.2L527,537.09c-.46.59-.92,1.18-1.36,1.78q-1.33,1.75-2.62,3.54c-.65.91-1.29,1.83-1.93,2.75l-.43.63c-.61.9-1.22,1.8-1.82,2.71s-1.36,2.08-2,3.14q-3.09,4.89-5.84,10c-.45.84-.9,1.68-1.34,2.52s-.73,1.4-1.08,2.11l-.39.76a178.69,178.69,0,0,0-14.38,40.21H291.41a16.16,16.16,0,0,0-2.78,7.21s0,.08,0,.13a14.15,14.15,0,0,0-.1,1.67,16.22,16.22,0,0,0,4.54,11.58,107.38,107.38,0,0,1,28,54.83c.26,1.41.49,2.83.69,4.24h172a177.89,177.89,0,0,0,12.3,35.9c.35.76.71,1.51,1.08,2.27q2.56,5.3,5.46,10.4l.83,1.45q1.65,2.85,3.4,5.62c.63,1,1.26,2,1.9,3l.19.27c.64,1,1.31,2,2,3q.79,1.15,1.62,2.31c.35.51.72,1,1.08,1.51q1.57,2.16,3.21,4.27c.5.66,1,1.31,1.53,2q1.54,1.95,3.15,3.84c.53.64,1.07,1.27,1.61,1.89,1.45,1.67,2.93,3.33,4.44,4.95.4.44.81.87,1.23,1.3q1.37,1.44,2.76,2.85l1.76,1.75q1.77,1.73,3.59,3.42l1.83,1.67q1.77,1.61,3.58,3.15a2.11,2.11,0,0,0,.23.19l1.56,1.32.72.6c1.08.9,2.18,1.78,3.29,2.66l.11.08q1.89,1.49,3.81,2.92a.71.71,0,0,1,.14.1l2,1.46c.67.49,1.35,1,2,1.44l2.05,1.42,2.06,1.38c1.39.92,2.79,1.81,4.2,2.69q6.36,3.95,13,7.37l2.24,1.12A178.62,178.62,0,0,0,669,826.73c99.08,0,179.69-80.61,179.69-179.69S768.06,467.35,669,467.35Zm0,279.73A100,100,0,1,1,769,647,99.54,99.54,0,0,1,669,747.08Z"/></g></g></g></svg>