<svg xmlns="http://www.w3.org/2000/svg" viewBox="0 0 1000 1000"><defs><style>.cls-1{fill:#48575e;}.cls-2{fill:#5b99f5;}</style></defs><title>Stack of Boxes</title><g id="Layer_2" data-name="Layer 2"><g id="Layer_26" data-name="Layer 26"><g id="Stack_of_Boxes" data-name="Stack of Boxes"><polygon class="cls-1" points="831.45 532.16 831.45 708.82 766.08 680.63 700.72 708.82 700.72 532.16 831.45 532.16"/><path class="cls-2" d="M1000,593.39V938.77A61.23,61.23,0,0,1,938.77,1000H593.39a61.23,61.23,0,0,1-61.23-61.23V593.39a61.24,61.24,0,0,1,61.23-61.23H700.72V708.82l65.36-28.19,65.37,28.19V532.16H938.77A61.23,61.23,0,0,1,1000,593.39Z"/><polygon class="cls-1" points="299.28 532.16 299.28 708.82 233.92 680.63 168.55 708.82 168.55 532.16 299.28 532.16"/><path class="cls-2" d="M467.84,593.39V938.77A61.23,61.23,0,0,1,406.61,1000H61.23A61.23,61.23,0,0,1,0,938.77V593.39a61.23,61.23,0,0,1,61.23-61.23H168.55V708.82l65.37-28.19,65.36,28.19V532.16H406.61A61.24,61.24,0,0,1,467.84,593.39Z"/><polygon class="cls-1" points="565.37 0 565.37 176.66 500 148.47 434.63 176.66 434.63 0 565.37 0"/><path class="cls-2" d="M733.92,61.23V406.61a61.23,61.23,0,0,1-61.23,61.23H327.31a61.23,61.23,0,0,1-61.23-61.23V61.23A61.23,61.23,0,0,1,327.31,0H434.64V176.66L500,148.47l65.36,28.19V0H672.69A61.23,61.23,0,0,1,733.92,61.23Z"/></g></g></g></svg>