<svg xmlns="http://www.w3.org/2000/svg" viewBox="0 0 1000 816.58"><defs><style>.cls-1{fill:#5b99f5;}.cls-2{fill:#48575e;}.cls-3{fill:#e1eaf1;}</style></defs><title>Asset 320</title><g id="Layer_2" data-name="Layer 2"><g id="Data"><path class="cls-1" d="M999.65,260.63,930.52,782.37a39.36,39.36,0,0,1-39,34.21h-783a39.37,39.37,0,0,1-39-34.21L.35,260.63a39.39,39.39,0,0,1,39-44.56H960.61A39.39,39.39,0,0,1,999.65,260.63Z"/><path class="cls-2" d="M976,165.27l-6.73,50.8H61.74V77.59A77.59,77.59,0,0,1,139.33,0H290.86a77.54,77.54,0,0,1,54.86,22.73l32,32a77.58,77.58,0,0,0,54.86,22.73H899A77.59,77.59,0,0,1,976,165.27Z"/><path class="cls-3" d="M863.51,216.07H134.87a44.64,44.64,0,0,1,44.63-44.64H818.88A44.64,44.64,0,0,1,863.51,216.07Z"/></g></g></svg>