<svg xmlns="http://www.w3.org/2000/svg" viewBox="0 0 1000 644.08"><defs><style>.cls-1{fill:#5b99f5;}</style></defs><title>Bricks</title><g id="Layer_2" data-name="Layer 2"><g id="Layer_26" data-name="Layer 26"><g id="Bricks"><rect class="cls-1" y="503.59" width="315.65" height="140.49" rx="25.9"/><rect class="cls-1" x="342.17" y="503.59" width="315.65" height="140.49" rx="25.9"/><rect class="cls-1" x="684.35" y="503.59" width="315.65" height="140.49" rx="25.9"/><rect class="cls-1" y="335.73" width="141.04" height="140.49" rx="25.9"/><rect class="cls-1" x="167.56" y="335.73" width="315.65" height="140.49" rx="25.9"/><rect class="cls-1" x="509.73" y="335.73" width="315.65" height="140.49" rx="25.9"/><rect class="cls-1" x="851.91" y="335.73" width="148.09" height="140.49" rx="25.9"/><rect class="cls-1" y="167.86" width="315.65" height="140.49" rx="25.9"/><rect class="cls-1" x="342.17" y="167.86" width="315.65" height="140.49" rx="25.9"/><rect class="cls-1" x="684.35" y="167.86" width="315.65" height="140.49" rx="25.9"/><rect class="cls-1" width="141.04" height="140.49" rx="25.9"/><rect class="cls-1" x="167.56" width="315.65" height="140.49" rx="25.9"/><rect class="cls-1" x="509.73" width="315.65" height="140.49" rx="25.9"/><rect class="cls-1" x="851.91" width="148.09" height="140.49" rx="25.9"/></g></g></g></svg>