<svg xmlns="http://www.w3.org/2000/svg" viewBox="0 0 1000 1000"><defs><style>.cls-1{fill:none;stroke:#231f20;stroke-linecap:round;stroke-linejoin:round;stroke-width:8px;}.cls-2{fill:#5b99f5;}.cls-3{fill:#e1eaf1;}.cls-4{fill:#48575e;}</style></defs><title>Solid Work</title><g id="Layer_2" data-name="Layer 2"><g id="Layer_26" data-name="Layer 26"><g id="Solid_Work" data-name="Solid Work"><line class="cls-1" x1="255.16" y1="760.81" x2="251.93" y2="757.58"/><path class="cls-2" d="M587.6,741.51,452.87,876.24,449,832.41a128.93,128.93,0,0,0-37.26-79.59l-74.29-74.3a59.3,59.3,0,0,0-8.75-7.21L348,652a57.93,57.93,0,0,1-26.49,15.17,58.34,58.34,0,0,0-39.83-3.85,58.2,58.2,0,0,1-16-93.6,58.17,58.17,0,1,1-82.27-82.27l66.31-66.32A58.17,58.17,0,1,1,332,503.43l22.15-22.15a58.18,58.18,0,0,1,82.29,82.28l13.64-13.64a58.18,58.18,0,0,1,82.27,82.28l-27,27a58.18,58.18,0,0,1,82.28,82.28Z"/><path class="cls-3" d="M452.87,876.24l-55.6,55.6c-85,85-219.4,90.5-310.79,16.49,15.22-63.85,82.11-116.92,82.11-116.92s83.34-73.83,135.13-22l-48.56-48.56a58.19,58.19,0,0,1,66.32-93.61,57.37,57.37,0,0,1,7.21,4.11,59.3,59.3,0,0,1,8.75,7.21l74.29,74.3A128.93,128.93,0,0,1,449,832.41Z"/><path class="cls-4" d="M348,652l-19.28,19.28a57.37,57.37,0,0,0-7.21-4.11A57.93,57.93,0,0,0,348,652Z"/><path class="cls-4" d="M168.59,831.41S101.7,884.48,86.48,948.33a234,234,0,0,1-18.32-16.49c-90.88-90.88-90.88-238.23,0-329.11L183.42,487.48a58.17,58.17,0,1,0,82.27,82.27,58.2,58.2,0,0,0,16,93.6,58.18,58.18,0,0,0-26.49,97.46l48.56,48.56C251.93,757.58,168.59,831.41,168.59,831.41Z"/><line class="cls-1" x1="744.84" y1="239.19" x2="748.07" y2="242.42"/><path class="cls-2" d="M412.4,258.49,547.13,123.76,551,167.59a128.93,128.93,0,0,0,37.26,79.59l74.29,74.3a59.3,59.3,0,0,0,8.75,7.21L652,348a57.75,57.75,0,0,1,26.49-15.17,58.34,58.34,0,0,0,39.83,3.85,58.2,58.2,0,0,1,16,93.6,58.17,58.17,0,1,1,82.27,82.27l-66.31,66.32A58.17,58.17,0,1,1,668,496.57l-22.15,22.15a58.18,58.18,0,1,1-82.29-82.28l-13.64,13.64a58.18,58.18,0,0,1-82.27-82.28l27-27a58.18,58.18,0,0,1-82.28-82.28Z"/><path class="cls-3" d="M547.13,123.76l55.6-55.6c85-85,219.4-90.5,310.79-16.49-15.22,63.85-82.11,116.92-82.11,116.92s-83.34,73.83-135.13,22l48.56,48.56a58.19,58.19,0,0,1-66.32,93.61,57.37,57.37,0,0,1-7.21-4.11,59.3,59.3,0,0,1-8.75-7.21l-74.29-74.3A128.93,128.93,0,0,1,551,167.59Z"/><path class="cls-4" d="M652,348l19.28-19.28a57.37,57.37,0,0,0,7.21,4.11A57.75,57.75,0,0,0,652,348Z"/><path class="cls-4" d="M831.41,168.59s66.89-53.07,82.11-116.92a234,234,0,0,1,18.32,16.49c90.88,90.88,90.88,238.23,0,329.11L816.58,512.52a58.17,58.17,0,1,0-82.27-82.27,58.2,58.2,0,0,0-16-93.6,58.18,58.18,0,0,0,26.49-97.46l-48.56-48.56C748.07,242.42,831.41,168.59,831.41,168.59Z"/></g></g></g></svg>