<svg xmlns="http://www.w3.org/2000/svg" viewBox="0 0 988.35 1000"><defs><style>.cls-1{fill:#5b99f5;}.cls-2{fill:#48575e;}</style></defs><title>Asset 336</title><g id="Layer_2" data-name="Layer 2"><g id="Noise"><path class="cls-1" d="M566.11,1000a36.23,36.23,0,0,1-36.23-36.23V36.23a36.23,36.23,0,0,1,72.46,0V963.77A36.23,36.23,0,0,1,566.11,1000Z"/><path class="cls-1" d="M759.11,845.19A36.23,36.23,0,0,1,722.88,809V191a36.24,36.24,0,0,1,72.47,0V809A36.23,36.23,0,0,1,759.11,845.19Z"/><path class="cls-1" d="M952.12,684.86a36.24,36.24,0,0,1-36.23-36.24V351.38a36.23,36.23,0,1,1,72.46,0V648.62A36.24,36.24,0,0,1,952.12,684.86Z"/><path class="cls-2" d="M188.86,784.16a36.24,36.24,0,0,1-25.62-61.86L322.86,562.69,190.3,430.13a36.23,36.23,0,0,1,0-51.24L365.82,203.37a36.23,36.23,0,0,1,51.24,51.24l-149.9,149.9L399.71,537.07a36.21,36.21,0,0,1,0,51.24L214.48,773.55A36.13,36.13,0,0,1,188.86,784.16Z"/><path class="cls-2" d="M129.2,602.39a36.12,36.12,0,0,1-25.62-10.61l-93-93a36.23,36.23,0,0,1,51.24-51.24l93,93a36.23,36.23,0,0,1-25.62,61.85Z"/></g></g></svg>