<svg xmlns="http://www.w3.org/2000/svg" viewBox="0 0 963.2 1000"><defs><style>.cls-1{fill:#48575e;}.cls-2{fill:#5b99f5;}</style></defs><title>Asset 332</title><g id="Layer_2" data-name="Layer 2"><g id="Context"><path class="cls-1" d="M75.19,236.9A249.33,249.33,0,0,1,144.82,63.61a37.6,37.6,0,1,0-54.29-52,325.67,325.67,0,0,0,4.85,455.6A37.6,37.6,0,1,0,148.55,414,248.81,248.81,0,0,1,75.19,236.9Z"/><path class="cls-1" d="M219.21,239.09a105.92,105.92,0,0,1,29.6-73.64h0c.52-.54,1.05-1.08,1.58-1.61a37.6,37.6,0,1,0-53.17-53.17c-.91.92-1.81,1.84-2.71,2.77v0a181.64,181.64,0,0,0,2.72,254.08,37.6,37.6,0,1,0,53.17-53.17A105.77,105.77,0,0,1,219.21,239.09Z"/><path class="cls-1" d="M872.67,11.58a37.6,37.6,0,1,0-54.29,52A250.46,250.46,0,0,1,814.65,414a37.6,37.6,0,0,0,53.17,53.17,325.67,325.67,0,0,0,4.85-455.6Z"/><path class="cls-1" d="M768.7,113.45v0c-.89-.93-1.8-1.85-2.71-2.77a37.6,37.6,0,0,0-53.17,53.17c.53.53,1.06,1.07,1.58,1.61h0a106.44,106.44,0,0,1-1.59,148.91A37.6,37.6,0,0,0,766,367.53a181.62,181.62,0,0,0,2.72-254.08Z"/><circle class="cls-2" cx="481.6" cy="239.09" r="159.53"/><path class="cls-1" d="M481.6,449.55q-6.72,0-13.32-.43A14.48,14.48,0,0,0,452.82,464l17.3,524.88c.48,14.81,22.48,14.81,23,0L510.38,464a14.48,14.48,0,0,0-15.45-14.89Q488.31,449.54,481.6,449.55Z"/></g></g></svg>