<svg xmlns="http://www.w3.org/2000/svg" viewBox="0 0 960.16 1000"><defs><style>.cls-1{fill:#5b99f5;}.cls-2{fill:#48575e;}</style></defs><title>Asset 338</title><g id="Layer_2" data-name="Layer 2"><g id="Phone"><path class="cls-1" d="M152.93,8.62C175.2,22.18,201,45.25,229.64,83.29c60.43,80.49,91.5,170.14,106.43,226.79-13.81,12.33-29.8,23.78-44.09,38.48C236.1,406.05,263.43,515,357.55,616.85S558.19,754.43,619.86,703.2s76-132,270.37,5.06S835.36,1042,609.62,992.07,216,747.69,216,747.69,35.29,565.14,3.22,336.17C-17.07,191.44,61.61,45,152.93,8.62Z"/><path class="cls-2" d="M152.93,8.62c53.12-21.22,110.53-5.21,155.19,70,90.42,152.23,68.29,195.54,27.95,231.43-14.93-56.65-46-146.3-106.43-226.79C201,45.25,175.2,22.18,152.93,8.62Z"/><path class="cls-2" d="M947.91,868.48c25.31-51.29,13.85-109.78-57.67-160.2-144.68-102.06-189.59-83.38-228.53-46C717,681.63,804,719.62,879.47,786.16,915.16,817.65,936.13,845.22,947.91,868.48Z"/></g></g></svg>