<svg xmlns="http://www.w3.org/2000/svg" viewBox="0 0 1000 882.26"><defs><style>.cls-1{fill:#5b99f5;}.cls-2{fill:#e1eaf1;}.cls-3{fill:#48575e;}</style></defs><title>Computer Bug</title><g id="Layer_2" data-name="Layer 2"><g id="Layer_26" data-name="Layer 26"><g id="Computer_Bug" data-name="Computer Bug"><path class="cls-1" d="M1000,522.82v76.93A100.78,100.78,0,0,1,899.22,700.53H100.78A100.78,100.78,0,0,1,0,599.75V522.82Z"/><path class="cls-2" d="M1000,100.78v422H0v-422A100.78,100.78,0,0,1,100.78,0H899.22A100.78,100.78,0,0,1,1000,100.78Z"/><circle class="cls-3" cx="500" cy="611.08" r="34.79"/><path class="cls-3" d="M717.9,851.17a31.09,31.09,0,0,1-31.09,31.09H313.19a31.09,31.09,0,1,1,0-62.17H686.81A31.09,31.09,0,0,1,717.9,851.17Z"/><path class="cls-2" d="M660.05,820.09H340s87.62-30.8,87.62-119.56H572.43C572.43,789.29,660.05,820.09,660.05,820.09Z"/><path class="cls-3" d="M333.69,161.49a11,11,0,1,1,22,0c0,16.54,10.22,31.24,30.39,43.69a130,130,0,0,0,14.46,7.66,64.92,64.92,0,0,0-5.62,21.58,156,156,0,0,1-20.4-10.52C347.81,207.42,333.69,185.83,333.69,161.49Z"/><path class="cls-3" d="M400,300.77H330.39a11,11,0,0,1,0-22h66.36C397.56,285.81,398.64,293.21,400,300.77Z"/><path class="cls-3" d="M414.46,350.44a153.21,153.21,0,0,0,11.3,21.8c-1,0-1.95,0-3,0-14,0-34,2.19-46.61,13.07-8.15,7-12.12,16.87-12.12,30.12a11,11,0,0,1-22,0c0-19.8,6.69-35.56,19.86-46.86C377,355.57,397.78,351.42,414.46,350.44Z"/><path class="cls-3" d="M658,415.39a11,11,0,0,1-22,0c0-13.25-4-23.1-12.12-30.12-12.64-10.88-32.59-13.07-46.61-13.07-1,0-2,0-3,0a153.21,153.21,0,0,0,11.3-21.8c16.68,1,37.49,5.13,52.58,18.09C651.29,379.83,658,395.59,658,415.39Z"/><path class="cls-3" d="M605.07,234.42a64.92,64.92,0,0,0-5.62-21.58,130,130,0,0,0,14.46-7.66c20.17-12.45,30.39-27.15,30.39-43.69a11,11,0,1,1,22,0c0,24.34-14.12,45.93-40.84,62.41A156,156,0,0,1,605.07,234.42Z"/><path class="cls-3" d="M680.61,289.76a11,11,0,0,1-11,11H600c1.4-7.56,2.48-15,3.29-22h66.36A11,11,0,0,1,680.61,289.76Z"/><path class="cls-2" d="M578.11,156.9c0,9.48-4.7,18.43-13,25.92-13.69,12.43-37.15,20.8-65.15,20.8a122.07,122.07,0,0,1-37.94-5.74c-11.08-3.64-20.37-8.85-27.21-15.06a42.71,42.71,0,0,1-9.58-12.21,30.14,30.14,0,0,1-3.39-13.71c0-14.78,26.92-20.77,49.16-23.18a256.52,256.52,0,0,1,57.92,0C551.2,136.13,578.11,142.12,578.11,156.9Z"/><path class="cls-1" d="M529,133.72a256.52,256.52,0,0,0-57.92,0s2.07-37.29,29-37.29S529,133.72,529,133.72Z"/><path class="cls-1" d="M605.43,242.16a327.36,327.36,0,0,1-2.18,36.59c-.81,7.06-1.89,14.46-3.29,22-3,16.49-7.64,33.73-14.42,49.67a153.21,153.21,0,0,1-11.3,21.8c-15.87,25.07-39.46,43.15-74.24,43.15-17.39,0-32-4.52-44.21-12.17s-22.09-18.45-30-31a153.21,153.21,0,0,1-11.3-21.8c-6.78-15.94-11.38-33.18-14.42-49.67-1.4-7.56-2.48-15-3.29-22a327.36,327.36,0,0,1-2.18-36.59c0-2.7.13-5.27.36-7.74a64.92,64.92,0,0,1,5.62-21.58,56.73,56.73,0,0,1,34.3-30c6.84,6.21,16.13,11.42,27.21,15.06A122.07,122.07,0,0,0,500,203.62c28,0,51.46-8.37,65.15-20.8a51.29,51.29,0,0,1,13.06,6,56,56,0,0,1,21.24,24,64.92,64.92,0,0,1,5.62,21.58C605.3,236.89,605.43,239.46,605.43,242.16Z"/></g></g></g></svg>